<svg width="136" height="70" viewBox="0 0 136 70" fill="none" xmlns="http://www.w3.org/2000/svg">
<g clip-path="url(#clip0_781_119)">
<g opacity="0.6">
<path d="M110.34 24.436C111.77 21.807 115.987 22.316 116.568 24.679C117.005 23.831 117.635 23.225 118.495 22.909C119.755 22.449 121.984 22.559 122.796 23.939C123.111 24.473 123.269 25.054 123.269 25.66C123.281 28.023 123.257 30.373 123.281 32.736C123.293 33.294 122.929 33.112 122.663 33.148C122.336 33.184 122.154 33.136 122.166 32.724C122.19 30.567 122.19 28.411 122.166 26.254C122.166 25.672 122.093 25.091 121.73 24.57C121.233 23.867 120.215 23.515 119.379 23.66C118.022 23.903 117.271 24.727 116.883 25.975C116.774 26.339 116.799 26.726 116.799 27.102C116.778 28.9596 116.782 30.8175 116.811 32.675C116.823 33.148 116.605 33.16 116.253 33.16C115.89 33.16 115.696 33.148 115.696 32.676C115.72 30.519 115.72 28.362 115.708 26.206C115.708 25.526 115.587 24.86 115.114 24.339C114.399 23.564 113.479 23.503 112.546 23.746C111.237 24.085 110.34 25.345 110.34 26.666C110.34 28.641 110.34 30.616 110.328 32.591C110.328 32.772 110.425 33.063 110.195 33.124C109.905 33.1926 109.604 33.2008 109.31 33.148C109.153 33.124 109.226 32.881 109.226 32.748V25.284C109.226 24.618 109.238 23.952 109.214 23.297C109.201 22.994 109.286 22.873 109.601 22.922C109.747 22.946 109.904 22.934 110.05 22.922C110.268 22.898 110.34 22.994 110.328 23.2C110.328 23.564 110.34 23.964 110.34 24.436ZM86.556 52.11C85.926 52.898 85.198 53.565 84.217 53.88C81.987 54.582 79.661 53.673 78.728 51.432C77.844 49.312 77.917 47.227 79.14 45.252C80.085 43.738 81.867 43.192 83.587 43.496C84.799 43.702 85.732 44.271 86.434 45.252C86.592 45.156 86.519 45.01 86.519 44.889C86.519 43.108 86.543 41.339 86.507 39.558C86.495 39.085 86.713 39.098 87.04 39.122C87.319 39.146 87.634 38.988 87.634 39.546C87.61 44.186 87.61 48.839 87.634 53.48C87.634 53.88 87.464 53.916 87.161 53.88C86.907 53.843 86.531 54.037 86.58 53.492C86.616 53.032 86.58 52.559 86.58 52.098V52.026C86.58 52.062 86.568 52.086 86.556 52.11ZM79.346 48.682C79.346 49.432 79.443 50.16 79.71 50.887C80.182 52.135 81.576 53.237 83.115 53.092C84.617 52.947 85.707 52.159 86.205 50.705C86.5646 49.6647 86.6314 48.5456 86.398 47.47C86.192 46.488 85.78 45.568 84.871 45.01C84.338 44.683 83.757 44.562 83.115 44.501C82.242 44.429 81.491 44.586 80.812 45.107C79.673 46.016 79.322 47.276 79.346 48.682ZM44.657 30.313C44.305 32.348 42.173 33.318 40.597 33.366C39.204 33.415 38.017 32.966 37.072 31.973C36.357 31.222 35.982 30.276 35.812 29.259C35.545 27.683 35.739 26.157 36.575 24.763C37.35 23.491 38.489 22.74 40.028 22.703C40.876 22.679 41.712 22.667 42.524 23.079C43.542 23.589 44.208 24.376 44.547 25.442C44.79 26.193 44.85 26.969 44.887 27.756C44.911 28.144 44.802 28.253 44.402 28.253C42.027 28.229 39.652 28.241 37.278 28.241C36.732 28.241 36.757 28.265 36.853 28.811C36.975 29.586 37.181 30.325 37.665 30.967C39.035 32.809 41.47 32.7 42.997 31.44C43.178 31.294 43.347 31.125 43.408 30.894C43.602 30.252 44.063 30.167 44.656 30.313H44.657ZM40.295 27.211H42.985C43.724 27.211 43.748 27.211 43.675 26.46C43.627 26.0251 43.4909 25.6046 43.275 25.224C42.609 24.061 41.543 23.661 40.258 23.697C38.38 23.734 37.205 25.151 36.914 26.799C36.854 27.102 36.974 27.223 37.314 27.223C38.307 27.187 39.302 27.211 40.295 27.211ZM94.177 30.276C93.801 31.961 92.662 32.882 91.099 33.233C89.088 33.693 87.367 33.16 86.131 31.403C85.586 30.64 85.344 29.756 85.247 28.859C85.114 27.526 85.247 26.193 85.925 25.006C86.737 23.588 87.925 22.74 89.609 22.704C90.203 22.692 90.784 22.655 91.366 22.824C93.026 23.322 93.862 24.497 94.201 26.12C94.322 26.69 94.25 27.272 94.298 27.841C94.334 28.204 94.189 28.241 93.886 28.241C91.548 28.229 89.197 28.253 86.859 28.229C86.399 28.229 86.313 28.338 86.362 28.786C86.519 30.276 87.137 31.403 88.531 32.082C90.069 32.821 92.662 31.985 93.098 30.47C93.147 30.313 93.244 30.264 93.389 30.276H94.177ZM89.791 27.211H92.868C93.111 27.211 93.208 27.163 93.208 26.884C93.2046 26.3434 93.0715 25.8115 92.82 25.333C92.335 24.424 91.572 23.952 90.542 23.758C88.482 23.358 86.64 24.8 86.422 26.835C86.386 27.175 86.519 27.211 86.798 27.211C87.804 27.199 88.798 27.211 89.791 27.211ZM75.566 30.276C75.142 31.961 74.027 32.894 72.428 33.245C70.658 33.633 69.096 33.245 67.848 31.852C67.205 31.125 66.866 30.252 66.708 29.319C66.478 27.986 66.6 26.69 67.108 25.429C67.702 23.952 69.289 22.667 71.01 22.704C72.016 22.716 72.997 22.752 73.882 23.346C74.863 24.012 75.323 24.982 75.578 26.096C75.711 26.678 75.626 27.272 75.687 27.866C75.723 28.241 75.578 28.266 75.287 28.266C73.033 28.253 70.78 28.266 68.514 28.266C67.739 28.266 67.739 28.266 67.799 29.016C67.957 30.979 69.519 32.554 71.555 32.373C72.815 32.263 73.966 31.852 74.475 30.519C74.536 30.349 74.645 30.301 74.803 30.301C75.045 30.277 75.299 30.277 75.566 30.277V30.276ZM71.168 27.211H74.245C74.403 27.211 74.633 27.296 74.621 26.981C74.561 26.181 74.379 25.43 73.845 24.811C72.864 23.673 71.592 23.479 70.247 23.843C68.853 24.23 68.138 25.309 67.811 26.653C67.726 26.993 67.763 27.259 68.296 27.235C69.241 27.163 70.198 27.211 71.168 27.211ZM97.836 52.026C97.424 52.426 97.097 52.898 96.636 53.237C95.413 54.134 93.074 54.473 91.766 53.516C90.833 52.826 90.433 51.529 90.663 50.511C91.003 48.984 92.166 48.427 93.486 48.209C94.54 48.027 95.619 47.906 96.661 47.7C97.824 47.47 98.224 46.064 97.4 45.168C97.048 44.78 96.6 44.538 96.091 44.489C94.88 44.368 93.656 44.211 92.699 45.265C92.529 45.459 92.444 45.677 92.299 45.883C92.214 46.016 92.262 46.27 92.093 46.295C91.803 46.343 91.487 46.355 91.208 46.295C90.978 46.246 91.111 46.04 91.16 45.895C91.608 44.647 92.456 43.859 93.765 43.58C95.11 43.29 96.418 43.265 97.642 44.017C98.466 44.513 98.83 45.313 98.89 46.222C99.011 47.882 98.915 49.542 98.939 51.202C98.951 51.965 98.927 52.728 98.951 53.492C98.963 53.782 98.902 53.892 98.575 53.892C97.836 53.879 97.836 53.904 97.836 53.165V52.026C97.848 52.015 97.86 52.002 97.86 51.989C97.86 51.977 97.848 51.965 97.836 51.953V52.026ZM97.836 49.154C97.836 48.984 97.824 48.827 97.836 48.657C97.873 48.294 97.739 48.27 97.436 48.415C97.218 48.524 96.976 48.56 96.746 48.621C95.606 48.9 94.419 48.888 93.292 49.215C92.129 49.554 91.608 50.415 91.729 51.287C91.899 52.571 92.832 53.092 93.874 53.092C96.055 53.056 97.86 51.626 97.836 49.154ZM56.41 18.511C56.422 20.608 56.434 22.691 56.434 24.788C56.361 24.836 56.313 24.908 56.422 24.945C56.519 24.969 56.519 24.86 56.519 24.788C57.269 23.37 58.421 22.655 60.045 22.692C60.845 22.716 61.62 22.74 62.322 23.176C63.316 23.794 63.679 24.763 63.704 25.854C63.74 28.144 63.704 30.434 63.728 32.724C63.728 33.342 63.304 33.112 63.001 33.172C62.601 33.245 62.601 33.015 62.601 32.712C62.613 30.604 62.601 28.495 62.613 26.387C62.613 26.011 62.541 25.636 62.456 25.272C62.201 24.255 61.353 23.794 60.384 23.697C58.191 23.491 56.894 24.848 56.458 26.738C56.398 27.029 56.434 27.332 56.434 27.635C56.434 29.307 56.41 30.991 56.446 32.663C56.458 33.233 56.131 33.136 55.78 33.173C55.331 33.221 55.32 32.991 55.32 32.663C55.331 28.144 55.32 23.637 55.32 19.117C55.32 18.414 55.32 18.414 56.022 18.427C56.119 18.427 56.216 18.439 56.325 18.439C56.361 18.463 56.385 18.487 56.41 18.511ZM118.737 54.086C116.508 54.231 114.702 52.498 114.206 50.584C113.721 48.681 113.866 46.9 114.993 45.277C115.841 44.053 117.041 43.447 118.543 43.423C119.731 43.399 120.833 43.641 121.803 44.368C122.796 45.119 123.317 46.149 123.547 47.337C123.826 48.803 123.753 50.232 123.087 51.589C122.251 53.262 120.858 54.037 119.028 54.086H118.737ZM122.493 48.633C122.614 47.3 122.154 46.149 121.076 45.228C120.058 44.344 117.744 44.211 116.629 45.156C115.478 46.137 115.078 47.409 115.114 48.876C115.151 50.451 115.696 51.723 117.077 52.583C118.555 53.503 120.555 53.043 121.572 51.82C122.336 50.923 122.542 49.845 122.493 48.633ZM51.95 48.815C52 50.039 51.781 51.202 51.03 52.207C50.182 53.358 49.03 54.013 47.577 54.086C46.389 54.158 45.287 53.976 44.317 53.262C43.19 52.438 42.572 51.322 42.379 49.942C42.173 48.548 42.233 47.203 42.875 45.932C43.711 44.283 45.056 43.435 46.91 43.411C48.025 43.399 49.055 43.617 49.988 44.283C51.054 45.047 51.575 46.101 51.854 47.337C51.963 47.833 51.95 48.33 51.95 48.815ZM47.043 44.525C46.074 44.465 45.25 44.78 44.583 45.483C43.893 46.21 43.59 47.083 43.457 48.063C43.251 49.603 43.578 50.947 44.681 52.05C46.268 53.637 48.837 53.37 50.085 51.505C50.836 50.378 50.909 49.142 50.775 47.809C50.594 46.016 49.115 44.404 47.044 44.526L47.043 44.525ZM67.993 45.422C68.659 44.356 69.58 43.69 70.78 43.484C72.27 43.241 74.04 43.484 74.839 44.925C75.129 45.446 75.263 46.015 75.275 46.61C75.299 48.912 75.287 51.226 75.299 53.528C75.299 53.807 75.239 53.928 74.948 53.892C74.815 53.879 74.681 53.867 74.548 53.892C74.221 53.94 74.172 53.795 74.172 53.504C74.185 51.335 74.197 49.154 74.172 46.985C74.16 46.173 73.966 45.422 73.227 44.889C72.234 44.174 70.417 44.368 69.544 45.047C68.49 45.871 67.993 46.937 68.005 48.27C68.017 50.014 67.981 51.76 68.017 53.492C68.029 54.001 67.727 53.892 67.447 53.892C67.169 53.892 66.878 54.001 66.89 53.492C66.915 50.342 66.915 47.179 66.89 44.029C66.89 43.508 67.181 43.629 67.46 43.629C67.739 43.629 68.066 43.519 68.017 44.029C67.957 44.489 67.993 44.962 67.993 45.422ZM135.058 53.867C134.028 53.928 134.028 53.928 134.028 52.91C134.028 50.972 134.04 49.02 134.028 47.082C134.016 46.052 133.737 45.132 132.671 44.683C130.514 43.774 128.091 45.289 127.897 47.591C127.74 49.53 127.849 51.468 127.849 53.419C127.849 53.892 127.643 53.916 127.291 53.892C126.976 53.879 126.71 53.952 126.722 53.443C126.746 50.317 126.746 47.203 126.722 44.077C126.722 43.581 126.964 43.617 127.291 43.617C127.631 43.617 127.909 43.593 127.849 44.089C127.8 44.513 127.837 44.949 127.837 45.483C128.309 44.877 128.733 44.356 129.315 43.993C130.587 43.181 132.853 43.229 134.04 44.15C134.864 44.792 135.119 45.713 135.143 46.67C135.179 49.045 135.155 51.42 135.143 53.795C135.112 53.816 135.084 53.8401 135.058 53.867ZM98.37 23.006C98.381 25.369 98.37 27.72 98.406 30.083C98.43 31.306 99.436 32.239 100.671 32.288C101.871 32.336 102.864 31.985 103.604 31.016C104.149 30.301 104.355 29.453 104.379 28.58C104.415 26.823 104.415 25.066 104.391 23.297C104.379 22.813 104.609 22.825 104.961 22.825C105.324 22.825 105.518 22.837 105.518 23.31C105.494 26.436 105.506 29.55 105.506 32.676C105.506 32.857 105.554 33.087 105.324 33.136C105.064 33.1823 104.798 33.1864 104.537 33.148C104.428 33.136 104.476 32.942 104.476 32.833V31.15C104.306 31.356 104.173 31.49 104.076 31.647C102.986 33.416 99.92 33.925 98.248 32.362C97.666 31.816 97.315 31.102 97.303 30.278C97.279 28 97.303 25.734 97.279 23.456C97.267 22.996 97.399 22.838 97.849 22.911C97.994 22.935 98.151 22.923 98.296 22.935C98.309 22.947 98.345 22.971 98.369 23.007L98.37 23.006ZM62.117 51.953C61.837 52.304 61.535 52.595 61.257 52.91C60.166 54.17 57.561 54.4 56.155 53.334C55.404 52.764 54.955 51.965 54.943 50.984C54.931 48.681 54.956 46.367 54.919 44.065C54.907 43.568 55.162 43.617 55.489 43.605C55.816 43.605 56.059 43.568 56.046 44.065C56.0157 46.2902 56.0157 48.5158 56.046 50.741C56.07 52.389 57.573 53.298 59.002 53.044C61.122 52.668 61.898 51.274 62.007 49.408C62.117 47.652 62.056 45.895 62.032 44.138C62.02 43.678 62.165 43.581 62.589 43.605C62.953 43.629 63.171 43.593 63.171 44.114C63.1408 47.2156 63.1408 50.3174 63.171 53.419C63.171 53.904 62.953 53.879 62.613 53.892C62.25 53.904 62.08 53.832 62.117 53.419C62.141 52.934 62.117 52.449 62.117 51.953ZM103.216 48.548C103.216 47.179 103.204 46.077 103.216 44.962C103.216 44.683 103.143 44.586 102.852 44.598C102.356 44.623 101.859 44.598 101.362 44.61C100.902 44.623 101.095 44.283 101.083 44.077C101.071 43.883 100.95 43.581 101.362 43.605C101.81 43.629 102.259 43.581 102.707 43.617C103.143 43.653 103.228 43.484 103.216 43.084C103.192 42.32 103.204 41.557 103.204 40.794C103.204 40.636 103.204 40.491 103.398 40.454C103.676 40.394 103.943 40.212 104.234 40.284C104.367 40.309 104.294 40.515 104.294 40.648C104.294 41.496 104.318 42.345 104.294 43.193C104.282 43.544 104.403 43.653 104.743 43.629C105.324 43.605 105.906 43.653 106.487 43.617C106.96 43.581 106.839 43.896 106.839 44.126C106.839 44.38 106.936 44.659 106.475 44.635C105.882 44.598 105.276 44.635 104.682 44.623C104.428 44.623 104.294 44.659 104.294 44.962C104.306 47.155 104.306 49.348 104.306 51.541C104.306 52.401 104.73 52.947 105.712 52.911C105.966 52.898 106.209 52.934 106.463 52.898C106.936 52.825 107.093 52.983 107.057 53.48C107.033 53.807 106.996 53.952 106.621 53.916C105.966 53.856 105.312 53.952 104.646 53.831C103.725 53.661 103.325 52.789 103.252 52.147C103.143 50.85 103.252 49.566 103.216 48.548ZM37.023 53.783C37.023 50.875 37.011 47.979 37.023 45.071C37.023 44.683 36.926 44.538 36.538 44.586C36.308 44.61 36.066 44.562 35.848 44.598C35.375 44.671 35.194 44.501 35.242 44.017C35.266 43.714 35.315 43.557 35.654 43.593C35.944 43.629 36.26 43.568 36.55 43.605C36.963 43.653 37.035 43.471 37.035 43.108C37.035 42.32 36.938 41.521 37.108 40.745C37.387 39.533 37.968 39.231 39.058 39.145C39.434 39.109 39.822 39.17 40.198 39.122C40.634 39.073 40.706 39.242 40.706 39.642C40.706 40.054 40.61 40.188 40.186 40.152C39.798 40.127 39.398 40.115 38.998 40.212C38.392 40.37 38.138 40.612 38.114 41.254C38.089 41.933 38.114 42.611 38.089 43.29C38.089 43.532 38.162 43.605 38.404 43.605C38.974 43.593 39.531 43.629 40.101 43.593C40.561 43.568 40.452 43.859 40.464 44.113C40.476 44.38 40.513 44.635 40.077 44.61C39.447 44.586 38.817 44.623 38.187 44.623C38.102 44.61 38.089 44.647 38.114 44.719C38.114 47.543 38.102 50.378 38.102 53.201C38.102 53.891 38.102 53.891 37.387 53.891C37.29 53.891 37.193 53.88 37.096 53.88C37.0747 53.8455 37.0502 53.8131 37.023 53.783ZM49.733 19.614C49.733 20.559 49.758 21.504 49.746 22.449C49.746 22.752 49.83 22.849 50.133 22.837C50.727 22.813 51.333 22.849 51.926 22.825C52.46 22.801 52.217 23.188 52.254 23.406C52.29 23.636 52.302 23.855 51.926 23.831C51.333 23.794 50.726 23.831 50.133 23.818C49.879 23.806 49.745 23.855 49.745 24.17C49.758 26.448 49.758 28.713 49.77 30.991C49.77 31.694 50.121 32.033 50.812 32.081C51.272 32.118 51.745 32.131 52.205 32.106C52.629 32.082 52.569 32.361 52.545 32.591C52.52 32.809 52.714 33.172 52.229 33.148C51.563 33.112 50.884 33.233 50.218 33.075C49.237 32.845 48.703 32.227 48.691 31.222C48.667 28.968 48.655 26.714 48.667 24.448C48.667 23.964 48.582 23.758 48.049 23.818C47.625 23.867 47.189 23.83 46.753 23.83C46.256 23.83 46.523 23.455 46.474 23.249C46.438 23.055 46.401 22.813 46.764 22.825C47.262 22.849 47.758 22.813 48.255 22.837C48.558 22.849 48.655 22.764 48.643 22.449C48.619 21.783 48.631 21.116 48.631 20.462C48.631 19.699 48.812 19.529 49.636 19.542C49.685 19.553 49.709 19.59 49.733 19.614ZM80.037 24.29C80.824 23.03 82.024 22.704 83.405 22.788C83.769 22.813 83.635 23.068 83.623 23.212C83.611 23.382 83.817 23.661 83.405 23.697C82.957 23.746 82.496 23.807 82.06 23.927C80.873 24.279 80.243 25.163 79.94 26.314C79.819 26.763 79.843 27.224 79.843 27.671C79.843 29.331 79.819 30.991 79.855 32.651C79.867 33.233 79.528 33.124 79.189 33.161C78.801 33.209 78.74 33.051 78.74 32.688C78.753 29.574 78.765 26.448 78.74 23.334C78.74 22.837 78.983 22.874 79.31 22.874C79.625 22.874 79.94 22.813 79.867 23.322C79.819 23.625 79.867 23.952 79.867 24.267C79.8328 24.3995 79.8412 24.5395 79.891 24.667C79.952 24.545 80.061 24.447 80.037 24.29ZM110.97 48.754C110.97 50.329 110.946 51.904 110.983 53.48C110.995 53.928 110.777 53.928 110.474 53.892C110.207 53.867 109.844 54.062 109.856 53.492C109.88 50.342 109.88 47.192 109.856 44.041C109.856 43.532 110.134 43.629 110.413 43.629C110.692 43.629 110.995 43.519 110.983 44.029C110.958 45.604 110.97 47.179 110.97 48.754ZM111.043 40.72C110.643 40.733 110.256 40.733 109.856 40.745C109.832 40.745 109.795 40.733 109.771 40.733C109.771 40.6 109.759 40.467 109.759 40.333C109.759 39.243 109.759 39.255 110.874 39.34C111.104 39.352 111.152 39.437 111.14 39.643C111.128 39.97 111.128 40.297 111.128 40.636C111.094 40.658 111.065 40.686 111.043 40.72Z" fill="#888890"/>
<path d="M80.037 24.2901C80.061 24.4481 79.952 24.5451 79.891 24.6901C79.8604 24.6284 79.8425 24.5612 79.8384 24.4925C79.8343 24.4238 79.844 24.355 79.867 24.2901H80.037ZM56.53 24.7881C56.519 24.8601 56.519 24.9691 56.434 24.9451C56.324 24.9211 56.374 24.8361 56.446 24.7881H56.53ZM109.771 40.7331C109.795 40.7331 109.832 40.7331 109.856 40.7451L109.783 40.8181C109.771 40.7821 109.771 40.7581 109.771 40.7331ZM111.043 40.7201C111.067 40.6971 111.092 40.6731 111.116 40.6361C111.14 40.7091 111.104 40.7201 111.043 40.7201ZM49.733 19.6141C49.706 19.5884 49.6819 19.5599 49.661 19.5291C49.721 19.5171 49.758 19.5411 49.733 19.6141ZM38.126 44.7201C38.114 44.6591 38.126 44.6101 38.198 44.6231C38.174 44.6591 38.15 44.6841 38.126 44.7201ZM98.37 23.0061L98.284 22.9221C98.357 22.8981 98.382 22.9341 98.37 23.0061Z" fill="#888890"/>
<path d="M13.975 12.127C14.265 11.799 14.254 12.199 14.302 12.284C15.187 13.799 16.059 15.325 16.944 16.852C20.4566 22.9638 23.9783 29.0705 27.509 35.172C27.764 35.609 27.727 35.79 27.291 36.069C23.038 38.747 18.809 41.461 14.569 44.151C14.411 44.248 14.266 44.429 14.048 44.393V12.551C14.06 12.405 14.096 12.248 13.975 12.127ZM24.116 33.56C24.165 33.342 24.02 33.196 23.923 33.027C22.093 29.84 20.251 26.654 18.422 23.467C17.695 22.207 16.968 20.959 16.229 19.674C16.18 19.747 16.156 19.771 16.156 19.796C16.156 22.909 16.168 26.036 16.168 29.15C16.168 29.925 16.156 30.7 16.156 31.488V40.684C16.313 40.6 16.398 40.551 16.483 40.503C18.216 39.4 19.948 38.31 21.681 37.195C22.408 36.735 23.159 36.323 23.826 35.777C24.226 35.68 24.504 35.377 24.843 35.184C24.989 35.099 25.037 34.965 24.928 34.808C24.686 34.432 24.541 34.008 24.225 33.681C24.201 33.621 24.153 33.596 24.116 33.56Z" fill="#B0B0B8"/>
<path d="M13.975 12.127C14.085 12.247 14.06 12.405 14.06 12.551V44.393C12.06 43.133 10.05 41.873 8.05002 40.601C5.62702 39.061 3.21602 37.511 0.793019 35.984C0.477019 35.79 0.417019 35.657 0.611019 35.306C4.25802 29.005 7.89302 22.692 11.528 16.392C12.34 14.962 13.164 13.544 13.975 12.127ZM12.061 31.465V19.7C12.037 19.687 12.001 19.687 11.976 19.675C9.31002 24.304 6.64502 28.945 3.97902 33.573C3.74902 33.973 3.51902 34.373 3.30102 34.773C3.22802 34.906 3.14302 35.051 3.33702 35.148C3.70002 35.33 3.99102 35.657 4.40302 35.754C4.44002 35.79 4.46302 35.839 4.50002 35.863C6.91102 37.402 9.33502 38.953 11.746 40.492C12.073 40.698 12.086 40.528 12.086 40.262C12.061 37.342 12.061 34.409 12.061 31.465ZM0.708019 38.335C1.84702 38.953 2.90102 39.692 3.99102 40.382C7.38402 42.515 10.764 44.672 14.145 46.816C14.145 50.548 14.145 54.268 14.157 58C13.854 57.952 13.793 57.66 13.66 57.455L2.68302 41.425C2.08888 40.5675 1.49887 39.7071 0.913019 38.844C0.817019 38.698 0.671019 38.565 0.683019 38.359L0.708019 38.335ZM11.952 51.36C11.988 51.348 12.037 51.324 12.073 51.312C12.073 50.27 12.061 49.228 12.073 48.186C12.073 47.919 11.915 47.81 11.733 47.689C10.57 46.962 9.40702 46.223 8.24402 45.496C8.14702 45.436 8.06202 45.29 7.85602 45.399C9.23802 47.398 10.595 49.373 11.952 51.36Z" fill="#B0B0B8"/>
<path d="M14.157 57.9999C14.157 54.2679 14.157 50.5479 14.145 46.8159C16.654 45.2169 19.174 43.6059 21.694 42.0059C23.439 40.8909 25.184 39.7889 26.94 38.6739C27.146 38.5409 27.34 38.3709 27.595 38.3229L27.619 38.3469C27.049 39.3649 26.347 40.2859 25.692 41.2429C21.96 46.7069 18.216 52.1599 14.472 57.6239C14.376 57.7579 14.302 57.9149 14.157 57.9999ZM16.157 51.5049C17.162 50.2819 20.227 45.6769 20.277 45.3259C19.113 46.0659 17.962 46.7919 16.811 47.5189C16.654 47.6159 16.508 47.7249 16.351 47.8099C16.205 47.8949 16.157 48.0159 16.157 48.1729V51.5049ZM23.826 35.7659C21.354 34.3729 18.895 32.9789 16.423 31.5859C16.338 31.5369 16.241 31.5129 16.156 31.4759C16.156 30.7009 16.168 29.9259 16.168 29.1379C17.32 29.6959 18.386 30.3739 19.5 30.9799C21.051 31.8279 22.542 32.7729 24.129 33.5599C24.165 33.5969 24.202 33.6339 24.25 33.6699C24.565 33.9969 24.71 34.4329 24.953 34.7969C25.062 34.9539 25.013 35.0869 24.868 35.1719C24.505 35.3659 24.226 35.6689 23.826 35.7659ZM12.06 31.4649C10.873 32.0219 9.77003 32.7369 8.63203 33.3669C7.21403 34.1549 5.79703 34.9669 4.39203 35.7669C3.97903 35.6689 3.68803 35.3419 3.32503 35.1599C3.13103 35.0629 3.21503 34.9179 3.28903 34.7849C3.51903 34.3849 3.73703 33.9849 3.96703 33.5849C4.16103 33.6579 4.27003 33.4999 4.40303 33.4149C6.96003 31.9739 9.50403 30.5199 12.061 29.0779L12.06 31.4649Z" fill="#B0B0B8"/>
</g>
</g>
<defs>
<clipPath id="clip0_781_119">
<rect width="135" height="70" fill="white" transform="translate(0.5)"/>
</clipPath>
</defs>
</svg>
