<svg width="28" height="28" viewBox="0 0 28 28" fill="none" xmlns="http://www.w3.org/2000/svg">
<path d="M10.9251 26.4663C10.891 26.7523 10.6816 27.1261 10.461 27.3134C10.2221 27.5161 10.0306 27.5655 9.71495 27.5153C9.35163 27.4579 8.58933 27.1161 8.22756 26.9542C0.155916 23.3434 -2.56488 13.205 2.72316 6.07584C8.41523 -1.59789 20.1859 -1.35008 25.5702 6.52175C30.1835 13.2663 28.0083 22.5009 20.9021 26.4917C20.3977 26.775 19.1317 27.4336 18.602 27.515C17.9293 27.6179 17.4159 26.9985 17.3578 26.3842C17.222 24.9505 17.4547 23.3203 17.393 21.8846C17.3733 21.4229 17.2228 20.9419 17.0429 20.5203C19.9002 20.0817 22.7672 18.4966 23.5756 15.5637C24.2204 13.2247 23.6504 10.6833 22.0436 8.86885C22.115 8.55975 22.2662 8.26415 22.336 7.94311C22.5741 6.84973 22.3686 5.665 21.74 4.73811C21.55 4.79669 21.3596 4.76355 21.1712 4.78436C19.8506 4.9312 18.5508 5.60064 17.635 6.54372C17.3857 6.51597 17.1449 6.4123 16.9022 6.36219C14.8805 5.9475 12.6354 5.95945 10.6723 6.61386C9.58699 5.48348 8.1062 4.77781 6.51762 4.74736C5.9139 5.67155 5.7053 6.77843 5.94802 7.85986C6.02751 8.21405 6.18881 8.53355 6.31211 8.87039C4.74873 10.5527 4.14463 12.884 4.59286 15.1335C5.22643 18.3135 8.20818 20.0732 11.2349 20.5207C10.9844 21.105 10.8076 21.7713 10.9255 22.4057C9.70797 22.7919 8.1504 22.6315 7.16864 21.7717C6.69986 21.3613 6.48543 20.7704 5.98719 20.3673C5.53934 20.005 4.63163 19.6312 4.06243 19.7992C3.39163 19.9973 4.4397 20.6143 4.65296 20.8082C5.59363 21.6653 5.63317 22.7063 6.4327 23.5037C7.59516 24.6634 9.37373 24.8607 10.9251 24.5227C10.872 25.1366 10.9964 25.8666 10.9251 26.4663Z" fill="white"/>
</svg>
