<svg width="132" height="42" viewBox="0 0 132 42" fill="none" xmlns="http://www.w3.org/2000/svg">
<g opacity="0.5" clip-path="url(#clip0_781_126)">
<mask id="mask0_781_126" style="mask-type:luminance" maskUnits="userSpaceOnUse" x="0" y="0" width="132" height="42">
<path d="M131.063 0.91333H0.936646V41.0867H131.063V0.91333Z" fill="white"/>
</mask>
<g mask="url(#mask0_781_126)">
<mask id="mask1_781_126" style="mask-type:luminance" maskUnits="userSpaceOnUse" x="0" y="0" width="47" height="41">
<path d="M46.2896 0.914062H0.936646V40.5255H46.2896V0.914062Z" fill="white"/>
</mask>
<g mask="url(#mask1_781_126)">
<path d="M36.5535 19.2319C34.2355 17.866 28.7621 15.1043 26.3487 13.7785L25.5819 13.375V12.493C25.5468 11.3702 25.6695 1.77182 25.5543 0.924755C31.5013 0.924755 40.408 0.934779 46.2898 0.917236C43.3376 6.46575 39.4933 13.7109 36.5535 19.2319Z" fill="#FEFEFE"/>
<path d="M22.9814 14.0476L12.17 20.5434L0.937683 1.8479L22.9814 14.0476Z" fill="#FEFEFE"/>
<path d="M24.0766 12.9399L2.34619 0.913086L24.1368 0.920604C24.1117 0.993281 24.0967 1.07097 24.0967 1.14866L24.0766 12.9374V12.9399Z" fill="#FEFEFE"/>
<path d="M24.1737 40.525L12.9413 21.8295L23.7526 15.3337L24.1737 40.525Z" fill="#FEFEFE"/>
<path d="M35.6589 20.409C35.7291 20.4442 35.8043 20.4692 35.8795 20.4818L25.6546 39.7236L25.2386 14.8906L35.6564 20.409H35.6589Z" fill="#FEFEFE"/>
</g>
<path d="M50.3896 11.8264H52.6873C52.864 14.3229 54.4325 15.803 56.9067 15.803C59.4693 15.803 60.9716 14.7427 60.9716 12.909C60.9716 10.6555 58.8066 10.3241 56.5091 9.97078C53.836 9.55099 50.8536 9.08718 50.8536 5.64074C50.8536 2.59209 53.0849 0.913086 56.8625 0.913086C60.3971 0.913086 62.6284 3.01189 62.8715 6.52457H60.5961C60.4634 4.18264 59.0275 2.81299 56.7743 2.81299C54.5207 2.81299 53.1953 3.78505 53.1953 5.48605C53.1953 7.40818 55.1835 7.71731 57.3708 8.04888C60.1542 8.49069 63.3354 8.97673 63.3354 12.7101C63.3354 15.8472 60.9274 17.7028 56.8625 17.7028C53.0627 17.7028 50.6547 15.5378 50.3896 11.8264Z" fill="#FEFEFE"/>
<path d="M74.9102 12.2908H66.6479C66.7362 14.6104 67.8849 15.98 69.7186 15.98C71.3313 15.98 72.4581 15.0964 72.7452 13.5942H74.9102C74.5347 16.1789 72.6126 17.7032 69.7186 17.7032C66.427 17.7032 64.5049 15.5824 64.5049 11.9815C64.5049 8.38058 66.427 6.25977 69.7186 6.25977C72.9881 6.25977 74.9102 8.38058 74.9102 11.9815V12.2908ZM66.6699 11.3628H72.7229C72.5463 9.21996 71.4638 7.98277 69.7185 7.98277C67.9513 7.98277 66.8465 9.21996 66.6699 11.3628Z" fill="#FEFEFE"/>
<path d="M76.1028 11.9815C76.1028 8.38058 78.1354 6.25977 81.5596 6.25977C84.3431 6.25977 86.1988 7.73987 86.7069 10.2805H84.5198C84.078 8.8666 83.0617 8.04923 81.5596 8.04923C79.527 8.04923 78.3562 9.5071 78.3562 11.9815C78.3562 14.4557 79.527 15.9137 81.5596 15.9137C83.128 15.9137 84.1885 15.0302 84.564 13.4616H86.7733C86.3093 16.1569 84.4313 17.7032 81.5596 17.7032C78.1354 17.7032 76.1028 15.5824 76.1028 11.9815Z" fill="#FEFEFE"/>
<path d="M95.7195 6.48047H97.9291V17.4821H95.7195V13.6603H95.675C95.675 16.2006 94.3501 17.703 92.0961 17.703C89.6883 17.703 88.2744 16.0462 88.2744 13.2625V6.48047H90.4839V13.1963C90.4839 14.9195 91.3895 15.9136 92.9362 15.9136C94.6811 15.9136 95.7195 14.6323 95.7195 12.4673V6.48047Z" fill="#FEFEFE"/>
<path d="M107.847 6.59113L107.185 8.64548C106.765 8.40258 106.169 8.2479 105.594 8.2479C103.695 8.2479 102.59 9.72799 102.59 12.2466V17.4823H100.38V6.48068H102.59V10.7885H102.634C102.634 7.93877 103.938 6.25977 106.146 6.25977C106.765 6.25977 107.406 6.39222 107.847 6.59113Z" fill="#FEFEFE"/>
<path d="M108.818 4.18318V1.68701H111.027V4.18318H108.818ZM108.818 17.4825V6.48088H111.027V17.4825H108.818Z" fill="#FEFEFE"/>
<path d="M116.261 8.09308V14.0796C116.261 15.2504 116.968 15.9131 118.183 15.9131C118.713 15.9131 119.287 15.7805 119.729 15.5596V17.2385C119.111 17.5257 118.272 17.7024 117.476 17.7024C115.333 17.7024 114.052 16.4433 114.052 14.3004V8.09308H112.35V6.48047H114.206V2.7251H116.416V6.48047H119.884V8.09308H116.261Z" fill="#FEFEFE"/>
<path d="M128.545 6.48047H130.909L126.093 22.5631H123.729L125.254 17.4821H123.42L120.106 6.48047H122.492L125.497 17.3274H125.541L128.545 6.48047Z" fill="#FEFEFE"/>
<path d="M62.8053 39.5723L61.5239 35.4632H54.0347L52.7535 39.5723H50.3896L55.8242 23.2244H59.9114L65.3017 39.5723H62.8053ZM54.6092 33.6075H60.9496L57.8125 23.4452H57.7683L54.6092 33.6075Z" fill="#FEFEFE"/>
<path d="M66.6034 39.5734V22.5627H68.8125V39.5734H66.6034Z" fill="#FEFEFE"/>
<path d="M71.4858 39.5734V22.5627H73.6948V39.5734H71.4858Z" fill="#FEFEFE"/>
<path d="M76.3674 26.2725V23.7764H78.5764V26.2725H76.3674ZM76.3674 39.5718V28.5703H78.5764V39.5718H76.3674Z" fill="#FEFEFE"/>
<path d="M89.2455 28.5715H91.4551V39.5731H89.2455V35.906H89.2019C89.2019 38.3359 87.7215 39.794 85.2028 39.794C82.3311 39.794 80.6298 37.6732 80.6298 34.0723C80.6298 30.4714 82.3311 28.3506 85.2028 28.3506C87.7215 28.3506 89.2019 29.8085 89.2019 32.2387H89.2455V28.5715ZM89.4001 34.0723C89.4001 31.6864 88.2071 30.14 86.1529 30.14C84.0983 30.14 82.9053 31.5979 82.9053 34.0723C82.9053 36.5465 84.0983 38.0046 86.1529 38.0046C88.2071 38.0046 89.4001 36.4583 89.4001 34.0723Z" fill="#FEFEFE"/>
<path d="M104.024 32.7909V39.5732H101.815V32.8573C101.815 31.1342 100.865 30.14 99.2521 30.14C97.4408 30.14 96.3588 31.4212 96.3588 33.5863V39.5732H94.1492V28.5715H96.3588V32.3933H96.4024C96.4024 29.8527 97.7727 28.3506 100.092 28.3506C102.566 28.3506 104.024 30.0074 104.024 32.7909Z" fill="#FEFEFE"/>
<path d="M105.967 34.0723C105.967 30.4714 107.999 28.3506 111.424 28.3506C114.207 28.3506 116.063 29.8307 116.571 32.3713H114.383C113.942 30.9575 112.926 30.14 111.424 30.14C109.392 30.14 108.22 31.598 108.22 34.0723C108.22 36.5465 109.392 38.0046 111.424 38.0046C112.992 38.0046 114.052 37.1209 114.428 35.5524H116.638C116.173 38.2477 114.295 39.794 111.424 39.794C107.999 39.794 105.967 37.6732 105.967 34.0723Z" fill="#FEFEFE"/>
<path d="M128.256 34.3817H119.994C120.082 36.7011 121.231 38.0708 123.064 38.0708C124.677 38.0708 125.804 37.1872 126.091 35.6851H128.256C127.881 38.2697 125.959 39.794 123.064 39.794C119.773 39.794 117.852 37.6732 117.852 34.0723C117.852 30.4714 119.773 28.3506 123.064 28.3506C126.334 28.3506 128.256 30.4714 128.256 34.0723V34.3817ZM120.016 33.4536H126.07C125.892 31.3108 124.81 30.0736 123.064 30.0736C121.298 30.0736 120.193 31.3108 120.016 33.4536Z" fill="#FEFEFE"/>
</g>
</g>
<defs>
<clipPath id="clip0_781_126">
<rect width="131" height="40.1733" fill="white" transform="translate(0.5 0.913574)"/>
</clipPath>
</defs>
</svg>
