<svg width="28" height="25" viewBox="0 0 28 25" fill="none" xmlns="http://www.w3.org/2000/svg">
<path d="M0 0L8.63205 0.0268265L14.3802 7.7236L14.6875 7.80896L21.5222 0H25.6071L16.5861 10.5514L27.1923 24.6316C27.0814 24.7645 26.9351 24.7548 26.7802 24.7621C24.1329 24.8914 21.4295 24.6987 18.7798 24.6914L12.556 16.5264L12.15 16.2264C9.61975 18.8383 7.41266 21.86 4.87389 24.4499C4.79829 24.5268 4.76537 24.6463 4.75561 24.7524H0.487755L10.2331 13.4913L0 0ZM22.3148 22.3148C22.1575 21.8856 21.7868 21.4746 21.51 21.1076C16.769 14.8363 12.0073 8.58083 7.25536 2.31684H4.87755C5.22142 3.05335 5.80307 3.72767 6.29204 4.3776C10.8257 10.3965 15.496 16.3178 20.0589 22.3148H22.3148Z" fill="white"/>
</svg>
