<svg width="291" height="139" viewBox="0 0 291 139" fill="none" xmlns="http://www.w3.org/2000/svg">
<path d="M6.52634 14.154V12.95H5.29434V9.282H4.04834V7.546H5.29434V5.096H6.94634V7.546H10.6983V9.282H6.94634V12.418H10.2923V11.2H11.9583V12.95H10.6983V14.154H6.52634ZM4.67724 34.154V25.096H6.32924V28.764H7.15524V27.546H10.0672V28.764H11.3272V34.154H9.66124V29.282H7.57524V30.486H6.32924V34.154H4.67724ZM5.92324 54.154V52.95H4.67724V48.764H5.92324V47.546H10.0672V48.764H11.3272V50.486H9.66124V49.282H6.32924V49.968H8.83524V51.718H6.32924V52.418H9.66124V51.186H11.3272V52.936H10.0672V54.154H5.92324Z" fill="black"/>
<path d="M29.0864 14.154V8.764H30.3324V7.546H34.4764V8.764H35.7364V10.486H34.0704V9.282H30.7384V14.154H29.0864ZM30.3324 34.154V32.95H29.0864V28.764H30.3324V27.546H34.4764V28.764H35.7364V30.486H34.0704V29.282H30.7384V29.968H33.2444V31.718H30.7384V32.418H34.0704V31.186H35.7364V32.936H34.4764V34.154H30.3324ZM30.3324 54.154V52.95H29.0864V48.764H30.3324V47.546H34.0844V45.096H35.7504V52.95H34.4764V54.154H30.3324ZM30.7384 52.418H34.0704V49.282H30.7384V52.418Z" fill="black"/>
<path d="M54.2416 16.604V15.386H52.9956V13.65H54.6476V14.868H57.9936V12.95H54.2416V11.718H52.9956V8.764H54.2416V7.546H58.3996V8.764H59.6456V15.386H58.3996V16.604H54.2416ZM54.6476 11.2H57.9936V9.282H54.6476V11.2ZM54.2416 34.154V32.95H52.9956V27.546H54.6476V32.418H57.9796V27.546H59.6456V32.95H58.3856V34.154H54.2416ZM55.4907 54.154V47.546H57.1427V54.154H55.4907ZM55.4907 46.846V45.096H57.1427V46.846H55.4907ZM55.4907 74.154V65.096H57.1427V74.154H55.4907ZM54.2416 94.154V92.95H52.9956V88.764H54.2416V87.546H57.9936V85.096H59.6596V92.95H58.3856V94.154H54.2416ZM54.6476 92.418H57.9796V89.282H54.6476V92.418Z" fill="black"/>
<g opacity="0.5">
<path d="M6.52634 14.154V12.95H5.29434V9.282H4.04834V7.546H5.29434V5.096H6.94634V7.546H10.6983V9.282H6.94634V12.418H10.2923V11.2H11.9583V12.95H10.6983V14.154H6.52634ZM4.67724 34.154V25.096H6.32924V28.764H7.15524V27.546H10.0672V28.764H11.3272V34.154H9.66124V29.282H7.57524V30.486H6.32924V34.154H4.67724ZM5.92324 54.154V52.95H4.67724V48.764H5.92324V47.546H10.0672V48.764H11.3272V50.486H9.66124V49.282H6.32924V49.968H8.83524V51.718H6.32924V52.418H9.66124V51.186H11.3272V52.936H10.0672V54.154H5.92324Z" fill="#F7392F"/>
<path d="M29.0864 14.154V8.764H30.3324V7.546H34.4764V8.764H35.7364V10.486H34.0704V9.282H30.7384V14.154H29.0864ZM30.3324 34.154V32.95H29.0864V28.764H30.3324V27.546H34.4764V28.764H35.7364V30.486H34.0704V29.282H30.7384V29.968H33.2444V31.718H30.7384V32.418H34.0704V31.186H35.7364V32.936H34.4764V34.154H30.3324ZM30.3324 54.154V52.95H29.0864V48.764H30.3324V47.546H34.0844V45.096H35.7504V52.95H34.4764V54.154H30.3324ZM30.7384 52.418H34.0704V49.282H30.7384V52.418Z" fill="#F7392F"/>
<path d="M54.2416 16.604V15.386H52.9956V13.65H54.6476V14.868H57.9936V12.95H54.2416V11.718H52.9956V8.764H54.2416V7.546H58.3996V8.764H59.6456V15.386H58.3996V16.604H54.2416ZM54.6476 11.2H57.9936V9.282H54.6476V11.2ZM54.2416 34.154V32.95H52.9956V27.546H54.6476V32.418H57.9796V27.546H59.6456V32.95H58.3856V34.154H54.2416ZM55.4907 54.154V47.546H57.1427V54.154H55.4907ZM55.4907 46.846V45.096H57.1427V46.846H55.4907ZM55.4907 74.154V65.096H57.1427V74.154H55.4907ZM54.2416 94.154V92.95H52.9956V88.764H54.2416V87.546H57.9936V85.096H59.6596V92.95H58.3856V94.154H54.2416ZM54.6476 92.418H57.9796V89.282H54.6476V92.418Z" fill="#F7392F"/>
<g filter="url(#filter0_f_455_2249)">
<path d="M6.52634 14.154V12.95H5.29434V9.282H4.04834V7.546H5.29434V5.096H6.94634V7.546H10.6983V9.282H6.94634V12.418H10.2923V11.2H11.9583V12.95H10.6983V14.154H6.52634ZM4.67724 34.154V25.096H6.32924V28.764H7.15524V27.546H10.0672V28.764H11.3272V34.154H9.66124V29.282H7.57524V30.486H6.32924V34.154H4.67724ZM5.92324 54.154V52.95H4.67724V48.764H5.92324V47.546H10.0672V48.764H11.3272V50.486H9.66124V49.282H6.32924V49.968H8.83524V51.718H6.32924V52.418H9.66124V51.186H11.3272V52.936H10.0672V54.154H5.92324Z" fill="#F7392F"/>
<path d="M29.0864 14.154V8.764H30.3324V7.546H34.4764V8.764H35.7364V10.486H34.0704V9.282H30.7384V14.154H29.0864ZM30.3324 34.154V32.95H29.0864V28.764H30.3324V27.546H34.4764V28.764H35.7364V30.486H34.0704V29.282H30.7384V29.968H33.2444V31.718H30.7384V32.418H34.0704V31.186H35.7364V32.936H34.4764V34.154H30.3324ZM30.3324 54.154V52.95H29.0864V48.764H30.3324V47.546H34.0844V45.096H35.7504V52.95H34.4764V54.154H30.3324ZM30.7384 52.418H34.0704V49.282H30.7384V52.418Z" fill="#F7392F"/>
<path d="M54.2416 16.604V15.386H52.9956V13.65H54.6476V14.868H57.9936V12.95H54.2416V11.718H52.9956V8.764H54.2416V7.546H58.3996V8.764H59.6456V15.386H58.3996V16.604H54.2416ZM54.6476 11.2H57.9936V9.282H54.6476V11.2ZM54.2416 34.154V32.95H52.9956V27.546H54.6476V32.418H57.9796V27.546H59.6456V32.95H58.3856V34.154H54.2416ZM55.4907 54.154V47.546H57.1427V54.154H55.4907ZM55.4907 46.846V45.096H57.1427V46.846H55.4907ZM55.4907 74.154V65.096H57.1427V74.154H55.4907ZM54.2416 94.154V92.95H52.9956V88.764H54.2416V87.546H57.9936V85.096H59.6596V92.95H58.3856V94.154H54.2416ZM54.6476 92.418H57.9796V89.282H54.6476V92.418Z" fill="#F7392F"/>
</g>
</g>
<defs>
<filter id="filter0_f_455_2249" x="-1" y="-4" width="65.8184" height="108" filterUnits="userSpaceOnUse" color-interpolation-filters="sRGB">
<feFlood flood-opacity="0" result="BackgroundImageFix"/>
<feBlend mode="normal" in="SourceGraphic" in2="BackgroundImageFix" result="shape"/>
<feGaussianBlur stdDeviation="2" result="effect1_foregroundBlur_455_2249"/>
</filter>
</defs>
</svg>
