<svg width="262" height="125" viewBox="0 0 262 125" fill="none" xmlns="http://www.w3.org/2000/svg">
<path d="M15.0068 14.154V12.95H13.7748V9.282H12.5288V7.546H13.7748V5.096H15.4268V7.546H19.1788V9.282H15.4268V12.418H18.7728V11.2H20.4388V12.95H19.1788V14.154H15.0068ZM13.1577 34.154V25.096H14.8097V28.764H15.6357V27.546H18.5477V28.764H19.8077V34.154H18.1417V29.282H16.0557V30.486H14.8097V34.154H13.1577ZM14.4037 54.154V52.95H13.1577V48.764H14.4037V47.546H18.5477V48.764H19.8077V50.486H18.1417V49.282H14.8097V49.968H17.3157V51.718H14.8097V52.418H18.1417V51.186H19.8077V52.936H18.5477V54.154H14.4037Z" fill="black"/>
<path d="M37.5669 14.154V8.764H38.8129V7.546H42.9569V8.764H44.2169V10.486H42.5509V9.282H39.2189V14.154H37.5669ZM38.8129 34.154V32.95H37.5669V28.764H38.8129V27.546H42.9569V28.764H44.2169V30.486H42.5509V29.282H39.2189V29.968H41.7249V31.718H39.2189V32.418H42.5509V31.186H44.2169V32.936H42.9569V34.154H38.8129ZM38.8129 54.154V52.95H37.5669V48.764H38.8129V47.546H42.5649V45.096H44.2309V52.95H42.9569V54.154H38.8129ZM39.2189 52.418H42.5509V49.282H39.2189V52.418Z" fill="black"/>
<path d="M62.7221 16.604V15.386H61.4761V13.65H63.1281V14.868H66.4741V12.95H62.7221V11.718H61.4761V8.764H62.7221V7.546H66.8801V8.764H68.1261V15.386H66.8801V16.604H62.7221ZM63.1281 11.2H66.4741V9.282H63.1281V11.2ZM62.7221 34.154V32.95H61.4761V27.546H63.1281V32.418H66.4601V27.546H68.1261V32.95H66.8661V34.154H62.7221ZM63.9712 54.154V47.546H65.6232V54.154H63.9712ZM63.9712 46.846V45.096H65.6232V46.846H63.9712ZM63.9712 74.154V65.096H65.6232V74.154H63.9712ZM62.7221 94.154V92.95H61.4761V88.764H62.7221V87.546H66.4741V85.096H68.1401V92.95H66.8661V94.154H62.7221ZM63.1281 92.418H66.4601V89.282H63.1281V92.418Z" fill="black"/>
<g opacity="0.5">
<path d="M15.0068 14.154V12.95H13.7748V9.282H12.5288V7.546H13.7748V5.096H15.4268V7.546H19.1788V9.282H15.4268V12.418H18.7728V11.2H20.4388V12.95H19.1788V14.154H15.0068ZM13.1577 34.154V25.096H14.8097V28.764H15.6357V27.546H18.5477V28.764H19.8077V34.154H18.1417V29.282H16.0557V30.486H14.8097V34.154H13.1577ZM14.4037 54.154V52.95H13.1577V48.764H14.4037V47.546H18.5477V48.764H19.8077V50.486H18.1417V49.282H14.8097V49.968H17.3157V51.718H14.8097V52.418H18.1417V51.186H19.8077V52.936H18.5477V54.154H14.4037Z" fill="#F7392F"/>
<path d="M37.5669 14.154V8.764H38.8129V7.546H42.9569V8.764H44.2169V10.486H42.5509V9.282H39.2189V14.154H37.5669ZM38.8129 34.154V32.95H37.5669V28.764H38.8129V27.546H42.9569V28.764H44.2169V30.486H42.5509V29.282H39.2189V29.968H41.7249V31.718H39.2189V32.418H42.5509V31.186H44.2169V32.936H42.9569V34.154H38.8129ZM38.8129 54.154V52.95H37.5669V48.764H38.8129V47.546H42.5649V45.096H44.2309V52.95H42.9569V54.154H38.8129ZM39.2189 52.418H42.5509V49.282H39.2189V52.418Z" fill="#F7392F"/>
<path d="M62.7221 16.604V15.386H61.4761V13.65H63.1281V14.868H66.4741V12.95H62.7221V11.718H61.4761V8.764H62.7221V7.546H66.8801V8.764H68.1261V15.386H66.8801V16.604H62.7221ZM63.1281 11.2H66.4741V9.282H63.1281V11.2ZM62.7221 34.154V32.95H61.4761V27.546H63.1281V32.418H66.4601V27.546H68.1261V32.95H66.8661V34.154H62.7221ZM63.9712 54.154V47.546H65.6232V54.154H63.9712ZM63.9712 46.846V45.096H65.6232V46.846H63.9712ZM63.9712 74.154V65.096H65.6232V74.154H63.9712ZM62.7221 94.154V92.95H61.4761V88.764H62.7221V87.546H66.4741V85.096H68.1401V92.95H66.8661V94.154H62.7221ZM63.1281 92.418H66.4601V89.282H63.1281V92.418Z" fill="#F7392F"/>
<g filter="url(#filter0_f_754_144)">
<path d="M15.0068 14.154V12.95H13.7748V9.282H12.5288V7.546H13.7748V5.096H15.4268V7.546H19.1788V9.282H15.4268V12.418H18.7728V11.2H20.4388V12.95H19.1788V14.154H15.0068ZM13.1577 34.154V25.096H14.8097V28.764H15.6357V27.546H18.5477V28.764H19.8077V34.154H18.1417V29.282H16.0557V30.486H14.8097V34.154H13.1577ZM14.4037 54.154V52.95H13.1577V48.764H14.4037V47.546H18.5477V48.764H19.8077V50.486H18.1417V49.282H14.8097V49.968H17.3157V51.718H14.8097V52.418H18.1417V51.186H19.8077V52.936H18.5477V54.154H14.4037Z" fill="#F7392F"/>
<path d="M37.5669 14.154V8.764H38.8129V7.546H42.9569V8.764H44.2169V10.486H42.5509V9.282H39.2189V14.154H37.5669ZM38.8129 34.154V32.95H37.5669V28.764H38.8129V27.546H42.9569V28.764H44.2169V30.486H42.5509V29.282H39.2189V29.968H41.7249V31.718H39.2189V32.418H42.5509V31.186H44.2169V32.936H42.9569V34.154H38.8129ZM38.8129 54.154V52.95H37.5669V48.764H38.8129V47.546H42.5649V45.096H44.2309V52.95H42.9569V54.154H38.8129ZM39.2189 52.418H42.5509V49.282H39.2189V52.418Z" fill="#F7392F"/>
<path d="M62.7221 16.604V15.386H61.4761V13.65H63.1281V14.868H66.4741V12.95H62.7221V11.718H61.4761V8.764H62.7221V7.546H66.8801V8.764H68.1261V15.386H66.8801V16.604H62.7221ZM63.1281 11.2H66.4741V9.282H63.1281V11.2ZM62.7221 34.154V32.95H61.4761V27.546H63.1281V32.418H66.4601V27.546H68.1261V32.95H66.8661V34.154H62.7221ZM63.9712 54.154V47.546H65.6232V54.154H63.9712ZM63.9712 46.846V45.096H65.6232V46.846H63.9712ZM63.9712 74.154V65.096H65.6232V74.154H63.9712ZM62.7221 94.154V92.95H61.4761V88.764H62.7221V87.546H66.4741V85.096H68.1401V92.95H66.8661V94.154H62.7221ZM63.1281 92.418H66.4601V89.282H63.1281V92.418Z" fill="#F7392F"/>
</g>
</g>
<defs>
<filter id="filter0_f_754_144" x="7.48047" y="-4" width="65.8184" height="108" filterUnits="userSpaceOnUse" color-interpolation-filters="sRGB">
<feFlood flood-opacity="0" result="BackgroundImageFix"/>
<feBlend mode="normal" in="SourceGraphic" in2="BackgroundImageFix" result="shape"/>
<feGaussianBlur stdDeviation="2" result="effect1_foregroundBlur_754_144"/>
</filter>
</defs>
</svg>
