<svg width="201" height="719" viewBox="0 0 201 719" fill="none" xmlns="http://www.w3.org/2000/svg">
<rect x="4" y="478" width="86.7807" height="131.513" rx="10.7358" fill="black"/>
<rect x="4" y="477.602" width="86.7807" height="131.513" rx="10.7358" fill="black"/>
<rect x="4.44732" y="478.049" width="85.886" height="130.618" rx="10.2884" stroke="black" stroke-width="0.894646"/>
<rect x="9.36719" y="482.074" width="76.0449" height="122.566" rx="8.94646" fill="black"/>
<rect x="9.81451" y="482.522" width="75.1503" height="121.672" rx="8.49914" stroke="black" stroke-width="0.894646"/>
<line x1="47.3929" y1="177" x2="47.3929" y2="477.601" stroke="black" stroke-width="4.47323"/>
<rect x="110" y="583" width="86.7807" height="131.513" rx="10.7358" fill="black"/>
<rect x="110" y="582.602" width="86.7807" height="131.513" rx="10.7358" fill="black"/>
<rect x="110.447" y="583.049" width="85.886" height="130.618" rx="10.2884" stroke="black" stroke-width="0.894646"/>
<rect x="115.367" y="587.074" width="76.0449" height="122.566" rx="8.94646" fill="black"/>
<rect x="115.815" y="587.522" width="75.1503" height="121.672" rx="8.49914" stroke="black" stroke-width="0.894646"/>
<line x1="153.393" y1="282" x2="153.393" y2="582.601" stroke="black" stroke-width="4.47323"/>
<g opacity="0.5">
<rect x="4" y="478" width="86.7807" height="131.513" rx="10.7358" fill="black"/>
<g filter="url(#filter0_f_455_2207)">
<rect x="4" y="477.602" width="86.7807" height="131.513" rx="10.7358" fill="url(#paint0_linear_455_2207)"/>
</g>
<rect x="4.44732" y="478.049" width="85.886" height="130.618" rx="10.2884" stroke="#8E1F20" stroke-width="0.894646"/>
<rect x="9.36719" y="482.074" width="76.0449" height="122.566" rx="8.94646" fill="url(#paint1_linear_455_2207)"/>
<rect x="9.81451" y="482.522" width="75.1503" height="121.672" rx="8.49914" stroke="#B93422" stroke-width="0.894646"/>
<line x1="47.2366" y1="-9.77655e-08" x2="47.2366" y2="478" stroke="#B93422" stroke-width="4.47323"/>
<rect x="110" y="583" width="86.7807" height="131.513" rx="10.7358" fill="black"/>
<g filter="url(#filter1_f_455_2207)">
<rect x="110" y="582.602" width="86.7807" height="131.513" rx="10.7358" fill="url(#paint2_linear_455_2207)"/>
</g>
<rect x="110.447" y="583.049" width="85.886" height="130.618" rx="10.2884" stroke="#8E1F20" stroke-width="0.894646"/>
<rect x="115.367" y="587.074" width="76.0449" height="122.566" rx="8.94646" fill="url(#paint3_linear_455_2207)"/>
<rect x="115.815" y="587.522" width="75.1503" height="121.672" rx="8.49914" stroke="#B93422" stroke-width="0.894646"/>
<line x1="153.237" y1="-9.77655e-08" x2="153.237" y2="583" stroke="#B93422" stroke-width="4.47323"/>
<g clip-path="url(#clip0_455_2207)">
<path d="M170.385 627.076H163.385C163.232 627.154 163.04 627.19 162.808 627.229C161.578 631.459 159.579 634.73 156.846 637.268C161.422 638.999 165.616 640.921 168.5 642.574L166.693 644.805C163.809 642.998 159.423 640.96 154.615 639.075C150.5 641.997 145.04 643.729 138.347 644.766C138.079 644.15 137.385 643.112 136.847 642.535C142.884 641.727 147.884 640.343 151.732 637.998C149.116 637.036 146.425 636.113 143.885 635.383C143.578 635.96 143.308 636.537 143.04 637.036L140.386 636.345C141.732 633.921 143.308 630.536 144.886 627.076H135.5V624.577H145.999C147.075 622.115 148.115 619.691 148.96 617.578L152.267 618.23C152.153 618.537 151.922 618.654 151.423 618.654C150.692 620.422 149.808 622.461 148.885 624.577H170.385V627.076ZM139.384 616.231V622.076H136.769V613.769H151.501V609L154.961 609.232C154.922 609.502 154.73 609.695 154.192 609.77V613.769H169.077V622.076H166.383V616.231H139.384ZM147.77 627.076C146.808 629.228 145.809 631.384 144.886 633.344C147.809 634.114 151.001 635.151 154.155 636.267C156.885 633.997 158.848 630.996 160 627.076H147.77Z" fill="black"/>
<path d="M155.156 655.231C155.077 655.538 154.771 655.73 154.386 655.808C158.117 660.886 165.041 666.692 171 669.771C170.347 670.387 169.731 671.271 169.268 672.041C163.231 668.502 156.346 662.657 152.769 657.694C149.615 662.462 143.268 668.385 136.615 672.308C136.269 671.731 135.538 670.808 135 670.27C141.732 666.5 148.385 660.156 151.385 655.039L155.156 655.231ZM154.157 680.691V687.422H169.656V689.806H136.386V687.422H151.464V680.691H139.618V678.345H151.464V671.96H141.31V669.614H164.734V671.96H154.157V678.345H166.156V680.691H154.157Z" fill="black"/>
</g>
<g clip-path="url(#clip1_455_2207)">
<path d="M62.3846 522.076H55.3854C55.232 522.154 55.0396 522.19 54.8081 522.229C53.5784 526.459 51.579 529.73 48.8462 532.268C53.4222 533.999 57.6162 535.921 60.4995 537.574L58.6926 539.805C55.8092 537.998 51.4228 535.96 46.6154 534.075C42.4995 536.997 37.0396 538.729 30.3471 539.766C30.0794 539.15 29.3851 538.112 28.8469 537.535C34.884 536.727 39.8839 535.343 43.7321 532.998C41.1164 532.036 38.4255 531.113 35.8851 530.383C35.5784 530.96 35.3079 531.537 35.0402 532.036L32.3855 531.345C33.7324 528.921 35.3079 525.536 36.8862 522.076H27.5V519.577H37.9988C39.0752 517.115 40.1153 514.691 40.9603 512.578L44.2675 513.23C44.1531 513.537 43.9217 513.654 43.4225 513.654C42.6919 515.422 41.808 517.461 40.885 519.577H62.3846V522.076ZM31.3844 511.231V517.076H28.7688V508.769H43.5006V504L46.9612 504.232C46.9222 504.502 46.7297 504.695 46.1916 504.77V508.769H61.0768V517.076H58.383V511.231H31.3844ZM39.7696 522.076C38.8075 524.228 37.8092 526.384 36.8862 528.344C39.8086 529.114 43.0015 530.151 46.1553 531.267C48.8853 528.997 50.8484 525.996 52.0001 522.076H39.7696Z" fill="black"/>
<path d="M47.1555 550.231C47.0775 550.538 46.7707 550.73 46.3859 550.808C50.117 555.886 57.0409 561.692 63 564.771C62.3475 565.387 61.7312 566.271 61.2683 567.041C55.2311 563.502 48.3462 557.657 44.7686 552.694C41.6147 557.462 35.268 563.385 28.6146 567.308C28.2688 566.731 27.5382 565.808 27 565.27C33.7315 561.5 40.385 555.156 43.3854 550.039L47.1555 550.231ZM46.1572 575.691V582.422H61.6559V584.806H28.3859V582.422H43.4635V575.691H31.6178V573.345H43.4635V566.96H33.3105V564.614H56.7342V566.96H46.1572V573.345H58.1563V575.691H46.1572Z" fill="black"/>
</g>
</g>
<defs>
<filter id="filter0_f_455_2207" x="0" y="473.602" width="94.7803" height="139.513" filterUnits="userSpaceOnUse" color-interpolation-filters="sRGB">
<feFlood flood-opacity="0" result="BackgroundImageFix"/>
<feBlend mode="normal" in="SourceGraphic" in2="BackgroundImageFix" result="shape"/>
<feGaussianBlur stdDeviation="2" result="effect1_foregroundBlur_455_2207"/>
</filter>
<filter id="filter1_f_455_2207" x="106" y="578.602" width="94.7803" height="139.513" filterUnits="userSpaceOnUse" color-interpolation-filters="sRGB">
<feFlood flood-opacity="0" result="BackgroundImageFix"/>
<feBlend mode="normal" in="SourceGraphic" in2="BackgroundImageFix" result="shape"/>
<feGaussianBlur stdDeviation="2" result="effect1_foregroundBlur_455_2207"/>
</filter>
<linearGradient id="paint0_linear_455_2207" x1="84.9655" y1="601.51" x2="-6.28842" y2="449.42" gradientUnits="userSpaceOnUse">
<stop stop-color="#DB092F"/>
<stop offset="1" stop-color="#D02D30"/>
</linearGradient>
<linearGradient id="paint1_linear_455_2207" x1="14.905" y1="482.074" x2="79.1372" y2="605.026" gradientUnits="userSpaceOnUse">
<stop stop-color="#B93422"/>
<stop offset="1" stop-color="#F7392F"/>
</linearGradient>
<linearGradient id="paint2_linear_455_2207" x1="190.965" y1="706.51" x2="99.7116" y2="554.42" gradientUnits="userSpaceOnUse">
<stop stop-color="#DB092F"/>
<stop offset="1" stop-color="#D02D30"/>
</linearGradient>
<linearGradient id="paint3_linear_455_2207" x1="120.905" y1="587.074" x2="185.137" y2="710.026" gradientUnits="userSpaceOnUse">
<stop stop-color="#B93422"/>
<stop offset="1" stop-color="#F7392F"/>
</linearGradient>
<clipPath id="clip0_455_2207">
<rect width="36" height="80.8062" fill="white" transform="translate(135 609)"/>
</clipPath>
<clipPath id="clip1_455_2207">
<rect width="36" height="80.8062" fill="white" transform="translate(27 504)"/>
</clipPath>
</defs>
</svg>
