<svg width="201" height="542" viewBox="0 0 201 542" fill="none" xmlns="http://www.w3.org/2000/svg">
<rect x="4" y="301" width="86.7807" height="131.513" rx="10.7358" fill="black"/>
<rect x="4" y="300.602" width="86.7807" height="131.513" rx="10.7358" fill="black"/>
<rect x="4.44732" y="301.049" width="85.886" height="130.618" rx="10.2884" stroke="black" stroke-width="0.894646"/>
<rect x="9.36719" y="305.074" width="76.0449" height="122.566" rx="8.94646" fill="black"/>
<rect x="9.81451" y="305.522" width="75.1503" height="121.672" rx="8.49914" stroke="black" stroke-width="0.894646"/>
<line x1="47.3929" y1="-9.77656e-08" x2="47.3929" y2="300.601" stroke="black" stroke-width="4.47323"/>
<rect x="110" y="406" width="86.7807" height="131.513" rx="10.7358" fill="black"/>
<rect x="110" y="405.602" width="86.7807" height="131.513" rx="10.7358" fill="black"/>
<rect x="110.447" y="406.049" width="85.886" height="130.618" rx="10.2884" stroke="black" stroke-width="0.894646"/>
<rect x="115.367" y="410.074" width="76.0449" height="122.566" rx="8.94646" fill="black"/>
<rect x="115.815" y="410.522" width="75.1503" height="121.672" rx="8.49914" stroke="black" stroke-width="0.894646"/>
<line x1="153.393" y1="105" x2="153.393" y2="405.601" stroke="black" stroke-width="4.47323"/>
<g opacity="0.5">
<rect x="4" y="301" width="86.7807" height="131.513" rx="10.7358" fill="black"/>
<g filter="url(#filter0_f_455_2206)">
<rect x="4" y="300.602" width="86.7807" height="131.513" rx="10.7358" fill="url(#paint0_linear_455_2206)"/>
</g>
<rect x="4.44732" y="301.049" width="85.886" height="130.618" rx="10.2884" stroke="#8E1F20" stroke-width="0.894646"/>
<rect x="9.36719" y="305.074" width="76.0449" height="122.566" rx="8.94646" fill="url(#paint1_linear_455_2206)"/>
<rect x="9.81451" y="305.522" width="75.1503" height="121.672" rx="8.49914" stroke="#B93422" stroke-width="0.894646"/>
<line x1="47.3929" y1="-9.77656e-08" x2="47.3929" y2="300.601" stroke="#B93422" stroke-width="4.47323"/>
<rect x="110" y="406" width="86.7807" height="131.513" rx="10.7358" fill="black"/>
<g filter="url(#filter1_f_455_2206)">
<rect x="110" y="405.602" width="86.7807" height="131.513" rx="10.7358" fill="url(#paint2_linear_455_2206)"/>
</g>
<rect x="110.447" y="406.049" width="85.886" height="130.618" rx="10.2884" stroke="#8E1F20" stroke-width="0.894646"/>
<rect x="115.367" y="410.074" width="76.0449" height="122.566" rx="8.94646" fill="url(#paint3_linear_455_2206)"/>
<rect x="115.815" y="410.522" width="75.1503" height="121.672" rx="8.49914" stroke="#B93422" stroke-width="0.894646"/>
<line x1="153.393" y1="105" x2="153.393" y2="405.601" stroke="#B93422" stroke-width="4.47323"/>
<g clip-path="url(#clip0_455_2206)">
<path d="M170.385 450.076H163.385C163.232 450.154 163.04 450.19 162.808 450.229C161.578 454.459 159.579 457.73 156.846 460.268C161.422 461.999 165.616 463.921 168.5 465.574L166.693 467.805C163.809 465.998 159.423 463.96 154.615 462.075C150.5 464.997 145.04 466.729 138.347 467.766C138.079 467.15 137.385 466.112 136.847 465.535C142.884 464.727 147.884 463.343 151.732 460.998C149.116 460.036 146.425 459.113 143.885 458.383C143.578 458.96 143.308 459.537 143.04 460.036L140.386 459.345C141.732 456.921 143.308 453.536 144.886 450.076H135.5V447.577H145.999C147.075 445.115 148.115 442.691 148.96 440.578L152.267 441.23C152.153 441.537 151.922 441.654 151.423 441.654C150.692 443.422 149.808 445.461 148.885 447.577H170.385V450.076ZM139.384 439.231V445.076H136.769V436.769H151.501V432L154.961 432.232C154.922 432.502 154.73 432.695 154.192 432.77V436.769H169.077V445.076H166.383V439.231H139.384ZM147.77 450.076C146.808 452.228 145.809 454.384 144.886 456.344C147.809 457.114 151.001 458.151 154.155 459.267C156.885 456.997 158.848 453.996 160 450.076H147.77Z" fill="black"/>
<path d="M155.156 478.231C155.077 478.538 154.771 478.73 154.386 478.808C158.117 483.886 165.041 489.692 171 492.771C170.347 493.387 169.731 494.271 169.268 495.041C163.231 491.502 156.346 485.657 152.769 480.694C149.615 485.462 143.268 491.385 136.615 495.308C136.269 494.731 135.538 493.808 135 493.27C141.732 489.5 148.385 483.156 151.385 478.039L155.156 478.231ZM154.157 503.691V510.422H169.656V512.806H136.386V510.422H151.464V503.691H139.618V501.345H151.464V494.96H141.31V492.614H164.734V494.96H154.157V501.345H166.156V503.691H154.157Z" fill="black"/>
</g>
<g clip-path="url(#clip1_455_2206)">
<path d="M62.3846 345.076H55.3854C55.232 345.154 55.0396 345.19 54.8081 345.229C53.5784 349.459 51.579 352.73 48.8462 355.268C53.4222 356.999 57.6162 358.921 60.4995 360.574L58.6926 362.805C55.8092 360.998 51.4228 358.96 46.6154 357.075C42.4995 359.997 37.0396 361.729 30.3471 362.766C30.0794 362.15 29.3851 361.112 28.8469 360.535C34.884 359.727 39.8839 358.343 43.7321 355.998C41.1164 355.036 38.4255 354.113 35.8851 353.383C35.5784 353.96 35.3079 354.537 35.0402 355.036L32.3855 354.345C33.7324 351.921 35.3079 348.536 36.8862 345.076H27.5V342.577H37.9988C39.0752 340.115 40.1153 337.691 40.9603 335.578L44.2675 336.23C44.1531 336.537 43.9217 336.654 43.4225 336.654C42.6919 338.422 41.808 340.461 40.885 342.577H62.3846V345.076ZM31.3844 334.231V340.076H28.7688V331.769H43.5006V327L46.9612 327.232C46.9222 327.502 46.7297 327.695 46.1916 327.77V331.769H61.0768V340.076H58.383V334.231H31.3844ZM39.7696 345.076C38.8075 347.228 37.8092 349.384 36.8862 351.344C39.8086 352.114 43.0015 353.151 46.1553 354.267C48.8853 351.997 50.8484 348.996 52.0001 345.076H39.7696Z" fill="black"/>
<path d="M47.1555 373.231C47.0775 373.538 46.7707 373.73 46.3859 373.808C50.117 378.886 57.0409 384.692 63 387.771C62.3475 388.387 61.7312 389.271 61.2683 390.041C55.2311 386.502 48.3462 380.657 44.7686 375.694C41.6147 380.462 35.268 386.385 28.6146 390.308C28.2688 389.731 27.5382 388.808 27 388.27C33.7315 384.5 40.385 378.156 43.3854 373.039L47.1555 373.231ZM46.1572 398.691V405.422H61.6559V407.806H28.3859V405.422H43.4635V398.691H31.6178V396.345H43.4635V389.96H33.3105V387.614H56.7342V389.96H46.1572V396.345H58.1563V398.691H46.1572Z" fill="black"/>
</g>
</g>
<defs>
<filter id="filter0_f_455_2206" x="0" y="296.602" width="94.7803" height="139.513" filterUnits="userSpaceOnUse" color-interpolation-filters="sRGB">
<feFlood flood-opacity="0" result="BackgroundImageFix"/>
<feBlend mode="normal" in="SourceGraphic" in2="BackgroundImageFix" result="shape"/>
<feGaussianBlur stdDeviation="2" result="effect1_foregroundBlur_455_2206"/>
</filter>
<filter id="filter1_f_455_2206" x="106" y="401.602" width="94.7803" height="139.513" filterUnits="userSpaceOnUse" color-interpolation-filters="sRGB">
<feFlood flood-opacity="0" result="BackgroundImageFix"/>
<feBlend mode="normal" in="SourceGraphic" in2="BackgroundImageFix" result="shape"/>
<feGaussianBlur stdDeviation="2" result="effect1_foregroundBlur_455_2206"/>
</filter>
<linearGradient id="paint0_linear_455_2206" x1="84.9655" y1="424.51" x2="-6.28842" y2="272.42" gradientUnits="userSpaceOnUse">
<stop stop-color="#DB092F"/>
<stop offset="1" stop-color="#D02D30"/>
</linearGradient>
<linearGradient id="paint1_linear_455_2206" x1="14.905" y1="305.074" x2="79.1372" y2="428.026" gradientUnits="userSpaceOnUse">
<stop stop-color="#B93422"/>
<stop offset="1" stop-color="#F7392F"/>
</linearGradient>
<linearGradient id="paint2_linear_455_2206" x1="190.965" y1="529.51" x2="99.7116" y2="377.42" gradientUnits="userSpaceOnUse">
<stop stop-color="#DB092F"/>
<stop offset="1" stop-color="#D02D30"/>
</linearGradient>
<linearGradient id="paint3_linear_455_2206" x1="120.905" y1="410.074" x2="185.137" y2="533.026" gradientUnits="userSpaceOnUse">
<stop stop-color="#B93422"/>
<stop offset="1" stop-color="#F7392F"/>
</linearGradient>
<clipPath id="clip0_455_2206">
<rect width="36" height="80.8062" fill="white" transform="translate(135 432)"/>
</clipPath>
<clipPath id="clip1_455_2206">
<rect width="36" height="80.8062" fill="white" transform="translate(27 327)"/>
</clipPath>
</defs>
</svg>
