<svg width="126" height="215" viewBox="0 0 126 215" fill="none" xmlns="http://www.w3.org/2000/svg">
<path d="M73.4298 49.6526C74.3954 33.9834 81.8446 18.9309 93.562 8.5118C95.0307 7.20536 96.5644 5.97195 98.163 4.8278C99.9482 3.5457 101.855 2.29605 104.005 1.71992C105.985 1.19247 108.103 1.41968 109.669 2.83161C110.919 3.95954 111.641 5.59868 111.909 7.24593C112.591 11.4412 110.043 15.2793 107.487 18.3548C104.492 21.9576 101.246 25.3738 97.9763 28.7252C90.5109 36.3772 82.5911 43.5748 74.6794 50.7643C73.9978 51.3891 75.0121 52.3953 75.6938 51.7786C83.3214 44.8488 90.9572 37.9108 98.1873 30.559C101.701 26.9886 105.174 23.3452 108.387 19.4989C110.992 16.391 113.572 12.6502 113.451 8.40631C113.345 4.9982 111.544 1.40345 108.111 0.332332C103.778 -1.0228 99.4532 2.0445 96.1911 4.51944C89.6346 9.50178 84.141 15.823 80.0513 22.9638C75.3854 31.1108 72.5859 40.2803 72.0016 49.6526C71.9448 50.5776 73.3811 50.5695 73.4379 49.6526H73.4298Z" fill="black"/>
<path d="M56.1379 156.6C26.4298 151.799 5.94412 125.646 10.3819 98.1851C14.8198 70.7245 42.5005 52.3552 72.2087 57.1562C101.917 61.9572 122.402 88.1105 117.965 115.571C113.527 143.032 85.846 161.401 56.1379 156.6Z" fill="black"/>
<g opacity="0.3">
<path d="M57.3007 152.91C61.0415 129.751 64.7824 106.592 68.5232 83.4328C69.5781 76.9087 70.6329 70.3927 71.6878 63.8686C71.8339 62.9598 73.2134 63.3493 73.0673 64.25C69.3265 87.4089 65.5857 110.568 61.8449 133.727C60.79 140.251 59.7351 146.767 58.6802 153.291C58.5341 154.2 57.1547 153.81 57.3007 152.91Z" fill="black"/>
</g>
<g opacity="0.3">
<path d="M64.886 155.716C73.6822 146.231 80.7175 134.992 84.7098 122.65C88.6129 110.575 89.8463 97.0483 86.917 84.6168C85.2697 77.6139 82.2024 71.0736 77.9585 65.2798C77.4149 64.5332 78.6564 63.8192 79.2001 64.5576C86.9981 75.1795 90.317 88.0492 89.8788 101.13C89.4406 114.211 85.6755 127.243 79.1433 138.757C75.4674 145.241 70.98 151.253 65.9084 156.723C65.2836 157.404 64.2693 156.382 64.8941 155.708L64.886 155.716Z" fill="black"/>
</g>
<g opacity="0.3">
<path d="M73.8669 156.707C87.4587 149.128 99.1518 137.484 104.921 122.845C110.764 108.004 110.326 90.8495 101.667 77.1927C97.3179 70.3278 91.1427 64.6801 83.7504 61.2476C82.9146 60.8581 83.6449 59.6247 84.4726 60.0061C98.1943 66.376 107.599 80.1627 109.758 94.988C112.184 111.647 106.252 128.477 95.4272 141.119C89.5848 147.944 82.4196 153.575 74.5891 157.949C73.7857 158.395 73.0554 157.162 73.8669 156.707Z" fill="black"/>
</g>
<g opacity="0.3">
<path d="M48.6638 157.217C43.7139 143.642 41.4175 129.019 42.4156 114.575C43.2838 102.03 46.3755 89.0875 52.5831 78.0761C55.8452 72.2904 60.0728 67.089 65.1363 62.7802C65.8342 62.1878 66.8566 63.194 66.1506 63.7945C57.1354 71.4546 51.2442 81.8088 47.828 93.0393C43.8275 106.201 42.6996 120.118 44.4118 133.766C45.4017 141.637 47.3249 149.379 50.0433 156.828C50.3597 157.696 48.9721 158.069 48.6638 157.209V157.217Z" fill="black"/>
</g>
<g opacity="0.3">
<path d="M40.5239 155.855C29.4232 143.359 21.974 127.381 21.4465 110.527C20.9353 94.0951 27.0212 77.371 39.7936 66.6517C46.3014 61.1906 54.1888 57.4904 62.6522 56.4517C63.5692 56.3381 63.5611 57.7744 62.6522 57.888C47.6403 59.7381 34.795 70.3763 28.3358 83.7734C21.1301 98.7123 21.3654 116.361 27.2647 131.682C30.543 140.202 35.5009 148.033 41.5463 154.849C42.1549 155.539 41.1487 156.553 40.532 155.863L40.5239 155.855Z" fill="black"/>
</g>
<path d="M58.9054 160.196C58.1588 165.186 54.6858 169.698 51.5211 173.439C48.0481 177.545 44.0801 181.359 39.682 184.466C38.9273 185.002 38.2132 183.76 38.9598 183.225C43.1794 180.247 46.9689 176.563 50.3202 172.652C53.4118 169.033 56.8037 164.659 57.5259 159.814C57.6638 158.906 59.0433 159.295 58.9054 160.196Z" fill="black"/>
<path d="M78.8857 156.472L77.4251 165.479L34.8237 158.59L36.2681 149.639L78.8857 156.472Z" fill="black"/>
<path d="M34.822 158.59C34.5867 160.026 43.9346 162.728 55.7007 164.635C67.4668 166.534 77.1881 166.915 77.4234 165.479C77.6587 164.043 68.3107 161.34 56.5446 159.434C44.7785 157.535 35.0573 157.153 34.822 158.59Z" fill="black"/>
<path d="M36.3874 148.893C36.1521 150.329 45.5001 153.031 57.2662 154.938C69.0323 156.837 78.7535 157.218 78.9888 155.782C79.2241 154.346 69.8762 151.643 58.1101 149.737C46.344 147.838 36.6227 147.456 36.3874 148.893Z" fill="black"/>
<path d="M26.4131 194.537C23.5162 197.101 20.4002 200.874 17.9658 203.877C15.5315 206.879 13.5677 210.36 12.8537 214.158L9.56726 213.557C9.42932 212.064 10.3787 208.753 11.0928 207.431L7.36011 212.348L2.43458 205.759C4.30092 203.154 7.27897 201.312 7.27897 201.312C7.27897 201.312 1.29042 202.197 0.276104 199.901L0.000211716 194.512C0.000211716 194.512 3.21357 195.827 10.5978 194.318C17.9821 192.8 22.2828 191.753 23.9868 191.129C23.9868 191.129 26.1453 194.293 26.4131 194.537Z" fill="black"/>
<path d="M39.7665 184.361C42.3956 184.694 44.8056 186.479 45.6495 189.035C45.8849 189.757 45.9173 190.617 45.4872 191.275C45.0572 191.932 44.3187 192.289 43.5316 192.111C42.8257 191.948 42.2252 191.405 41.714 190.918C41.2028 190.431 40.7808 189.895 40.3994 189.319C39.5312 188.013 39.0281 186.512 38.8739 184.962C38.8333 184.572 39.2309 184.248 39.588 184.248C40.0099 184.248 40.2696 184.58 40.302 184.962C40.513 187.047 41.6004 189.019 43.2152 190.342C43.3775 190.471 43.556 190.609 43.7588 190.682C43.9374 190.747 44.0672 190.723 44.1564 190.642C44.4973 190.35 44.3918 189.814 44.2619 189.417C43.9617 188.491 43.3206 187.68 42.5903 187.063C41.8032 186.398 40.7808 185.927 39.7584 185.797C39.377 185.749 39.0443 185.505 39.0443 185.083C39.0443 184.734 39.377 184.321 39.7584 184.369L39.7665 184.361Z" fill="black"/>
<path d="M38.939 184.458C40.7242 182.105 43.6617 180.547 46.6559 180.734C47.4349 180.783 48.2464 180.994 48.7901 181.594C49.3337 182.194 49.4879 182.973 49.1633 183.696C48.5629 185.035 46.7127 185.684 45.4063 186.025C43.6698 186.471 41.8278 186.447 40.1156 185.943C39.2311 185.684 39.6044 184.304 40.497 184.564C41.9738 184.994 43.5318 185.026 45.0249 184.645C45.6173 184.491 48.7252 183.509 47.6865 182.511C47.1915 182.032 46.2746 182.13 45.6497 182.178C44.9438 182.235 44.2459 182.405 43.5886 182.657C42.2578 183.152 41.0407 184.045 40.1805 185.173C39.9452 185.481 39.5638 185.643 39.1987 185.432C38.8984 185.254 38.7037 184.759 38.939 184.45V184.458Z" fill="black"/>
<path d="M39.2661 184.946C37.9921 184.069 36.994 182.876 36.3936 181.456C35.7931 180.036 35.501 178.3 35.9554 176.79C36.4098 175.281 37.9272 174.031 39.5339 174.672C41.0594 175.281 41.7248 177.018 41.7492 178.551C41.7816 180.564 40.8485 182.471 39.9396 184.215C39.5177 185.035 38.2761 184.313 38.6981 183.493C39.3392 182.26 39.964 180.994 40.2236 179.622C40.4346 178.527 40.3454 177.156 39.5014 176.336C38.5845 175.435 37.5539 176.312 37.2943 177.334C37.0103 178.446 37.2294 179.687 37.6351 180.742C38.0976 181.935 38.9334 182.998 39.9883 183.72C40.743 184.24 40.0289 185.481 39.2661 184.962V184.946Z" fill="black"/>
<path d="M40.0511 185.189C40.5624 188.004 39.0612 191.055 36.359 192.143C35.6044 192.443 34.7523 192.508 34.0058 192.175C33.3323 191.875 32.7967 191.266 32.6994 190.528C32.5858 189.684 33.0239 188.946 33.5108 188.297C33.9652 187.696 34.4602 187.136 35.0039 186.617C36.2698 185.416 37.7466 184.499 39.3614 183.842C39.7185 183.696 40.1485 184.004 40.2459 184.345C40.3595 184.759 40.108 185.083 39.7428 185.229C38.6554 185.667 37.6168 186.284 36.708 187.023C35.7991 187.761 34.8984 188.637 34.3142 189.644C34.0951 190.025 33.9896 190.439 34.371 190.747C34.7524 191.055 35.296 190.999 35.7423 190.845C36.7242 190.52 37.5356 189.708 38.0469 188.832C38.6149 187.858 38.8664 186.69 38.6636 185.57C38.5905 185.189 38.7691 184.799 39.1667 184.686C39.5156 184.588 39.9781 184.807 40.0511 185.189Z" fill="black"/>
<path d="M39.3864 184.824C37.3253 186.877 33.7792 187.25 31.4017 185.522C30.1114 184.589 29.1052 182.812 30.0871 181.278C31.0689 179.744 33.0083 179.98 34.469 180.385C36.2055 180.864 37.7878 181.887 38.9157 183.282C39.1592 183.583 39.2078 184.005 38.9157 184.297C38.6642 184.548 38.1448 184.597 37.9014 184.297C37.1143 183.331 36.1162 182.544 34.9558 182.065C34.047 181.684 32.6351 181.237 31.6857 181.7C30.4766 182.292 31.4666 183.802 32.1806 184.321C33.0408 184.946 34.0957 185.222 35.1506 185.181C36.3515 185.141 37.52 184.662 38.3802 183.81C39.0374 183.161 40.0518 184.175 39.3945 184.824H39.3864Z" fill="black"/>
<path d="M35.1726 187.185C33.4766 188.581 31.6103 189.774 29.7358 190.91C27.9669 191.981 26.0924 193.149 24.0881 193.742C23.2036 194.001 22.8222 192.622 23.7067 192.362C25.5812 191.802 27.3502 190.682 29.0136 189.676C30.7826 188.605 32.5597 187.485 34.1583 186.171C34.8642 185.586 35.8867 186.601 35.1726 187.185Z" fill="black"/>
<path d="M27.3429 194.505C27.3429 194.505 25.5577 196.185 25.3873 196.355C25.2169 196.525 21.1839 192.29 22.0359 191.186C22.888 190.082 24.7624 189.758 24.7624 189.758C24.7624 189.758 28.5682 193.848 27.3429 194.505Z" fill="black"/>
<path d="M95.1465 55.8278L93.6859 64.8269L51.0845 57.9457L52.537 48.9954L95.1465 55.8278Z" fill="black"/>
<path d="M51.0886 57.9457C50.8533 59.382 60.2012 62.0842 71.9673 63.9911C83.7334 65.8899 93.4547 66.2713 93.69 64.835C93.9253 63.3987 84.5773 60.6966 72.8112 58.7897C61.0451 56.8909 51.3239 56.5095 51.0886 57.9457Z" fill="black"/>
<path d="M52.6609 48.2408C52.4255 49.6771 61.7735 52.3792 73.5396 54.2861C85.3057 56.1849 95.0269 56.5663 95.2623 55.13C95.4976 53.6938 86.1496 50.9916 74.3835 49.0847C62.6174 47.1859 52.8962 46.8045 52.6609 48.2408Z" fill="black"/>
<path d="M77.7976 155.847C65.0821 149.956 50.6382 148 36.8191 150.313C35.9184 150.467 35.5289 149.08 36.4377 148.934C50.6787 146.556 65.4229 148.536 78.5279 154.606C79.3637 154.995 78.6334 156.229 77.8057 155.847H77.7976Z" fill="black"/>
<path d="M75.9666 165.463C62.6019 161.819 48.8721 159.669 35.0368 159.052C34.1199 159.012 34.1117 157.575 35.0368 157.616C48.9938 158.233 62.8697 160.399 76.348 164.075C77.2406 164.318 76.8592 165.698 75.9666 165.454V165.463Z" fill="black"/>
<path d="M93.9432 65.7429C79.0935 67.8365 63.7814 65.1424 50.5546 58.0665C49.7432 57.6283 50.4654 56.3949 51.2768 56.825C64.1384 63.7061 79.1097 66.3921 93.5618 64.3553C94.4625 64.2255 94.852 65.6131 93.9432 65.7348V65.7429Z" fill="black"/>
<path d="M95.3267 55.9645C80.899 55.6724 66.5363 53.4165 52.7091 49.27C51.8246 49.0022 52.206 47.6227 53.0905 47.8905C66.7959 52.0046 81.0126 54.2442 95.3267 54.5363C96.2518 54.5526 96.2518 55.9888 95.3267 55.9726V55.9645Z" fill="black"/>
<path d="M20.311 197.004C14.574 200.639 9.53485 205.329 5.51003 210.799C4.96636 211.537 3.72483 210.823 4.26851 210.076C8.4475 204.396 13.6246 199.544 19.5807 195.762C20.3597 195.267 21.0819 196.509 20.3029 197.004H20.311Z" fill="black"/>
<path d="M17.3707 196.128C12.3315 198.521 7.77116 201.8 3.90052 205.816C3.25947 206.482 2.24515 205.467 2.8862 204.802C6.83799 200.704 11.5038 197.337 16.6485 194.894C17.4762 194.497 18.2065 195.738 17.3707 196.136V196.128Z" fill="black"/>
<g opacity="0.5">
<path d="M73.4298 49.6526C74.3954 33.9834 81.8446 18.9309 93.562 8.5118C95.0307 7.20536 96.5644 5.97195 98.163 4.8278C99.9482 3.5457 101.855 2.29605 104.005 1.71992C105.985 1.19247 108.103 1.41968 109.669 2.83161C110.919 3.95954 111.641 5.59868 111.909 7.24593C112.591 11.4412 110.043 15.2793 107.487 18.3548C104.492 21.9576 101.246 25.3738 97.9763 28.7252C90.5109 36.3772 82.5911 43.5748 74.6794 50.7643C73.9978 51.3891 75.0121 52.3953 75.6938 51.7786C83.3214 44.8488 90.9572 37.9108 98.1873 30.559C101.701 26.9886 105.174 23.3452 108.387 19.4989C110.992 16.391 113.572 12.6502 113.451 8.40631C113.345 4.9982 111.544 1.40345 108.111 0.332332C103.778 -1.0228 99.4532 2.0445 96.1911 4.51944C89.6346 9.50178 84.141 15.823 80.0513 22.9638C75.3854 31.1108 72.5859 40.2803 72.0016 49.6526C71.9448 50.5776 73.3811 50.5695 73.4379 49.6526H73.4298Z" fill="#3A1111"/>
<path d="M56.1379 156.6C26.4298 151.799 5.94412 125.646 10.3819 98.1851C14.8198 70.7245 42.5005 52.3552 72.2087 57.1562C101.917 61.9572 122.402 88.1105 117.965 115.571C113.527 143.032 85.846 161.401 56.1379 156.6Z" fill="#F7392F"/>
<g opacity="0.3">
<path d="M57.3007 152.91C61.0415 129.751 64.7824 106.592 68.5232 83.4328C69.5781 76.9087 70.6329 70.3927 71.6878 63.8686C71.8339 62.9598 73.2134 63.3493 73.0673 64.25C69.3265 87.4089 65.5857 110.568 61.8449 133.727C60.79 140.251 59.7351 146.767 58.6802 153.291C58.5341 154.2 57.1547 153.81 57.3007 152.91Z" fill="#4A1434"/>
</g>
<g opacity="0.3">
<path d="M64.886 155.716C73.6822 146.231 80.7175 134.992 84.7098 122.65C88.6129 110.575 89.8463 97.0483 86.917 84.6168C85.2697 77.6139 82.2024 71.0736 77.9585 65.2798C77.4149 64.5332 78.6564 63.8192 79.2001 64.5576C86.9981 75.1795 90.317 88.0492 89.8788 101.13C89.4406 114.211 85.6755 127.243 79.1433 138.757C75.4674 145.241 70.98 151.253 65.9084 156.723C65.2836 157.404 64.2693 156.382 64.8941 155.708L64.886 155.716Z" fill="#4A1434"/>
</g>
<g opacity="0.3">
<path d="M73.8669 156.707C87.4587 149.128 99.1518 137.484 104.921 122.845C110.764 108.004 110.326 90.8495 101.667 77.1927C97.3179 70.3278 91.1427 64.6801 83.7504 61.2476C82.9146 60.8581 83.6449 59.6247 84.4726 60.0061C98.1943 66.376 107.599 80.1627 109.758 94.988C112.184 111.647 106.252 128.477 95.4272 141.119C89.5848 147.944 82.4196 153.575 74.5891 157.949C73.7857 158.395 73.0554 157.162 73.8669 156.707Z" fill="#4A1434"/>
</g>
<g opacity="0.3">
<path d="M48.6638 157.217C43.7139 143.642 41.4175 129.019 42.4156 114.575C43.2838 102.03 46.3755 89.0875 52.5831 78.0761C55.8452 72.2904 60.0728 67.089 65.1363 62.7802C65.8342 62.1878 66.8566 63.194 66.1506 63.7945C57.1354 71.4546 51.2442 81.8088 47.828 93.0393C43.8275 106.201 42.6996 120.118 44.4118 133.766C45.4017 141.637 47.3249 149.379 50.0433 156.828C50.3597 157.696 48.9721 158.069 48.6638 157.209V157.217Z" fill="#4A1434"/>
</g>
<g opacity="0.3">
<path d="M40.5239 155.855C29.4232 143.359 21.974 127.381 21.4465 110.527C20.9353 94.0951 27.0212 77.371 39.7936 66.6517C46.3014 61.1906 54.1888 57.4904 62.6522 56.4517C63.5692 56.3381 63.5611 57.7744 62.6522 57.888C47.6403 59.7381 34.795 70.3763 28.3358 83.7734C21.1301 98.7123 21.3654 116.361 27.2647 131.682C30.543 140.202 35.5009 148.033 41.5463 154.849C42.1549 155.539 41.1487 156.553 40.532 155.863L40.5239 155.855Z" fill="#4A1434"/>
</g>
<path d="M58.9054 160.196C58.1588 165.186 54.6858 169.698 51.5211 173.439C48.0481 177.545 44.0801 181.359 39.682 184.466C38.9273 185.002 38.2132 183.76 38.9598 183.225C43.1794 180.247 46.9689 176.563 50.3202 172.652C53.4118 169.033 56.8037 164.659 57.5259 159.814C57.6638 158.906 59.0433 159.295 58.9054 160.196Z" fill="#3A1111"/>
<path d="M78.8857 156.472L77.4251 165.479L34.8237 158.59L36.2681 149.639L78.8857 156.472Z" fill="#F7392F"/>
<path d="M34.822 158.59C34.5867 160.026 43.9346 162.728 55.7007 164.635C67.4668 166.534 77.1881 166.915 77.4234 165.479C77.6587 164.043 68.3107 161.34 56.5446 159.434C44.7785 157.535 35.0573 157.153 34.822 158.59Z" fill="#F7392F"/>
<path d="M36.3874 148.893C36.1521 150.329 45.5001 153.031 57.2662 154.938C69.0323 156.837 78.7535 157.218 78.9888 155.782C79.2241 154.346 69.8762 151.643 58.1101 149.737C46.344 147.838 36.6227 147.456 36.3874 148.893Z" fill="#F7392F"/>
<path d="M26.4131 194.537C23.5162 197.101 20.4002 200.874 17.9658 203.877C15.5315 206.879 13.5677 210.36 12.8537 214.158L9.56726 213.557C9.42932 212.064 10.3787 208.753 11.0928 207.431L7.36011 212.348L2.43458 205.759C4.30092 203.154 7.27897 201.312 7.27897 201.312C7.27897 201.312 1.29042 202.197 0.276104 199.901L0.000211716 194.512C0.000211716 194.512 3.21357 195.827 10.5978 194.318C17.9821 192.8 22.2828 191.753 23.9868 191.129C23.9868 191.129 26.1453 194.293 26.4131 194.537Z" fill="#F7392F"/>
<path d="M39.7665 184.361C42.3956 184.694 44.8056 186.479 45.6495 189.035C45.8849 189.757 45.9173 190.617 45.4872 191.275C45.0572 191.932 44.3187 192.289 43.5316 192.111C42.8257 191.948 42.2252 191.405 41.714 190.918C41.2028 190.431 40.7808 189.895 40.3994 189.319C39.5312 188.013 39.0281 186.512 38.8739 184.962C38.8333 184.572 39.2309 184.248 39.588 184.248C40.0099 184.248 40.2696 184.58 40.302 184.962C40.513 187.047 41.6004 189.019 43.2152 190.342C43.3775 190.471 43.556 190.609 43.7588 190.682C43.9374 190.747 44.0672 190.723 44.1564 190.642C44.4973 190.35 44.3918 189.814 44.2619 189.417C43.9617 188.491 43.3206 187.68 42.5903 187.063C41.8032 186.398 40.7808 185.927 39.7584 185.797C39.377 185.749 39.0443 185.505 39.0443 185.083C39.0443 184.734 39.377 184.321 39.7584 184.369L39.7665 184.361Z" fill="#3A1111"/>
<path d="M38.939 184.458C40.7242 182.105 43.6617 180.547 46.6559 180.734C47.4349 180.783 48.2464 180.994 48.7901 181.594C49.3337 182.194 49.4879 182.973 49.1633 183.696C48.5629 185.035 46.7127 185.684 45.4063 186.025C43.6698 186.471 41.8278 186.447 40.1156 185.943C39.2311 185.684 39.6044 184.304 40.497 184.564C41.9738 184.994 43.5318 185.026 45.0249 184.645C45.6173 184.491 48.7252 183.509 47.6865 182.511C47.1915 182.032 46.2746 182.13 45.6497 182.178C44.9438 182.235 44.2459 182.405 43.5886 182.657C42.2578 183.152 41.0407 184.045 40.1805 185.173C39.9452 185.481 39.5638 185.643 39.1987 185.432C38.8984 185.254 38.7037 184.759 38.939 184.45V184.458Z" fill="#3A1111"/>
<path d="M39.2661 184.946C37.9921 184.069 36.994 182.876 36.3936 181.456C35.7931 180.036 35.501 178.3 35.9554 176.79C36.4098 175.281 37.9272 174.031 39.5339 174.672C41.0594 175.281 41.7248 177.018 41.7492 178.551C41.7816 180.564 40.8485 182.471 39.9396 184.215C39.5177 185.035 38.2761 184.313 38.6981 183.493C39.3392 182.26 39.964 180.994 40.2236 179.622C40.4346 178.527 40.3454 177.156 39.5014 176.336C38.5845 175.435 37.5539 176.312 37.2943 177.334C37.0103 178.446 37.2294 179.687 37.6351 180.742C38.0976 181.935 38.9334 182.998 39.9883 183.72C40.743 184.24 40.0289 185.481 39.2661 184.962V184.946Z" fill="#3A1111"/>
<path d="M40.0511 185.189C40.5624 188.004 39.0612 191.055 36.359 192.143C35.6044 192.443 34.7523 192.508 34.0058 192.175C33.3323 191.875 32.7967 191.266 32.6994 190.528C32.5858 189.684 33.0239 188.946 33.5108 188.297C33.9652 187.696 34.4602 187.136 35.0039 186.617C36.2698 185.416 37.7466 184.499 39.3614 183.842C39.7185 183.696 40.1485 184.004 40.2459 184.345C40.3595 184.759 40.108 185.083 39.7428 185.229C38.6554 185.667 37.6168 186.284 36.708 187.023C35.7991 187.761 34.8984 188.637 34.3142 189.644C34.0951 190.025 33.9896 190.439 34.371 190.747C34.7524 191.055 35.296 190.999 35.7423 190.845C36.7242 190.52 37.5356 189.708 38.0469 188.832C38.6149 187.858 38.8664 186.69 38.6636 185.57C38.5905 185.189 38.7691 184.799 39.1667 184.686C39.5156 184.588 39.9781 184.807 40.0511 185.189Z" fill="#3A1111"/>
<path d="M39.3864 184.824C37.3253 186.877 33.7792 187.25 31.4017 185.522C30.1114 184.589 29.1052 182.812 30.0871 181.278C31.0689 179.744 33.0083 179.98 34.469 180.385C36.2055 180.864 37.7878 181.887 38.9157 183.282C39.1592 183.583 39.2078 184.005 38.9157 184.297C38.6642 184.548 38.1448 184.597 37.9014 184.297C37.1143 183.331 36.1162 182.544 34.9558 182.065C34.047 181.684 32.6351 181.237 31.6857 181.7C30.4766 182.292 31.4666 183.802 32.1806 184.321C33.0408 184.946 34.0957 185.222 35.1506 185.181C36.3515 185.141 37.52 184.662 38.3802 183.81C39.0374 183.161 40.0518 184.175 39.3945 184.824H39.3864Z" fill="#3A1111"/>
<path d="M35.1726 187.185C33.4766 188.581 31.6103 189.774 29.7358 190.91C27.9669 191.981 26.0924 193.149 24.0881 193.742C23.2036 194.001 22.8222 192.622 23.7067 192.362C25.5812 191.802 27.3502 190.682 29.0136 189.676C30.7826 188.605 32.5597 187.485 34.1583 186.171C34.8642 185.586 35.8867 186.601 35.1726 187.185Z" fill="#4A1434"/>
<path d="M27.3429 194.505C27.3429 194.505 25.5577 196.185 25.3873 196.355C25.2169 196.525 21.1839 192.29 22.0359 191.186C22.888 190.082 24.7624 189.758 24.7624 189.758C24.7624 189.758 28.5682 193.848 27.3429 194.505Z" fill="#3A1111"/>
<path d="M95.1465 55.8278L93.6859 64.8269L51.0845 57.9457L52.537 48.9954L95.1465 55.8278Z" fill="#F7392F"/>
<path d="M51.0886 57.9457C50.8533 59.382 60.2012 62.0842 71.9673 63.9911C83.7334 65.8899 93.4547 66.2713 93.69 64.835C93.9253 63.3987 84.5773 60.6966 72.8112 58.7897C61.0451 56.8909 51.3239 56.5095 51.0886 57.9457Z" fill="#F7392F"/>
<path d="M52.6609 48.2408C52.4255 49.6771 61.7735 52.3792 73.5396 54.2861C85.3057 56.1849 95.0269 56.5663 95.2623 55.13C95.4976 53.6938 86.1496 50.9916 74.3835 49.0847C62.6174 47.1859 52.8962 46.8045 52.6609 48.2408Z" fill="#F7392F"/>
<path d="M77.7976 155.847C65.0821 149.956 50.6382 148 36.8191 150.313C35.9184 150.467 35.5289 149.08 36.4377 148.934C50.6787 146.556 65.4229 148.536 78.5279 154.606C79.3637 154.995 78.6334 156.229 77.8057 155.847H77.7976Z" fill="#3A1111"/>
<path d="M75.9666 165.463C62.6019 161.819 48.8721 159.669 35.0368 159.052C34.1199 159.012 34.1117 157.575 35.0368 157.616C48.9938 158.233 62.8697 160.399 76.348 164.075C77.2406 164.318 76.8592 165.698 75.9666 165.454V165.463Z" fill="#3A1111"/>
<path d="M93.9432 65.7429C79.0935 67.8365 63.7814 65.1424 50.5546 58.0665C49.7432 57.6283 50.4654 56.3949 51.2768 56.825C64.1384 63.7061 79.1097 66.3921 93.5618 64.3553C94.4625 64.2255 94.852 65.6131 93.9432 65.7348V65.7429Z" fill="#3A1111"/>
<path d="M95.3267 55.9645C80.899 55.6724 66.5363 53.4165 52.7091 49.27C51.8246 49.0022 52.206 47.6227 53.0905 47.8905C66.7959 52.0046 81.0126 54.2442 95.3267 54.5363C96.2518 54.5526 96.2518 55.9888 95.3267 55.9726V55.9645Z" fill="#3A1111"/>
<path d="M20.311 197.004C14.574 200.639 9.53485 205.329 5.51003 210.799C4.96636 211.537 3.72483 210.823 4.26851 210.076C8.4475 204.396 13.6246 199.544 19.5807 195.762C20.3597 195.267 21.0819 196.509 20.3029 197.004H20.311Z" fill="#3A1111"/>
<path d="M17.3707 196.128C12.3315 198.521 7.77116 201.8 3.90052 205.816C3.25947 206.482 2.24515 205.467 2.8862 204.802C6.83799 200.704 11.5038 197.337 16.6485 194.894C17.4762 194.497 18.2065 195.738 17.3707 196.136V196.128Z" fill="#3A1111"/>
</g>
</svg>
