<svg width="201" height="542" viewBox="0 0 201 542" fill="none" xmlns="http://www.w3.org/2000/svg">
<rect x="4" y="301" width="86.7807" height="131.513" rx="10.7358" fill="black"/>
<rect x="4" y="300.602" width="86.7807" height="131.513" rx="10.7358" fill="black"/>
<rect x="4.44732" y="301.049" width="85.886" height="130.618" rx="10.2884" stroke="black" stroke-width="0.894646"/>
<rect x="9.36719" y="305.074" width="76.0449" height="122.566" rx="8.94646" fill="black"/>
<rect x="9.81451" y="305.522" width="75.1503" height="121.672" rx="8.49914" stroke="black" stroke-width="0.894646"/>
<line x1="47.3929" y1="-9.77656e-08" x2="47.3929" y2="300.601" stroke="black" stroke-width="4.47323"/>
<path d="M36.2809 340.647V354.256C39.5283 359.209 45.4797 359.209 52.9726 359.209C57.4709 359.209 62.7526 359.083 66 358.874C65.6652 359.538 65.166 360.871 65.0839 361.705C62.2093 361.831 57.6352 361.913 53.5096 361.913C44.9363 361.913 39.2313 361.913 35.03 356.752C32.9893 358.584 30.7844 360.454 28.9964 361.869C29.0407 362.242 28.9143 362.412 28.6237 362.532L27 359.449C28.9964 358.116 31.4541 356.202 33.5769 354.37V343.295H27.4549V340.629H36.2809V340.647ZM30.0831 325.042C32.8693 326.83 36.0787 329.579 37.5318 331.619L35.3269 333.489C33.9559 331.411 30.7907 328.58 27.9982 326.704L30.0768 325.036L30.0831 325.042ZM42.0301 336.073H49.1503C49.441 334.905 49.7316 333.534 49.9401 332.283H38.4542V329.869H45.9914C45.4481 328.41 44.2035 326.458 42.9968 325.042L45.1638 324.082C46.5347 325.579 47.9563 327.664 48.4554 329.117L46.9138 329.869H55.6956L54.6153 329.452C55.6577 327.911 56.9845 325.579 57.7363 324L61.0658 324.96C60.9394 325.213 60.6488 325.333 60.1939 325.377C59.4042 326.666 58.1153 328.498 56.9908 329.876H65.2735V332.289H52.8273C52.5367 333.414 52.1197 334.829 51.7027 336.08H61.6091V356.6H58.8166V355.141H44.7468V356.6H42.0428V336.073H42.0301ZM58.804 341.734V338.323H44.7342V341.734H58.804ZM44.7342 343.813V347.306H58.804V343.813H44.7342ZM44.7342 352.929H58.804V349.391H44.7342V352.929Z" fill="black"/>
<path d="M42.4471 403.402C42.2828 403.529 41.9922 403.655 41.6132 403.655C38.6564 405.652 33.2041 408.065 28.9143 409.48C28.4973 408.899 27.6255 407.901 27 407.313C31.3277 405.942 36.8242 403.567 39.6546 401.57L42.4408 403.402H42.4471ZM27.1706 397.577H64.5911V400.199H27.1706V397.577ZM33.2483 372.641H58.9303V394.538H33.2483V372.641ZM36.0408 374.934V379.224H56.062V374.934H36.0408ZM36.0408 381.385V385.675H56.062V381.385H36.0408ZM36.0408 387.879V392.207H56.062V387.879H36.0408ZM62.3862 409.524C59.4294 407.774 54.4763 405.443 49.6494 403.655L51.608 401.779C56.5169 403.529 61.767 405.778 65.0144 407.566L62.3925 409.524H62.3862Z" fill="black"/>
<rect x="110" y="406" width="86.7807" height="131.513" rx="10.7358" fill="black"/>
<rect x="110" y="405.602" width="86.7807" height="131.513" rx="10.7358" fill="black"/>
<rect x="110.447" y="406.049" width="85.886" height="130.618" rx="10.2884" stroke="black" stroke-width="0.894646"/>
<rect x="115.367" y="410.074" width="76.0449" height="122.566" rx="8.94646" fill="black"/>
<rect x="115.815" y="410.522" width="75.1503" height="121.672" rx="8.49914" stroke="black" stroke-width="0.894646"/>
<line x1="153.393" y1="105" x2="153.393" y2="405.601" stroke="black" stroke-width="4.47323"/>
<path d="M142.281 445.647V459.256C145.528 464.209 151.48 464.209 158.973 464.209C163.471 464.209 168.753 464.083 172 463.874C171.665 464.538 171.166 465.871 171.084 466.705C168.209 466.831 163.635 466.913 159.51 466.913C150.936 466.913 145.231 466.913 141.03 461.752C138.989 463.584 136.784 465.454 134.996 466.869C135.041 467.242 134.914 467.412 134.624 467.532L133 464.449C134.996 463.116 137.454 461.202 139.577 459.37V448.295H133.455V445.629H142.281V445.647ZM136.083 430.042C138.869 431.83 142.079 434.579 143.532 436.619L141.327 438.489C139.956 436.411 136.791 433.58 133.998 431.704L136.077 430.036L136.083 430.042ZM148.03 441.073H155.15C155.441 439.905 155.732 438.534 155.94 437.283H144.454V434.869H151.991C151.448 433.41 150.203 431.458 148.997 430.042L151.164 429.082C152.535 430.579 153.956 432.664 154.455 434.117L152.914 434.869H161.696L160.615 434.452C161.658 432.911 162.984 430.579 163.736 429L167.066 429.96C166.939 430.213 166.649 430.333 166.194 430.377C165.404 431.666 164.115 433.498 162.991 434.876H171.273V437.289H158.827C158.537 438.414 158.12 439.829 157.703 441.08H167.609V461.6H164.817V460.141H150.747V461.6H148.043V441.073H148.03ZM164.804 446.734V443.323H150.734V446.734H164.804ZM150.734 448.813V452.306H164.804V448.813H150.734ZM150.734 457.929H164.804V454.391H150.734V457.929Z" fill="black"/>
<path d="M148.447 508.402C148.283 508.529 147.992 508.655 147.613 508.655C144.656 510.652 139.204 513.065 134.914 514.48C134.497 513.899 133.625 512.901 133 512.313C137.328 510.942 142.824 508.567 145.655 506.57L148.441 508.402H148.447ZM133.171 502.577H170.591V505.199H133.171V502.577ZM139.248 477.641H164.93V499.538H139.248V477.641ZM142.041 479.934V484.224H162.062V479.934H142.041ZM142.041 486.385V490.675H162.062V486.385H142.041ZM142.041 492.879V497.207H162.062V492.879H142.041ZM168.386 514.524C165.429 512.774 160.476 510.443 155.649 508.655L157.608 506.779C162.517 508.529 167.767 510.778 171.014 512.566L168.393 514.524H168.386Z" fill="black"/>
<rect x="4" y="301" width="86.7807" height="131.513" rx="10.7358" fill="black"/>
<g filter="url(#filter0_f_455_1680)">
<rect x="4" y="300.602" width="86.7807" height="131.513" rx="10.7358" fill="url(#paint0_linear_455_1680)"/>
</g>
<rect x="4.44732" y="301.049" width="85.886" height="130.618" rx="10.2884" stroke="#8E1F20" stroke-width="0.894646"/>
<rect x="9.36719" y="305.074" width="76.0449" height="122.566" rx="8.94646" fill="url(#paint1_linear_455_1680)"/>
<rect x="9.81451" y="305.522" width="75.1503" height="121.672" rx="8.49914" stroke="#B93422" stroke-width="0.894646"/>
<g clip-path="url(#clip0_455_1680)">
<path d="M64.3846 344.076H57.3854C57.232 344.154 57.0396 344.19 56.8081 344.229C55.5784 348.459 53.579 351.73 50.8462 354.268C55.4222 355.999 59.6162 357.921 62.4995 359.574L60.6926 361.805C57.8092 359.998 53.4228 357.96 48.6154 356.075C44.4995 358.997 39.0396 360.729 32.3471 361.766C32.0794 361.15 31.3851 360.112 30.8469 359.535C36.884 358.727 41.8839 357.343 45.7321 354.998C43.1164 354.036 40.4255 353.113 37.8851 352.383C37.5784 352.96 37.3079 353.537 37.0402 354.036L34.3855 353.345C35.7324 350.921 37.3079 347.536 38.8862 344.076H29.5V341.577H39.9988C41.0752 339.115 42.1153 336.691 42.9603 334.578L46.2675 335.23C46.1531 335.537 45.9217 335.654 45.4225 335.654C44.6919 337.422 43.808 339.461 42.885 341.577H64.3846V344.076ZM33.3844 333.231V339.076H30.7688V330.769H45.5006V326L48.9612 326.232C48.9222 326.502 48.7297 326.695 48.1916 326.77V330.769H63.0768V339.076H60.383V333.231H33.3844ZM41.7696 344.076C40.8075 346.228 39.8092 348.384 38.8862 350.344C41.8086 351.114 45.0015 352.151 48.1553 353.267C50.8853 350.997 52.8484 347.996 54.0001 344.076H41.7696Z" fill="black"/>
<path d="M49.1555 372.231C49.0775 372.538 48.7707 372.73 48.3859 372.808C52.117 377.886 59.0409 383.692 65 386.771C64.3475 387.387 63.7312 388.271 63.2683 389.041C57.2311 385.502 50.3462 379.657 46.7686 374.694C43.6147 379.462 37.268 385.385 30.6146 389.308C30.2688 388.731 29.5382 387.808 29 387.27C35.7315 383.5 42.385 377.156 45.3854 372.039L49.1555 372.231ZM48.1572 397.691V404.422H63.6559V406.806H30.3859V404.422H45.4635V397.691H33.6178V395.345H45.4635V388.96H35.3105V386.614H58.7342V388.96H48.1572V395.345H60.1563V397.691H48.1572Z" fill="black"/>
<g clip-path="url(#clip1_455_1680)">
<path d="M64.3846 344.076H57.3854C57.232 344.154 57.0396 344.19 56.8081 344.229C55.5784 348.459 53.579 351.73 50.8462 354.268C55.4222 355.999 59.6162 357.921 62.4995 359.574L60.6926 361.805C57.8092 359.998 53.4228 357.96 48.6154 356.075C44.4995 358.997 39.0396 360.729 32.3471 361.766C32.0794 361.15 31.3851 360.112 30.8469 359.535C36.884 358.727 41.8839 357.343 45.7321 354.998C43.1164 354.036 40.4255 353.113 37.8851 352.383C37.5784 352.96 37.3079 353.537 37.0402 354.036L34.3855 353.345C35.7324 350.921 37.3079 347.536 38.8862 344.076H29.5V341.577H39.9988C41.0752 339.115 42.1153 336.691 42.9603 334.578L46.2675 335.23C46.1531 335.537 45.9217 335.654 45.4225 335.654C44.6919 337.422 43.808 339.461 42.885 341.577H64.3846V344.076ZM33.3844 333.231V339.076H30.7688V330.769H45.5006V326L48.9612 326.232C48.9222 326.502 48.7297 326.695 48.1916 326.77V330.769H63.0768V339.076H60.383V333.231H33.3844ZM41.7696 344.076C40.8075 346.228 39.8092 348.384 38.8862 350.344C41.8086 351.114 45.0015 352.151 48.1553 353.267C50.8853 350.997 52.8484 347.996 54.0001 344.076H41.7696Z" fill="black"/>
<path d="M49.1555 372.231C49.0775 372.538 48.7707 372.73 48.3859 372.808C52.117 377.886 59.0409 383.692 65 386.771C64.3475 387.387 63.7312 388.271 63.2683 389.041C57.2311 385.502 50.3462 379.657 46.7686 374.694C43.6147 379.462 37.268 385.385 30.6146 389.308C30.2688 388.731 29.5382 387.808 29 387.27C35.7315 383.5 42.385 377.156 45.3854 372.039L49.1555 372.231ZM48.1572 397.691V404.422H63.6559V406.806H30.3859V404.422H45.4635V397.691H33.6178V395.345H45.4635V388.96H35.3105V386.614H58.7342V388.96H48.1572V395.345H60.1563V397.691H48.1572Z" fill="black"/>
<g clip-path="url(#clip2_455_1680)">
<path d="M64.3846 344.076H57.3854C57.232 344.154 57.0396 344.19 56.8081 344.229C55.5784 348.459 53.579 351.73 50.8462 354.268C55.4222 355.999 59.6162 357.921 62.4995 359.574L60.6926 361.805C57.8092 359.998 53.4228 357.96 48.6154 356.075C44.4995 358.997 39.0396 360.729 32.3471 361.766C32.0794 361.15 31.3851 360.112 30.8469 359.535C36.884 358.727 41.8839 357.343 45.7321 354.998C43.1164 354.036 40.4255 353.113 37.8851 352.383C37.5784 352.96 37.3079 353.537 37.0402 354.036L34.3855 353.345C35.7324 350.921 37.3079 347.536 38.8862 344.076H29.5V341.577H39.9988C41.0752 339.115 42.1153 336.691 42.9603 334.578L46.2675 335.23C46.1531 335.537 45.9217 335.654 45.4225 335.654C44.6919 337.422 43.808 339.461 42.885 341.577H64.3846V344.076ZM33.3844 333.231V339.076H30.7688V330.769H45.5006V326L48.9612 326.232C48.9222 326.502 48.7297 326.695 48.1916 326.77V330.769H63.0768V339.076H60.383V333.231H33.3844ZM41.7696 344.076C40.8075 346.228 39.8092 348.384 38.8862 350.344C41.8086 351.114 45.0015 352.151 48.1553 353.267C50.8853 350.997 52.8484 347.996 54.0001 344.076H41.7696Z" fill="black"/>
<path d="M49.1555 372.231C49.0775 372.538 48.7707 372.73 48.3859 372.808C52.117 377.886 59.0409 383.692 65 386.771C64.3475 387.387 63.7312 388.271 63.2683 389.041C57.2311 385.502 50.3462 379.657 46.7686 374.694C43.6147 379.462 37.268 385.385 30.6146 389.308C30.2688 388.731 29.5382 387.808 29 387.27C35.7315 383.5 42.385 377.156 45.3854 372.039L49.1555 372.231ZM48.1572 397.691V404.422H63.6559V406.806H30.3859V404.422H45.4635V397.691H33.6178V395.345H45.4635V388.96H35.3105V386.614H58.7342V388.96H48.1572V395.345H60.1563V397.691H48.1572Z" fill="black"/>
</g>
</g>
</g>
<line x1="47.3929" y1="-9.77656e-08" x2="47.3929" y2="300.601" stroke="#B93422" stroke-width="4.47323"/>
<rect x="110" y="406" width="86.7807" height="131.513" rx="10.7358" fill="black"/>
<g filter="url(#filter1_f_455_1680)">
<rect x="110" y="405.602" width="86.7807" height="131.513" rx="10.7358" fill="url(#paint2_linear_455_1680)"/>
</g>
<rect x="110.447" y="406.049" width="85.886" height="130.618" rx="10.2884" stroke="#8E1F20" stroke-width="0.894646"/>
<rect x="115.367" y="410.074" width="76.0449" height="122.566" rx="8.94646" fill="url(#paint3_linear_455_1680)"/>
<rect x="115.815" y="410.522" width="75.1503" height="121.672" rx="8.49914" stroke="#B93422" stroke-width="0.894646"/>
<line x1="153.393" y1="105" x2="153.393" y2="405.601" stroke="#B93422" stroke-width="4.47323"/>
<g clip-path="url(#clip3_455_1680)">
<path d="M170.385 449.076H163.385C163.232 449.154 163.04 449.19 162.808 449.229C161.578 453.459 159.579 456.73 156.846 459.268C161.422 460.999 165.616 462.921 168.5 464.574L166.693 466.805C163.809 464.998 159.423 462.96 154.615 461.075C150.5 463.997 145.04 465.729 138.347 466.766C138.079 466.15 137.385 465.112 136.847 464.535C142.884 463.727 147.884 462.343 151.732 459.998C149.116 459.036 146.425 458.113 143.885 457.383C143.578 457.96 143.308 458.537 143.04 459.036L140.386 458.345C141.732 455.921 143.308 452.536 144.886 449.076H135.5V446.577H145.999C147.075 444.115 148.115 441.691 148.96 439.578L152.267 440.23C152.153 440.537 151.922 440.654 151.423 440.654C150.692 442.422 149.808 444.461 148.885 446.577H170.385V449.076ZM139.384 438.231V444.076H136.769V435.769H151.501V431L154.961 431.232C154.922 431.502 154.73 431.695 154.192 431.77V435.769H169.077V444.076H166.383V438.231H139.384ZM147.77 449.076C146.808 451.228 145.809 453.384 144.886 455.344C147.809 456.114 151.001 457.151 154.155 458.267C156.885 455.997 158.848 452.996 160 449.076H147.77Z" fill="black"/>
<path d="M155.156 477.231C155.077 477.538 154.771 477.73 154.386 477.808C158.117 482.886 165.041 488.692 171 491.771C170.347 492.387 169.731 493.271 169.268 494.041C163.231 490.502 156.346 484.657 152.769 479.694C149.615 484.462 143.268 490.385 136.615 494.308C136.269 493.731 135.538 492.808 135 492.27C141.732 488.5 148.385 482.156 151.385 477.039L155.156 477.231ZM154.157 502.691V509.422H169.656V511.806H136.386V509.422H151.464V502.691H139.618V500.345H151.464V493.96H141.31V491.614H164.734V493.96H154.157V500.345H166.156V502.691H154.157Z" fill="black"/>
</g>
<defs>
<filter id="filter0_f_455_1680" x="0" y="296.602" width="94.7803" height="139.513" filterUnits="userSpaceOnUse" color-interpolation-filters="sRGB">
<feFlood flood-opacity="0" result="BackgroundImageFix"/>
<feBlend mode="normal" in="SourceGraphic" in2="BackgroundImageFix" result="shape"/>
<feGaussianBlur stdDeviation="2" result="effect1_foregroundBlur_455_1680"/>
</filter>
<filter id="filter1_f_455_1680" x="106" y="401.602" width="94.7803" height="139.513" filterUnits="userSpaceOnUse" color-interpolation-filters="sRGB">
<feFlood flood-opacity="0" result="BackgroundImageFix"/>
<feBlend mode="normal" in="SourceGraphic" in2="BackgroundImageFix" result="shape"/>
<feGaussianBlur stdDeviation="2" result="effect1_foregroundBlur_455_1680"/>
</filter>
<linearGradient id="paint0_linear_455_1680" x1="84.9655" y1="424.51" x2="-6.28842" y2="272.42" gradientUnits="userSpaceOnUse">
<stop stop-color="#DB092F"/>
<stop offset="1" stop-color="#D02D30"/>
</linearGradient>
<linearGradient id="paint1_linear_455_1680" x1="14.905" y1="305.074" x2="79.1372" y2="428.026" gradientUnits="userSpaceOnUse">
<stop stop-color="#B93422"/>
<stop offset="1" stop-color="#F7392F"/>
</linearGradient>
<linearGradient id="paint2_linear_455_1680" x1="190.965" y1="529.51" x2="99.7116" y2="377.42" gradientUnits="userSpaceOnUse">
<stop stop-color="#DB092F"/>
<stop offset="1" stop-color="#D02D30"/>
</linearGradient>
<linearGradient id="paint3_linear_455_1680" x1="120.905" y1="410.074" x2="185.137" y2="533.026" gradientUnits="userSpaceOnUse">
<stop stop-color="#B93422"/>
<stop offset="1" stop-color="#F7392F"/>
</linearGradient>
<clipPath id="clip0_455_1680">
<rect width="36" height="80.8062" fill="white" transform="translate(29 326)"/>
</clipPath>
<clipPath id="clip1_455_1680">
<rect width="36" height="80.8062" fill="white" transform="translate(29 326)"/>
</clipPath>
<clipPath id="clip2_455_1680">
<rect width="36" height="80.8062" fill="white" transform="translate(29 326)"/>
</clipPath>
<clipPath id="clip3_455_1680">
<rect width="36" height="80.8062" fill="white" transform="translate(135 431)"/>
</clipPath>
</defs>
</svg>
