<svg width="268" height="719" viewBox="0 0 268 719" fill="none" xmlns="http://www.w3.org/2000/svg">
<rect x="59" y="478.544" width="86.8794" height="131.663" rx="10.7358" fill="black"/>
<rect x="59" y="478.145" width="86.8794" height="131.663" rx="10.7358" fill="black"/>
<rect x="59.4473" y="478.592" width="85.9847" height="130.768" rx="10.2884" stroke="black" stroke-width="0.894646"/>
<rect x="64.373" y="482.623" width="76.1314" height="122.706" rx="8.94646" fill="black"/>
<rect x="64.8204" y="483.07" width="75.2368" height="121.811" rx="8.49914" stroke="black" stroke-width="0.894646"/>
<line x1="102.44" y1="177.201" x2="102.44" y2="478.144" stroke="black" stroke-width="4.47323"/>
<rect x="165.121" y="583.663" width="86.8794" height="131.663" rx="10.7358" fill="black"/>
<rect x="165.121" y="583.264" width="86.8794" height="131.663" rx="10.7358" fill="black"/>
<rect x="165.568" y="583.712" width="85.9847" height="130.768" rx="10.2884" stroke="black" stroke-width="0.894646"/>
<rect x="170.494" y="587.742" width="76.1314" height="122.706" rx="8.94646" fill="black"/>
<rect x="170.941" y="588.19" width="75.2368" height="121.811" rx="8.49914" stroke="black" stroke-width="0.894646"/>
<line x1="208.56" y1="282.321" x2="208.56" y2="583.264" stroke="black" stroke-width="4.47323"/>
<g opacity="0.5">
<rect x="59" y="478.544" width="86.8794" height="131.663" rx="10.7358" fill="black"/>
<g filter="url(#filter0_f_754_305)">
<rect x="59" y="478.145" width="86.8794" height="131.663" rx="10.7358" fill="url(#paint0_linear_754_305)"/>
</g>
<rect x="59.4473" y="478.592" width="85.9847" height="130.768" rx="10.2884" stroke="#8E1F20" stroke-width="0.894646"/>
<rect x="64.373" y="482.623" width="76.1314" height="122.706" rx="8.94646" fill="url(#paint1_linear_754_305)"/>
<rect x="64.8204" y="483.07" width="75.2368" height="121.811" rx="8.49914" stroke="#B93422" stroke-width="0.894646"/>
<line x1="102.283" y1="-9.77655e-08" x2="102.284" y2="478.544" stroke="#B93422" stroke-width="4.47323"/>
<rect x="165.121" y="583.663" width="86.8794" height="131.663" rx="10.7358" fill="black"/>
<g filter="url(#filter1_f_754_305)">
<rect x="165.121" y="583.264" width="86.8794" height="131.663" rx="10.7358" fill="url(#paint2_linear_754_305)"/>
</g>
<rect x="165.568" y="583.712" width="85.9847" height="130.768" rx="10.2884" stroke="#8E1F20" stroke-width="0.894646"/>
<rect x="170.494" y="587.742" width="76.1314" height="122.706" rx="8.94646" fill="url(#paint3_linear_754_305)"/>
<rect x="170.941" y="588.19" width="75.2368" height="121.811" rx="8.49914" stroke="#B93422" stroke-width="0.894646"/>
<line x1="208.404" y1="-9.77655e-08" x2="208.404" y2="583.663" stroke="#B93422" stroke-width="4.47323"/>
<g clip-path="url(#clip0_754_305)">
<path d="M225.575 627.789H218.567C218.414 627.867 218.221 627.903 217.99 627.943C216.758 632.178 214.757 635.452 212.021 637.993C216.602 639.726 220.801 641.65 223.687 643.305L221.878 645.539C218.992 643.73 214.6 641.689 209.788 639.802C205.667 642.727 200.201 644.461 193.501 645.5C193.233 644.883 192.538 643.844 191.999 643.266C198.043 642.457 203.048 641.072 206.901 638.724C204.282 637.761 201.588 636.837 199.045 636.105C198.738 636.683 198.467 637.261 198.199 637.761L195.541 637.069C196.89 634.643 198.467 631.253 200.047 627.789H190.65V625.288H201.161C202.239 622.823 203.28 620.397 204.126 618.28L207.437 618.934C207.322 619.241 207.091 619.358 206.591 619.358C205.86 621.128 204.975 623.169 204.051 625.288H225.575V627.789ZM194.539 616.932V622.783H191.921V614.467H206.669V609.693L210.134 609.925C210.095 610.196 209.902 610.388 209.363 610.464V614.467H224.265V622.783H221.569V616.932H194.539ZM202.934 627.789C201.971 629.944 200.971 632.102 200.047 634.065C202.973 634.835 206.169 635.874 209.327 636.99C212.06 634.718 214.025 631.714 215.178 627.789H202.934Z" fill="black"/>
<path d="M210.328 655.977C210.25 656.284 209.943 656.476 209.557 656.555C213.293 661.638 220.224 667.451 226.19 670.533C225.537 671.15 224.92 672.035 224.457 672.805C218.413 669.262 211.52 663.411 207.938 658.442C204.781 663.216 198.427 669.145 191.766 673.073C191.42 672.495 190.688 671.571 190.149 671.032C196.889 667.258 203.55 660.907 206.553 655.784L210.328 655.977ZM209.328 681.465V688.204H224.845V690.591H191.537V688.204H206.632V681.465H194.772V679.117H206.632V672.724H196.467V670.376H219.917V672.724H209.328V679.117H221.341V681.465H209.328Z" fill="black"/>
</g>
<g clip-path="url(#clip1_754_305)">
<path d="M117.452 522.67H110.444C110.291 522.748 110.098 522.784 109.867 522.823C108.635 527.058 106.634 530.333 103.898 532.873C108.479 534.607 112.678 536.53 115.564 538.186L113.755 540.419C110.869 538.61 106.477 536.57 101.665 534.682C97.5439 537.608 92.0778 539.342 85.3777 540.38C85.1097 539.763 84.4145 538.725 83.8757 538.147C89.9198 537.337 94.9253 535.953 98.7779 533.605C96.1593 532.642 93.4653 531.718 90.922 530.986C90.6149 531.564 90.3441 532.142 90.0761 532.642L87.4184 531.949C88.7668 529.523 90.3441 526.134 91.9242 522.67H82.5273V520.168H93.0381C94.1157 517.703 95.157 515.277 96.0029 513.161L99.3139 513.814C99.1994 514.121 98.9677 514.239 98.468 514.239C97.7366 516.009 96.8516 518.049 95.9275 520.168H117.452V522.67ZM86.4162 511.813V517.664H83.7976V509.348H98.5462V504.574L102.011 504.805C101.972 505.076 101.779 505.269 101.24 505.344V509.348H116.142V517.664H113.446V511.813H86.4162ZM94.8109 522.67C93.8477 524.825 92.8483 526.983 91.9242 528.945C94.8499 529.716 98.0465 530.754 101.204 531.871C103.937 529.599 105.902 526.595 107.055 522.67H94.8109Z" fill="black"/>
<path d="M102.205 550.857C102.127 551.164 101.82 551.357 101.434 551.435C105.17 556.519 112.101 562.331 118.067 565.413C117.414 566.03 116.797 566.915 116.334 567.686C110.29 564.143 103.397 558.292 99.8151 553.322C96.6577 558.096 90.3038 564.026 83.6428 567.954C83.2966 567.376 82.5652 566.452 82.0264 565.913C88.7656 562.139 95.4266 555.787 98.4304 550.665L102.205 550.857ZM101.205 576.346V583.085H116.722V585.472H83.4138V583.085H98.5086V576.346H86.6494V573.998H98.5086V567.605H88.344V565.257H111.794V567.605H101.205V573.998H113.218V576.346H101.205Z" fill="black"/>
</g>
</g>
<rect x="206" y="0.406494" width="5" height="282" fill="#5D1A11"/>
<rect x="100" y="0.406494" width="5" height="282" fill="#5D1A11"/>
<defs>
<filter id="filter0_f_754_305" x="55" y="474.145" width="94.8789" height="139.663" filterUnits="userSpaceOnUse" color-interpolation-filters="sRGB">
<feFlood flood-opacity="0" result="BackgroundImageFix"/>
<feBlend mode="normal" in="SourceGraphic" in2="BackgroundImageFix" result="shape"/>
<feGaussianBlur stdDeviation="2" result="effect1_foregroundBlur_754_305"/>
</filter>
<filter id="filter1_f_754_305" x="161.121" y="579.264" width="94.8789" height="139.663" filterUnits="userSpaceOnUse" color-interpolation-filters="sRGB">
<feFlood flood-opacity="0" result="BackgroundImageFix"/>
<feBlend mode="normal" in="SourceGraphic" in2="BackgroundImageFix" result="shape"/>
<feGaussianBlur stdDeviation="2" result="effect1_foregroundBlur_754_305"/>
</filter>
<linearGradient id="paint0_linear_754_305" x1="140.058" y1="602.194" x2="48.6999" y2="449.932" gradientUnits="userSpaceOnUse">
<stop stop-color="#DB092F"/>
<stop offset="1" stop-color="#D02D30"/>
</linearGradient>
<linearGradient id="paint1_linear_754_305" x1="69.9172" y1="482.623" x2="134.222" y2="605.714" gradientUnits="userSpaceOnUse">
<stop stop-color="#B93422"/>
<stop offset="1" stop-color="#F7392F"/>
</linearGradient>
<linearGradient id="paint2_linear_754_305" x1="246.179" y1="707.314" x2="154.821" y2="555.051" gradientUnits="userSpaceOnUse">
<stop stop-color="#DB092F"/>
<stop offset="1" stop-color="#D02D30"/>
</linearGradient>
<linearGradient id="paint3_linear_754_305" x1="176.038" y1="587.742" x2="240.344" y2="710.834" gradientUnits="userSpaceOnUse">
<stop stop-color="#B93422"/>
<stop offset="1" stop-color="#F7392F"/>
</linearGradient>
<clipPath id="clip0_754_305">
<rect width="36.041" height="80.8981" fill="white" transform="translate(190.149 609.693)"/>
</clipPath>
<clipPath id="clip1_754_305">
<rect width="36.041" height="80.8981" fill="white" transform="translate(82.0264 504.573)"/>
</clipPath>
</defs>
</svg>
