<svg width="282" height="213" viewBox="0 0 282 213" fill="none" xmlns="http://www.w3.org/2000/svg">
<path d="M229.372 49.3842C230.333 33.7997 237.742 18.8285 249.396 8.46579C250.856 7.16641 252.382 5.93966 253.972 4.8017C255.747 3.52653 257.644 2.28364 259.783 1.71062C261.752 1.18603 263.858 1.41201 265.416 2.81631C266.659 3.93813 267.377 5.56841 267.643 7.20676C268.321 11.3793 265.787 15.1967 263.245 18.2555C260.267 21.8389 257.039 25.2367 253.786 28.5699C246.361 36.1805 238.484 43.3392 230.615 50.4898C229.937 51.1113 230.946 52.1121 231.624 51.4987C239.21 44.6063 246.805 37.7059 253.996 30.3938C257.491 26.8427 260.945 23.219 264.141 19.3935C266.731 16.3024 269.298 12.5818 269.177 8.36087C269.072 4.97118 267.28 1.39587 263.866 0.330535C259.557 -1.01727 255.255 2.03345 252.011 4.49501C245.489 9.45041 240.026 15.7375 235.958 22.8397C231.317 30.9426 228.533 40.0625 227.952 49.3842C227.895 50.3042 229.324 50.2961 229.38 49.3842H229.372Z" fill="black"/>
<path d="M212.174 155.753C182.626 150.978 162.251 124.966 166.665 97.6542C171.079 70.342 198.61 52.0721 228.158 56.8471C257.705 61.6222 278.08 87.6341 273.666 114.946C269.252 142.259 241.721 160.528 212.174 155.753Z" fill="black"/>
<g opacity="0.3">
<path d="M213.33 152.083C217.051 129.049 220.772 106.015 224.492 82.9815C225.541 76.4926 226.59 70.0119 227.64 63.523C227.785 62.6191 229.157 63.0065 229.012 63.9024C225.291 86.9361 221.571 109.97 217.85 133.004C216.801 139.492 215.752 145.973 214.702 152.462C214.557 153.366 213.185 152.979 213.33 152.083Z" fill="black"/>
</g>
<g opacity="0.3">
<path d="M220.877 154.874C229.625 145.44 236.623 134.262 240.593 121.986C244.475 109.977 245.702 96.5233 242.789 84.159C241.15 77.194 238.1 70.689 233.879 64.9265C233.338 64.184 234.573 63.4738 235.113 64.2083C242.869 74.7728 246.17 87.5729 245.734 100.583C245.299 113.593 241.554 126.554 235.057 138.007C231.401 144.455 226.938 150.435 221.894 155.875C221.272 156.553 220.263 155.536 220.885 154.866L220.877 154.874Z" fill="black"/>
</g>
<g opacity="0.3">
<path d="M229.807 155.86C243.325 148.322 254.955 136.74 260.693 122.181C266.504 107.42 266.069 90.3582 257.457 76.7752C253.131 69.9474 246.989 64.3302 239.637 60.9163C238.806 60.5289 239.532 59.3022 240.355 59.6815C254.003 66.017 263.357 79.7291 265.504 94.4742C267.917 111.043 262.017 127.782 251.251 140.356C245.44 147.144 238.313 152.745 230.525 157.095C229.726 157.539 229 156.312 229.807 155.86Z" fill="black"/>
</g>
<g opacity="0.3">
<path d="M204.739 156.368C199.816 142.865 197.532 128.322 198.525 113.956C199.388 101.479 202.463 88.6062 208.637 77.6543C211.882 71.8999 216.086 66.7266 221.123 62.4411C221.817 61.8519 222.834 62.8527 222.131 63.4499C213.165 71.0686 207.306 81.3668 203.908 92.5366C199.929 105.627 198.807 119.469 200.51 133.043C201.495 140.872 203.407 148.571 206.111 155.98C206.426 156.844 205.046 157.215 204.739 156.36V156.368Z" fill="black"/>
</g>
<g opacity="0.3">
<path d="M196.645 155.012C185.605 142.584 178.196 126.692 177.671 109.93C177.163 93.5864 183.216 76.9527 195.919 66.2913C202.392 60.8598 210.236 57.1795 218.654 56.1465C219.566 56.0335 219.558 57.462 218.654 57.575C203.723 59.4151 190.947 69.9958 184.523 83.3205C177.356 98.1786 177.59 115.732 183.458 130.97C186.718 139.444 191.649 147.232 197.662 154.012C198.267 154.698 197.267 155.706 196.653 155.02L196.645 155.012Z" fill="black"/>
</g>
<path d="M214.926 159.33C214.183 164.293 210.729 168.781 207.582 172.501C204.127 176.585 200.181 180.378 195.806 183.469C195.056 184.002 194.346 182.767 195.088 182.234C199.285 179.273 203.054 175.608 206.387 171.718C209.462 168.119 212.836 163.769 213.554 158.951C213.691 158.047 215.063 158.434 214.926 159.33Z" fill="black"/>
<path d="M234.797 155.626L233.344 164.584L190.973 157.732L192.41 148.83L234.797 155.626Z" fill="black"/>
<path d="M190.97 157.732C190.736 159.161 200.034 161.848 211.736 163.745C223.439 165.634 233.107 166.013 233.341 164.584C233.575 163.156 224.278 160.468 212.576 158.572C200.873 156.683 191.204 156.304 190.97 157.732Z" fill="black"/>
<path d="M192.528 148.088C192.294 149.516 201.591 152.204 213.294 154.1C224.996 155.989 234.665 156.368 234.899 154.94C235.133 153.511 225.836 150.824 214.133 148.927C202.431 147.038 192.762 146.659 192.528 148.088Z" fill="black"/>
<path d="M182.609 193.485C179.728 196.035 176.629 199.788 174.208 202.775C171.787 205.761 169.833 209.223 169.123 213L165.855 212.403C165.717 210.918 166.662 207.625 167.372 206.309L163.659 211.2L158.76 204.647C160.617 202.056 163.579 200.224 163.579 200.224C163.579 200.224 157.623 201.104 156.614 198.82L156.339 193.461C156.339 193.461 159.535 194.768 166.88 193.267C174.224 191.758 178.501 190.717 180.196 190.095C180.196 190.095 182.343 193.243 182.609 193.485Z" fill="black"/>
<path d="M195.891 183.364C198.506 183.695 200.903 185.471 201.742 188.013C201.976 188.731 202.009 189.587 201.581 190.241C201.153 190.894 200.419 191.25 199.636 191.072C198.934 190.911 198.336 190.37 197.828 189.886C197.32 189.401 196.9 188.869 196.521 188.296C195.657 186.996 195.157 185.503 195.003 183.962C194.963 183.574 195.358 183.251 195.713 183.251C196.133 183.251 196.391 183.582 196.424 183.962C196.634 186.036 197.715 187.997 199.321 189.313C199.482 189.442 199.66 189.579 199.862 189.652C200.039 189.716 200.168 189.692 200.257 189.611C200.596 189.321 200.491 188.788 200.362 188.392C200.064 187.472 199.426 186.665 198.7 186.052C197.917 185.39 196.9 184.922 195.883 184.793C195.504 184.745 195.173 184.502 195.173 184.083C195.173 183.736 195.504 183.324 195.883 183.373L195.891 183.364Z" fill="black"/>
<path d="M195.068 183.461C196.844 181.121 199.766 179.571 202.744 179.757C203.518 179.805 204.326 180.015 204.866 180.612C205.407 181.209 205.56 181.984 205.237 182.703C204.64 184.034 202.8 184.68 201.501 185.019C199.774 185.463 197.942 185.439 196.239 184.938C195.359 184.68 195.73 183.308 196.618 183.566C198.087 183.994 199.636 184.026 201.121 183.647C201.711 183.493 204.802 182.517 203.769 181.524C203.276 181.048 202.364 181.145 201.743 181.193C201.041 181.25 200.347 181.419 199.693 181.669C198.369 182.162 197.159 183.05 196.303 184.171C196.069 184.478 195.69 184.639 195.327 184.43C195.028 184.252 194.834 183.76 195.068 183.453V183.461Z" fill="black"/>
<path d="M195.394 183.946C194.127 183.074 193.134 181.888 192.537 180.475C191.94 179.063 191.649 177.336 192.101 175.835C192.553 174.333 194.062 173.091 195.66 173.728C197.177 174.333 197.839 176.061 197.863 177.586C197.896 179.588 196.968 181.484 196.064 183.219C195.644 184.034 194.409 183.316 194.829 182.501C195.466 181.274 196.088 180.015 196.346 178.651C196.556 177.562 196.467 176.198 195.628 175.383C194.716 174.487 193.691 175.358 193.433 176.375C193.15 177.481 193.368 178.716 193.772 179.765C194.232 180.951 195.063 182.009 196.112 182.727C196.863 183.244 196.152 184.478 195.394 183.962V183.946Z" fill="black"/>
<path d="M196.174 184.188C196.683 186.988 195.19 190.023 192.502 191.104C191.752 191.403 190.904 191.467 190.162 191.136C189.492 190.838 188.959 190.232 188.862 189.498C188.749 188.659 189.185 187.924 189.669 187.279C190.121 186.681 190.614 186.124 191.154 185.608C192.413 184.413 193.882 183.502 195.488 182.848C195.844 182.703 196.271 183.009 196.368 183.348C196.481 183.76 196.231 184.083 195.868 184.228C194.786 184.664 193.753 185.277 192.849 186.011C191.945 186.746 191.05 187.618 190.468 188.618C190.251 188.998 190.146 189.409 190.525 189.716C190.904 190.023 191.445 189.966 191.889 189.813C192.865 189.49 193.673 188.683 194.181 187.811C194.746 186.843 194.996 185.681 194.794 184.567C194.722 184.188 194.899 183.8 195.295 183.687C195.642 183.59 196.102 183.808 196.174 184.188Z" fill="black"/>
<path d="M195.513 183.825C193.463 185.867 189.936 186.238 187.571 184.519C186.288 183.591 185.287 181.823 186.264 180.298C187.24 178.773 189.169 179.007 190.622 179.41C192.349 179.886 193.923 180.903 195.044 182.291C195.287 182.59 195.335 183.01 195.044 183.3C194.794 183.55 194.278 183.599 194.036 183.3C193.253 182.34 192.26 181.557 191.106 181.081C190.202 180.701 188.798 180.258 187.853 180.718C186.651 181.307 187.636 182.808 188.346 183.324C189.201 183.946 190.25 184.22 191.3 184.18C192.494 184.14 193.656 183.663 194.512 182.816C195.166 182.17 196.174 183.179 195.521 183.825H195.513Z" fill="black"/>
<path d="M191.321 186.173C189.635 187.561 187.778 188.748 185.914 189.877C184.155 190.943 182.29 192.105 180.297 192.694C179.417 192.952 179.038 191.58 179.917 191.322C181.782 190.765 183.541 189.651 185.196 188.651C186.955 187.585 188.723 186.472 190.313 185.164C191.015 184.583 192.032 185.592 191.321 186.173Z" fill="black"/>
<path d="M183.535 193.453C183.535 193.453 181.759 195.124 181.59 195.293C181.42 195.463 177.409 191.25 178.256 190.152C179.104 189.055 180.968 188.732 180.968 188.732C180.968 188.732 184.753 192.8 183.535 193.453Z" fill="black"/>
<path d="M250.973 55.526L249.52 64.4764L207.149 57.6324L208.593 48.7305L250.973 55.526Z" fill="black"/>
<path d="M207.152 57.6323C206.918 59.0608 216.215 61.7484 227.918 63.645C239.62 65.5335 249.289 65.9128 249.523 64.4843C249.757 63.0558 240.46 60.3683 228.757 58.4717C217.055 56.5831 207.386 56.2038 207.152 57.6323Z" fill="black"/>
<path d="M208.715 47.98C208.481 49.4085 217.779 52.096 229.481 53.9926C241.184 55.8812 250.852 56.2605 251.086 54.832C251.321 53.4035 242.023 50.7159 230.321 48.8193C218.618 46.9308 208.949 46.5515 208.715 47.98Z" fill="black"/>
<path d="M233.718 155.005C221.071 149.145 206.705 147.2 192.961 149.5C192.065 149.654 191.677 148.274 192.581 148.128C206.745 145.764 221.41 147.733 234.444 153.77C235.275 154.157 234.549 155.384 233.726 155.005H233.718Z" fill="black"/>
<path d="M231.894 164.568C218.602 160.944 204.946 158.806 191.186 158.192C190.274 158.152 190.266 156.723 191.186 156.764C205.067 157.377 218.868 159.532 232.274 163.188C233.161 163.43 232.782 164.802 231.894 164.56V164.568Z" fill="black"/>
<path d="M249.775 65.3876C235.006 67.4698 219.776 64.7903 206.621 57.7527C205.814 57.3169 206.532 56.0901 207.339 56.5179C220.131 63.3618 235.022 66.0332 249.396 64.0075C250.292 63.8783 250.679 65.2584 249.775 65.3795V65.3876Z" fill="black"/>
<path d="M251.152 55.6619C236.802 55.3713 222.517 53.1277 208.765 49.0035C207.885 48.7372 208.264 47.3652 209.144 47.6315C222.775 51.7234 236.915 53.9509 251.152 54.2414C252.072 54.2576 252.072 55.6861 251.152 55.6699V55.6619Z" fill="black"/>
<path d="M176.54 195.939C170.834 199.555 165.822 204.219 161.819 209.659C161.279 210.394 160.044 209.683 160.585 208.941C164.741 203.291 169.89 198.465 175.814 194.704C176.589 194.212 177.307 195.447 176.532 195.939H176.54Z" fill="black"/>
<path d="M173.617 195.067C168.605 197.448 164.069 200.709 160.219 204.704C159.582 205.365 158.573 204.357 159.211 203.695C163.141 199.619 167.782 196.27 172.899 193.841C173.722 193.445 174.448 194.68 173.617 195.075V195.067Z" fill="black"/>
<g opacity="0.5">
<path d="M229.372 49.3842C230.333 33.7997 237.742 18.8285 249.396 8.46579C250.856 7.16641 252.382 5.93966 253.972 4.8017C255.747 3.52653 257.644 2.28364 259.783 1.71062C261.752 1.18603 263.858 1.41201 265.416 2.81631C266.659 3.93813 267.377 5.56841 267.643 7.20676C268.321 11.3793 265.787 15.1967 263.245 18.2555C260.267 21.8389 257.039 25.2367 253.786 28.5699C246.361 36.1805 238.484 43.3392 230.615 50.4898C229.937 51.1113 230.946 52.1121 231.624 51.4987C239.21 44.6063 246.805 37.7059 253.996 30.3938C257.491 26.8427 260.945 23.219 264.141 19.3935C266.731 16.3024 269.298 12.5818 269.177 8.36087C269.072 4.97118 267.28 1.39587 263.866 0.330535C259.557 -1.01727 255.255 2.03345 252.011 4.49501C245.489 9.45041 240.026 15.7375 235.958 22.8397C231.317 30.9426 228.533 40.0625 227.952 49.3842C227.895 50.3042 229.324 50.2961 229.38 49.3842H229.372Z" fill="#3A1111"/>
<path d="M212.174 155.753C182.626 150.978 162.251 124.966 166.665 97.6542C171.079 70.342 198.61 52.0721 228.158 56.8471C257.705 61.6222 278.08 87.6341 273.666 114.946C269.252 142.259 241.721 160.528 212.174 155.753Z" fill="#F7392F"/>
<g opacity="0.3">
<path d="M213.33 152.083C217.051 129.049 220.772 106.015 224.492 82.9815C225.541 76.4926 226.59 70.0119 227.64 63.523C227.785 62.6191 229.157 63.0065 229.012 63.9024C225.291 86.9361 221.571 109.97 217.85 133.004C216.801 139.492 215.752 145.973 214.702 152.462C214.557 153.366 213.185 152.979 213.33 152.083Z" fill="#4A1434"/>
</g>
<g opacity="0.3">
<path d="M220.877 154.874C229.625 145.44 236.623 134.262 240.593 121.986C244.475 109.977 245.702 96.5233 242.789 84.159C241.15 77.194 238.1 70.689 233.879 64.9265C233.338 64.184 234.573 63.4738 235.113 64.2083C242.869 74.7728 246.17 87.5729 245.734 100.583C245.299 113.593 241.554 126.554 235.057 138.007C231.401 144.455 226.938 150.435 221.894 155.875C221.272 156.553 220.263 155.536 220.885 154.866L220.877 154.874Z" fill="#4A1434"/>
</g>
<g opacity="0.3">
<path d="M229.807 155.86C243.325 148.322 254.955 136.74 260.693 122.181C266.504 107.42 266.069 90.3582 257.457 76.7752C253.131 69.9474 246.989 64.3302 239.637 60.9163C238.806 60.5289 239.532 59.3022 240.355 59.6815C254.003 66.017 263.357 79.7291 265.504 94.4742C267.917 111.043 262.017 127.782 251.251 140.356C245.44 147.144 238.313 152.745 230.525 157.095C229.726 157.539 229 156.312 229.807 155.86Z" fill="#4A1434"/>
</g>
<g opacity="0.3">
<path d="M204.739 156.368C199.816 142.865 197.532 128.322 198.525 113.956C199.388 101.479 202.463 88.6062 208.637 77.6543C211.882 71.8999 216.086 66.7266 221.123 62.4411C221.817 61.8519 222.834 62.8527 222.131 63.4499C213.165 71.0686 207.306 81.3668 203.908 92.5366C199.929 105.627 198.807 119.469 200.51 133.043C201.495 140.872 203.407 148.571 206.111 155.98C206.426 156.844 205.046 157.215 204.739 156.36V156.368Z" fill="#4A1434"/>
</g>
<g opacity="0.3">
<path d="M196.645 155.012C185.605 142.584 178.196 126.692 177.671 109.93C177.163 93.5864 183.216 76.9527 195.919 66.2913C202.392 60.8598 210.236 57.1795 218.654 56.1465C219.566 56.0335 219.558 57.462 218.654 57.575C203.723 59.4151 190.947 69.9958 184.523 83.3205C177.356 98.1786 177.59 115.732 183.458 130.97C186.718 139.444 191.649 147.232 197.662 154.012C198.267 154.698 197.267 155.706 196.653 155.02L196.645 155.012Z" fill="#4A1434"/>
</g>
<path d="M214.926 159.33C214.183 164.293 210.729 168.781 207.582 172.501C204.127 176.585 200.181 180.378 195.806 183.469C195.056 184.002 194.346 182.767 195.088 182.234C199.285 179.273 203.054 175.608 206.387 171.718C209.462 168.119 212.836 163.769 213.554 158.951C213.691 158.047 215.063 158.434 214.926 159.33Z" fill="#3A1111"/>
<path d="M234.797 155.626L233.344 164.584L190.973 157.732L192.41 148.83L234.797 155.626Z" fill="#F7392F"/>
<path d="M190.97 157.732C190.736 159.161 200.034 161.848 211.736 163.745C223.439 165.634 233.107 166.013 233.341 164.584C233.575 163.156 224.278 160.468 212.576 158.572C200.873 156.683 191.204 156.304 190.97 157.732Z" fill="#F7392F"/>
<path d="M192.528 148.088C192.294 149.516 201.591 152.204 213.294 154.1C224.996 155.989 234.665 156.368 234.899 154.94C235.133 153.511 225.836 150.824 214.133 148.927C202.431 147.038 192.762 146.659 192.528 148.088Z" fill="#F7392F"/>
<path d="M182.609 193.485C179.728 196.035 176.629 199.788 174.208 202.775C171.787 205.761 169.833 209.223 169.123 213L165.855 212.403C165.717 210.918 166.662 207.625 167.372 206.309L163.659 211.2L158.76 204.647C160.617 202.056 163.579 200.224 163.579 200.224C163.579 200.224 157.623 201.104 156.614 198.82L156.339 193.461C156.339 193.461 159.535 194.768 166.88 193.267C174.224 191.758 178.501 190.717 180.196 190.095C180.196 190.095 182.343 193.243 182.609 193.485Z" fill="#F7392F"/>
<path d="M195.891 183.364C198.506 183.695 200.903 185.471 201.742 188.013C201.976 188.731 202.009 189.587 201.581 190.241C201.153 190.894 200.419 191.25 199.636 191.072C198.934 190.911 198.336 190.37 197.828 189.886C197.32 189.401 196.9 188.869 196.521 188.296C195.657 186.996 195.157 185.503 195.003 183.962C194.963 183.574 195.358 183.251 195.713 183.251C196.133 183.251 196.391 183.582 196.424 183.962C196.634 186.036 197.715 187.997 199.321 189.313C199.482 189.442 199.66 189.579 199.862 189.652C200.039 189.716 200.168 189.692 200.257 189.611C200.596 189.321 200.491 188.788 200.362 188.392C200.064 187.472 199.426 186.665 198.7 186.052C197.917 185.39 196.9 184.922 195.883 184.793C195.504 184.745 195.173 184.502 195.173 184.083C195.173 183.736 195.504 183.324 195.883 183.373L195.891 183.364Z" fill="#3A1111"/>
<path d="M195.068 183.461C196.844 181.121 199.766 179.571 202.744 179.757C203.518 179.805 204.326 180.015 204.866 180.612C205.407 181.209 205.56 181.984 205.237 182.703C204.64 184.034 202.8 184.68 201.501 185.019C199.774 185.463 197.942 185.439 196.239 184.938C195.359 184.68 195.73 183.308 196.618 183.566C198.087 183.994 199.636 184.026 201.121 183.647C201.711 183.493 204.802 182.517 203.769 181.524C203.276 181.048 202.364 181.145 201.743 181.193C201.041 181.25 200.347 181.419 199.693 181.669C198.369 182.162 197.159 183.05 196.303 184.171C196.069 184.478 195.69 184.639 195.327 184.43C195.028 184.252 194.834 183.76 195.068 183.453V183.461Z" fill="#3A1111"/>
<path d="M195.394 183.946C194.127 183.074 193.134 181.888 192.537 180.475C191.94 179.063 191.649 177.336 192.101 175.835C192.553 174.333 194.062 173.091 195.66 173.728C197.177 174.333 197.839 176.061 197.863 177.586C197.896 179.588 196.968 181.484 196.064 183.219C195.644 184.034 194.409 183.316 194.829 182.501C195.466 181.274 196.088 180.015 196.346 178.651C196.556 177.562 196.467 176.198 195.628 175.383C194.716 174.487 193.691 175.358 193.433 176.375C193.15 177.481 193.368 178.716 193.772 179.765C194.232 180.951 195.063 182.009 196.112 182.727C196.863 183.244 196.152 184.478 195.394 183.962V183.946Z" fill="#3A1111"/>
<path d="M196.174 184.188C196.683 186.988 195.19 190.023 192.502 191.104C191.752 191.403 190.904 191.467 190.162 191.136C189.492 190.838 188.959 190.232 188.862 189.498C188.749 188.659 189.185 187.924 189.669 187.279C190.121 186.681 190.614 186.124 191.154 185.608C192.413 184.413 193.882 183.502 195.488 182.848C195.844 182.703 196.271 183.009 196.368 183.348C196.481 183.76 196.231 184.083 195.868 184.228C194.786 184.664 193.753 185.277 192.849 186.011C191.945 186.746 191.05 187.618 190.468 188.618C190.251 188.998 190.146 189.409 190.525 189.716C190.904 190.023 191.445 189.966 191.889 189.813C192.865 189.49 193.673 188.683 194.181 187.811C194.746 186.843 194.996 185.681 194.794 184.567C194.722 184.188 194.899 183.8 195.295 183.687C195.642 183.59 196.102 183.808 196.174 184.188Z" fill="#3A1111"/>
<path d="M195.513 183.825C193.463 185.867 189.936 186.238 187.571 184.519C186.288 183.591 185.287 181.823 186.264 180.298C187.24 178.773 189.169 179.007 190.622 179.41C192.349 179.886 193.923 180.903 195.044 182.291C195.287 182.59 195.335 183.01 195.044 183.3C194.794 183.55 194.278 183.599 194.036 183.3C193.253 182.34 192.26 181.557 191.106 181.081C190.202 180.701 188.798 180.258 187.853 180.718C186.651 181.307 187.636 182.808 188.346 183.324C189.201 183.946 190.25 184.22 191.3 184.18C192.494 184.14 193.656 183.663 194.512 182.816C195.166 182.17 196.174 183.179 195.521 183.825H195.513Z" fill="#3A1111"/>
<path d="M191.321 186.173C189.635 187.561 187.778 188.748 185.914 189.877C184.155 190.943 182.29 192.105 180.297 192.694C179.417 192.952 179.038 191.58 179.917 191.322C181.782 190.765 183.541 189.651 185.196 188.651C186.955 187.585 188.723 186.472 190.313 185.164C191.015 184.583 192.032 185.592 191.321 186.173Z" fill="#4A1434"/>
<path d="M183.535 193.453C183.535 193.453 181.759 195.124 181.59 195.293C181.42 195.463 177.409 191.25 178.256 190.152C179.104 189.055 180.968 188.732 180.968 188.732C180.968 188.732 184.753 192.8 183.535 193.453Z" fill="#3A1111"/>
<path d="M250.973 55.526L249.52 64.4764L207.149 57.6324L208.593 48.7305L250.973 55.526Z" fill="#F7392F"/>
<path d="M207.152 57.6323C206.918 59.0608 216.215 61.7484 227.918 63.645C239.62 65.5335 249.289 65.9128 249.523 64.4843C249.757 63.0558 240.46 60.3683 228.757 58.4717C217.055 56.5831 207.386 56.2038 207.152 57.6323Z" fill="#F7392F"/>
<path d="M208.715 47.98C208.481 49.4085 217.779 52.096 229.481 53.9926C241.184 55.8812 250.852 56.2605 251.086 54.832C251.321 53.4035 242.023 50.7159 230.321 48.8193C218.618 46.9308 208.949 46.5515 208.715 47.98Z" fill="#F7392F"/>
<path d="M233.718 155.005C221.071 149.145 206.705 147.2 192.961 149.5C192.065 149.654 191.677 148.274 192.581 148.128C206.745 145.764 221.41 147.733 234.444 153.77C235.275 154.157 234.549 155.384 233.726 155.005H233.718Z" fill="#3A1111"/>
<path d="M231.894 164.568C218.602 160.944 204.946 158.806 191.186 158.192C190.274 158.152 190.266 156.723 191.186 156.764C205.067 157.377 218.868 159.532 232.274 163.188C233.161 163.43 232.782 164.802 231.894 164.56V164.568Z" fill="#3A1111"/>
<path d="M249.775 65.3876C235.006 67.4698 219.776 64.7903 206.621 57.7527C205.814 57.3169 206.532 56.0901 207.339 56.5179C220.131 63.3618 235.022 66.0332 249.396 64.0075C250.292 63.8783 250.679 65.2584 249.775 65.3795V65.3876Z" fill="#3A1111"/>
<path d="M251.152 55.6619C236.802 55.3713 222.517 53.1277 208.765 49.0035C207.885 48.7372 208.264 47.3652 209.144 47.6315C222.775 51.7234 236.915 53.9509 251.152 54.2414C252.072 54.2576 252.072 55.6861 251.152 55.6699V55.6619Z" fill="#3A1111"/>
<path d="M176.54 195.939C170.834 199.555 165.822 204.219 161.819 209.659C161.279 210.394 160.044 209.683 160.585 208.941C164.741 203.291 169.89 198.465 175.814 194.704C176.589 194.212 177.307 195.447 176.532 195.939H176.54Z" fill="#3A1111"/>
<path d="M173.617 195.067C168.605 197.448 164.069 200.709 160.219 204.704C159.582 205.365 158.573 204.357 159.211 203.695C163.141 199.619 167.782 196.27 172.899 193.841C173.722 193.445 174.448 194.68 173.617 195.075V195.067Z" fill="#3A1111"/>
</g>
</svg>
