<svg width="39" height="30" viewBox="0 0 39 30" fill="none" xmlns="http://www.w3.org/2000/svg">
<path d="M14.6513 29.0882L11.2741 28.3219L13.5275 25.6905L15.5264 25.7284L19.4731 27.844L14.6513 29.0882Z" fill="url(#paint0_linear_455_6)"/>
<path d="M6.82001 27.2542L11.2779 28.3225L13.5313 25.6911L9.84641 25.621L6.82001 27.2542Z" fill="url(#paint1_linear_455_6)"/>
<path d="M0 21.9455L9.84494 25.6212L6.81853 27.2544L0 21.9455Z" fill="url(#paint2_linear_455_6)"/>
<path d="M8.0342 21.7115L5.64735 21.2678L0 21.945L9.84494 25.6207L15.5287 25.7287L8.0342 21.7115Z" fill="url(#paint3_linear_455_6)"/>
<path d="M19.5016 15.4649V27.8457L13.416 22.3332L19.5016 15.4649Z" fill="#8E1F20"/>
<path d="M19.496 8.72107V15.4639L13.4104 22.3322L13.2099 21.8302L15.4181 14.4342L19.496 8.72107Z" fill="#D02D30"/>
<path d="M15.426 14.435L11.9752 9.95221L9.3652 16.6578L13.2179 21.831L15.426 14.435Z" fill="#AB2528"/>
<path d="M8.10156 4.02502L11.9666 9.95199L9.35661 16.6576L8.80456 15.8914L8.10156 4.02502Z" fill="#F7392F"/>
<path d="M2.03436 7.61651L8.3993 8.94537L8.63703 12.967L2.03436 7.61651Z" fill="url(#paint4_linear_455_6)"/>
<path d="M4.84272 16.053L13.4115 22.3346L13.2109 21.8318L9.36046 16.6572L8.80768 15.891L8.63558 12.9669L2.03436 7.61427L4.84272 16.053Z" fill="#D02D30"/>
<path d="M19.5049 27.8457L6.12823 20.676L4.84839 16.0553L13.4193 22.3332L19.5049 27.8457Z" fill="#AB2528"/>
<path d="M8.10156 4.02502L14.6583 8.38231L17.9326 10.9116L15.4174 14.4348L11.9666 9.95199L8.10156 4.02502Z" fill="#FC5A3E"/>
<path d="M19.5043 8.72199V5.28417L15.1725 8.77307L17.9415 10.9119L19.5043 8.72199Z" fill="#AB2528"/>
<path d="M14.6617 8.38182L15.1671 8.77223L19.4988 5.28333V0L14.6617 8.38182Z" fill="#F7392F"/>
<path d="M24.3485 29.0882L27.7256 28.3219L25.4722 25.6905L23.4734 25.7284L19.5259 27.844L24.3485 29.0882Z" fill="url(#paint5_linear_455_6)"/>
<path d="M32.179 27.2542L27.7211 28.3225L25.4677 25.6911L29.1526 25.621L32.179 27.2542Z" fill="url(#paint6_linear_455_6)"/>
<path d="M38.9959 21.9455L29.151 25.6212L32.1774 27.2544L38.9959 21.9455Z" fill="url(#paint7_linear_455_6)"/>
<path d="M30.9637 21.7115L33.3505 21.2678L38.9979 21.945L29.153 25.6207L23.4691 25.7287L30.9637 21.7115Z" fill="url(#paint8_linear_455_6)"/>
<path d="M19.5023 15.4649V27.8457L25.5886 22.3332L19.5023 15.4649Z" fill="#8E1F20"/>
<path d="M19.5023 8.72107V15.4639L25.5886 22.3322L25.7892 21.8302L23.581 14.4342L19.5023 8.72107Z" fill="#D02D30"/>
<path d="M23.5799 14.435L27.0308 9.95221L29.6408 16.6578L25.7881 21.831L23.5799 14.435Z" fill="#AB2528"/>
<path d="M30.8953 4.02502L27.0303 9.95199L29.6403 16.6576L30.1923 15.8914L30.8953 4.02502Z" fill="#F7392F"/>
<path d="M36.9668 7.61651L30.6018 8.94537L30.3641 12.967L36.9668 7.61651Z" fill="url(#paint9_linear_455_6)"/>
<path d="M34.1561 16.053L25.5874 22.3346L25.7879 21.8318L29.6384 16.6572L30.1912 15.891L30.3633 12.9669L36.9645 7.61427L34.1561 16.053Z" fill="#D02D30"/>
<path d="M19.5023 27.8457L32.8797 20.676L34.1595 16.0553L25.5886 22.3332L19.5023 27.8457Z" fill="#AB2528"/>
<path d="M30.8927 4.02502L24.336 8.38231L21.0616 10.9116L23.5768 14.4348L27.0276 9.95199L30.8927 4.02502Z" fill="#FC5A3E"/>
<path d="M19.5023 8.72199V5.28417L23.8348 8.77307L21.0658 10.9119L19.5023 8.72199Z" fill="#AB2528"/>
<path d="M24.3401 8.38182L23.8348 8.77223L19.5023 5.28333V0L24.3401 8.38182Z" fill="#F7392F"/>
<defs>
<linearGradient id="paint0_linear_455_6" x1="19.4738" y1="27.3893" x2="11.2741" y2="27.3893" gradientUnits="userSpaceOnUse">
<stop offset="0.04" stop-color="#681E16"/>
<stop offset="0.57" stop-color="#741E13"/>
<stop offset="0.97" stop-color="#821E11"/>
</linearGradient>
<linearGradient id="paint1_linear_455_6" x1="10.9972" y1="25.4313" x2="9.02876" y2="27.9243" gradientUnits="userSpaceOnUse">
<stop offset="0.26" stop-color="#A52E1E"/>
<stop offset="0.5" stop-color="#AA2F1F"/>
<stop offset="0.79" stop-color="#B93422"/>
<stop offset="1" stop-color="#C93A25"/>
</linearGradient>
<linearGradient id="paint2_linear_455_6" x1="9.14923" y1="26.5998" x2="-0.149382" y2="23.3644" gradientUnits="userSpaceOnUse">
<stop offset="0.19" stop-color="#7B1E18"/>
<stop offset="0.42" stop-color="#7F1F18"/>
<stop offset="0.67" stop-color="#8C241A"/>
<stop offset="0.92" stop-color="#A12D1D"/>
<stop offset="0.97" stop-color="#A62F1E"/>
</linearGradient>
<linearGradient id="paint3_linear_455_6" x1="14.3895" y1="24.8952" x2="0.476432" y2="21.7623" gradientUnits="userSpaceOnUse">
<stop stop-color="#571C12"/>
<stop offset="0.26" stop-color="#5B1C11"/>
<stop offset="0.55" stop-color="#681C11"/>
<stop offset="0.84" stop-color="#7D1C10"/>
<stop offset="1" stop-color="#8D1C10"/>
</linearGradient>
<linearGradient id="paint4_linear_455_6" x1="8.63703" y1="10.2917" x2="2.03436" y2="10.2917" gradientUnits="userSpaceOnUse">
<stop offset="0.04" stop-color="#651F16"/>
<stop offset="0.88" stop-color="#A21910"/>
</linearGradient>
<linearGradient id="paint5_linear_455_6" x1="19.5259" y1="27.3893" x2="27.7256" y2="27.3893" gradientUnits="userSpaceOnUse">
<stop offset="0.04" stop-color="#681E16"/>
<stop offset="0.57" stop-color="#741E13"/>
<stop offset="0.97" stop-color="#821E11"/>
</linearGradient>
<linearGradient id="paint6_linear_455_6" x1="28.0025" y1="25.4313" x2="29.971" y2="27.9243" gradientUnits="userSpaceOnUse">
<stop offset="0.26" stop-color="#A52E1E"/>
<stop offset="0.5" stop-color="#AA2F1F"/>
<stop offset="0.79" stop-color="#B93422"/>
<stop offset="1" stop-color="#C93A25"/>
</linearGradient>
<linearGradient id="paint7_linear_455_6" x1="29.8474" y1="26.5998" x2="39.1453" y2="23.3644" gradientUnits="userSpaceOnUse">
<stop offset="0.19" stop-color="#7B1E18"/>
<stop offset="0.42" stop-color="#7F1F18"/>
<stop offset="0.67" stop-color="#8C241A"/>
<stop offset="0.92" stop-color="#A12D1D"/>
<stop offset="0.97" stop-color="#A62F1E"/>
</linearGradient>
<linearGradient id="paint8_linear_455_6" x1="24.6074" y1="24.895" x2="38.5212" y2="21.7629" gradientUnits="userSpaceOnUse">
<stop stop-color="#571C12"/>
<stop offset="0.26" stop-color="#5B1C11"/>
<stop offset="0.55" stop-color="#681C11"/>
<stop offset="0.84" stop-color="#7D1C10"/>
<stop offset="1" stop-color="#8D1C10"/>
</linearGradient>
<linearGradient id="paint9_linear_455_6" x1="30.3641" y1="10.2917" x2="36.9675" y2="10.2917" gradientUnits="userSpaceOnUse">
<stop offset="0.04" stop-color="#651F16"/>
<stop offset="0.88" stop-color="#A21910"/>
</linearGradient>
</defs>
</svg>
