<svg width="170" height="160" viewBox="0 0 170 160" fill="none" xmlns="http://www.w3.org/2000/svg">
<path d="M66.4237 111.311L53.5004 108.379L62.1234 98.3093L69.7725 98.4545L84.8753 106.55L66.4237 111.311Z" fill="url(#paint0_linear_455_44)"/>
<path d="M36.4444 104.29L53.5034 108.378L62.1265 98.3085L48.0255 98.0404L36.4444 104.29Z" fill="url(#paint1_linear_455_44)"/>
<path d="M10.3484 83.9749L48.0218 98.0406L36.4407 104.29L10.3484 83.9749Z" fill="url(#paint2_linear_455_44)"/>
<path d="M41.0927 83.0817L31.959 81.3839L10.3484 83.9753L48.0218 98.0411L69.7719 98.4544L41.0927 83.0817Z" fill="url(#paint3_linear_455_44)"/>
<path d="M84.9671 59.1761V106.553L61.6794 85.459L84.9671 59.1761Z" fill="#8E1F20"/>
<path d="M84.9691 33.3737V59.1762L61.6814 85.4591L60.9139 83.5379L69.3639 55.236L84.9691 33.3737Z" fill="#D02D30"/>
<path d="M69.3677 55.2354L56.1625 38.0811L46.1749 63.7413L60.9177 83.5372L69.3677 55.2354Z" fill="#AB2528"/>
<path d="M41.3653 15.4011L56.1556 38.0816L46.1679 63.7418L44.0555 60.8096L41.3653 15.4011Z" fill="#F7392F"/>
<path d="M18.1241 29.1433L42.4806 34.2284L43.3903 49.6178L18.1241 29.1433Z" fill="url(#paint4_linear_455_44)"/>
<path d="M28.8914 61.4291L61.6811 85.4668L60.9137 83.5428L46.1793 63.7413L44.064 60.8092L43.4054 49.6197L18.1447 29.1368L28.8914 61.4291Z" fill="#D02D30"/>
<path d="M84.9772 106.553L33.7889 79.1169L28.8914 61.4348L61.6895 85.4586L84.9772 106.553Z" fill="#AB2528"/>
<path d="M41.3653 15.4011L66.4557 32.075L78.9856 41.7537L69.3608 55.2359L56.1556 38.0816L41.3653 15.4011Z" fill="#FC5A3E"/>
<path d="M84.9684 33.3725V20.2171L68.3921 33.568L78.9881 41.7528L84.9684 33.3725Z" fill="#AB2528"/>
<path d="M66.4579 32.0745L68.3918 33.5685L84.9681 20.2176V0L66.4579 32.0745Z" fill="#F7392F"/>
<path d="M103.524 111.311L116.448 108.379L107.825 98.3093L100.175 98.4545L85.0699 106.55L103.524 111.311Z" fill="url(#paint5_linear_455_44)"/>
<path d="M133.517 104.29L116.458 108.378L107.835 98.3085L121.936 98.0404L133.517 104.29Z" fill="url(#paint6_linear_455_44)"/>
<path d="M159.596 83.9749L121.923 98.0406L133.504 104.29L159.596 83.9749Z" fill="url(#paint7_linear_455_44)"/>
<path d="M128.861 83.0817L137.994 81.3839L159.605 83.9753L121.931 98.0411L100.181 98.4544L128.861 83.0817Z" fill="url(#paint8_linear_455_44)"/>
<path d="M84.9736 59.1761V106.553L108.264 85.459L84.9736 59.1761Z" fill="#8E1F20"/>
<path d="M84.9736 33.3737V59.1762L108.264 85.4591L109.032 83.5379L100.582 55.236L84.9736 33.3737Z" fill="#D02D30"/>
<path d="M100.582 55.2354L113.787 38.0811L123.774 63.7413L109.032 83.5372L100.582 55.2354Z" fill="#AB2528"/>
<path d="M128.57 15.4011L113.78 38.0816L123.767 63.7418L125.88 60.8096L128.57 15.4011Z" fill="#F7392F"/>
<path d="M151.809 29.1433L127.453 34.2284L126.543 49.6178L151.809 29.1433Z" fill="url(#paint9_linear_455_44)"/>
<path d="M141.056 61.4291L108.267 85.4668L109.034 83.5428L123.768 63.7413L125.884 60.8092L126.542 49.6197L151.803 29.1368L141.056 61.4291Z" fill="#D02D30"/>
<path d="M84.9736 106.553L136.165 79.1169L141.062 61.4348L108.264 85.4586L84.9736 106.553Z" fill="#AB2528"/>
<path d="M128.572 15.4011L103.482 32.075L90.952 41.7537L100.577 55.2359L113.782 38.0816L128.572 15.4011Z" fill="#FC5A3E"/>
<path d="M84.9736 33.3725V20.2171L101.553 33.568L90.9567 41.7528L84.9736 33.3725Z" fill="#AB2528"/>
<path d="M103.487 32.0745L101.553 33.5685L84.9736 20.2176V0L103.487 32.0745Z" fill="#F7392F"/>
<path d="M11.9879 146.178C12.9099 147.263 10.2524 149.921 7.24242 149.921C5.10017 149.921 2.46983 148.863 2.46983 145.338V139.101C2.46983 138.911 2.44271 138.775 2.14442 138.775H1.43938C0.951275 138.775 0.408936 138.45 0.408936 137.609C0.408936 136.769 0.951275 136.443 1.43938 136.443C6.29332 136.443 4.88324 132.674 6.48314 132.674H6.91701C7.62205 132.674 7.75764 133.162 7.75764 133.732V136.118C7.75764 136.308 7.81187 136.443 8.08304 136.443H10.632C11.093 136.443 11.6625 136.769 11.6625 137.609C11.6625 138.45 11.093 138.775 10.632 138.775H8.08304C7.81187 138.775 7.75764 138.911 7.75764 139.101V144.877C7.75764 146.694 9.46601 146.829 10.7405 146.124C11.2015 145.88 11.6896 145.826 11.9879 146.178ZM28.8095 147.86C29.3519 148.592 29.5146 148.673 29.4875 149.026C29.4603 149.46 29.162 149.649 28.5384 149.649C28.5112 149.649 23.0607 149.649 23.0336 149.649C22.4099 149.649 22.1387 149.46 22.0845 149.026C22.0574 148.673 22.2201 148.592 22.7624 147.86C23.115 147.344 23.1421 146.992 23.1421 145.907V142.816C23.1421 140.945 23.359 138.559 21.5422 138.559C20.3219 138.559 19.3728 139.48 19.3728 141.135V145.907C19.3728 146.992 19.3999 147.344 19.7525 147.86C20.2677 148.592 20.4304 148.673 20.4304 149.026C20.3761 149.46 20.105 149.649 19.4813 149.649C19.4542 149.649 13.9765 149.649 13.9765 149.649C13.3528 149.649 13.0546 149.46 13.0274 149.026C13.0003 148.673 13.163 148.592 13.6783 147.86C14.0579 147.344 14.0579 146.992 14.0579 145.907V136.443C14.0579 135.359 14.0579 134.22 13.6783 133.677C13.163 132.972 13.0003 132.891 13.0274 132.511C13.0817 132.023 13.4342 131.888 14.0579 131.671C15.0612 131.318 17.7187 130.532 17.7187 130.532C19.3999 130.044 19.3728 130.884 19.3728 131.969V137.474C19.3728 137.637 19.5626 137.718 19.6711 137.609C20.5931 136.823 21.9489 136.172 23.4946 136.172C27.0469 136.172 28.4299 138.531 28.4299 140.619C28.4299 141.08 28.4299 145.907 28.4299 145.907C28.4299 146.992 28.457 147.344 28.8095 147.86ZM43.3555 145.311C44.3046 146.07 42.4064 149.921 37.9049 149.921C34.4069 149.921 30.2037 147.616 30.2037 143.087C30.2037 139.209 33.4035 136.172 37.3897 136.172C41.3759 136.172 43.4368 138.83 43.4639 140.701C43.4639 142.138 42.3792 142.653 40.7251 143.06C39.8031 143.277 36.3593 143.982 36.3593 143.982C35.9525 144.036 35.9525 144.416 36.1152 144.768C36.766 146.043 37.7694 146.612 39.2066 146.612C40.3184 146.612 41.2946 145.961 41.8369 145.528C42.5691 144.931 43.0572 145.039 43.3555 145.311ZM35.2204 141.487C35.2475 141.84 35.5729 142.057 35.8983 141.975L38.0948 141.46C38.7998 141.324 38.9354 140.836 38.8812 140.538C38.6642 139.291 37.8778 138.07 36.6033 138.26C35.6814 138.396 34.9492 139.209 35.2204 141.487ZM61.0313 136.172C63.7972 136.172 64.7734 139.372 64.0955 141.08C63.6074 142.409 61.2211 143.06 60.0008 141.053C59.2687 139.833 59.106 138.884 58.4009 138.884C57.3434 138.884 57.5061 140.077 57.5061 143.168V145.907C57.5061 146.992 57.5332 147.317 57.8857 147.86C58.4009 148.592 58.5636 148.673 58.5636 149.026C58.5094 149.46 58.2382 149.649 57.6145 149.649C57.5874 149.649 52.1369 149.649 52.1098 149.649C51.4861 149.649 51.1878 149.46 51.1607 149.026C51.1336 148.673 51.2963 148.592 51.8115 147.86C52.1911 147.317 52.1911 146.992 52.1911 145.907V142.246C52.1911 141.162 52.1911 139.996 51.8115 139.48C51.2963 138.748 51.1336 138.667 51.1607 138.314C51.2149 137.799 51.5946 137.691 52.1911 137.447C53.1945 137.094 55.8519 136.335 55.8519 136.335C57.3434 135.901 57.479 136.47 57.5061 137.474C57.5061 137.637 57.6959 137.718 57.8044 137.609C58.7263 136.823 59.4856 136.172 61.0313 136.172ZM77.7548 145.311C78.7039 146.07 76.8057 149.921 72.3043 149.921C68.8062 149.921 64.6031 147.616 64.6031 143.087C64.6031 139.209 67.8029 136.172 71.7891 136.172C75.7753 136.172 77.8362 138.83 77.8633 140.701C77.8633 142.138 76.7786 142.653 75.1245 143.06C74.2025 143.277 70.7587 143.982 70.7587 143.982C70.3519 144.036 70.3519 144.416 70.5146 144.768C71.1654 146.043 72.1687 146.612 73.6059 146.612C74.7177 146.612 75.6939 145.961 76.2363 145.528C76.9684 144.931 77.4565 145.039 77.7548 145.311ZM69.6197 141.487C69.6469 141.84 69.9723 142.057 70.2977 141.975L72.4941 141.46C73.1992 141.324 73.3348 140.836 73.2805 140.538C73.0636 139.291 72.2772 138.07 71.0027 138.26C70.0807 138.396 69.3486 139.209 69.6197 141.487ZM94.1757 145.907C94.1757 146.992 94.2028 147.344 94.5553 147.86C95.0976 148.592 95.2603 148.673 95.2332 149.026C95.179 149.46 94.9078 149.649 94.2841 149.649H90.1081C89.3488 149.649 89.2404 149.378 89.2132 148.619C89.2132 148.538 89.1048 148.483 89.0505 148.538C88.6167 148.971 87.3964 149.921 85.4711 149.921C81.1595 149.921 78.5292 146.721 78.5292 143.033C78.5292 139.372 81.4307 135.63 85.905 136.254C86.7456 136.362 87.7489 136.796 88.454 137.392C88.6167 137.528 88.8878 137.582 88.8878 137.203V135.63C88.8878 134.545 88.8607 134.22 88.5082 133.677C87.9659 132.972 87.8032 132.891 87.8303 132.511C87.8845 132.023 88.2641 131.888 88.8878 131.671C89.8641 131.318 92.5486 130.532 92.5486 130.532C94.2028 130.044 94.1757 130.884 94.1757 131.969V145.907ZM86.9354 147.833C88.3455 147.643 89.159 145.311 88.7794 142.68C88.4269 140.077 86.9625 138.07 85.5525 138.26C84.1424 138.477 83.3017 140.809 83.6814 143.412C84.061 146.043 85.5253 148.049 86.9354 147.833ZM116.676 137.176C116.026 137.203 115.022 137.094 114.236 137.148C114.127 137.176 114.1 137.284 114.182 137.338C115.998 138.396 117.192 140.158 117.192 142.111C117.192 145.365 113.829 148.022 109.924 148.022C109.463 148.022 109.029 147.995 108.596 147.914C106.996 147.697 106.426 148.836 106.996 149.27C107.592 149.758 111.063 149.134 112.446 148.944C115.483 148.51 117.49 149.08 118.005 150.87C118.385 152.28 118.005 155.534 111.633 155.534C110.765 155.534 110.873 154.612 111.578 154.585C115.483 154.368 115.998 153.527 115.836 152.958C115.673 152.415 114.507 152.307 110.738 152.931C108.921 153.229 102.657 154.097 102.657 150.598C102.657 149.297 104.04 147.833 105.965 147.29C106.074 147.263 106.074 147.1 105.992 147.046C104.013 145.989 102.657 144.172 102.657 142.111C102.657 138.83 106.019 136.172 109.924 136.172C110.656 136.172 111.389 136.281 112.067 136.443C112.744 136.606 112.744 136.416 112.907 136.172C113.26 135.657 113.666 135.169 114.127 134.735C115.456 133.515 117.273 133.244 118.114 134.627C118.737 135.657 118.385 137.094 116.676 137.176ZM110.521 145.772C111.687 145.609 112.365 143.819 112.067 141.813C111.741 139.806 110.521 138.287 109.355 138.423C108.162 138.586 107.484 140.375 107.782 142.382C108.107 144.389 109.328 145.934 110.521 145.772ZM133.826 147.86C134.341 148.592 134.504 148.673 134.477 149.026C134.45 149.46 134.233 149.595 133.528 149.649C133.528 149.649 130.247 149.921 129.243 149.921C128.403 149.921 128.186 149.432 128.131 148.619C128.131 148.402 128.023 148.348 127.833 148.51C126.911 149.297 125.528 149.921 124.01 149.921C120.457 149.921 119.074 147.561 119.074 145.473C119.074 145.311 119.074 142.246 119.074 142.246C119.074 141.162 119.047 139.996 118.695 139.48C118.152 138.748 117.99 138.667 118.017 138.314C118.071 137.799 118.451 137.691 119.074 137.447C120.051 137.094 122.735 136.335 122.735 136.335C124.416 135.82 124.362 136.687 124.362 137.772V143.575C124.362 145.392 124.227 147.643 125.962 147.643C127.182 147.643 128.131 146.612 128.131 144.985V142.246C128.131 141.162 128.104 139.996 127.752 139.48C127.237 138.748 127.074 138.667 127.074 138.314C127.128 137.799 127.508 137.691 128.131 137.447C129.135 137.094 131.792 136.335 131.792 136.335C133.473 135.82 133.446 136.687 133.446 137.772C133.446 137.772 133.446 145.121 133.446 145.961C133.446 146.992 133.473 147.344 133.826 147.86ZM142.335 147.86C142.877 148.592 143.04 148.673 143.013 149.026C142.959 149.46 142.688 149.649 142.064 149.649C142.037 149.649 136.586 149.649 136.559 149.649C135.935 149.649 135.637 149.46 135.61 149.026C135.583 148.673 135.746 148.592 136.261 147.86C136.64 147.344 136.668 146.992 136.668 145.907V142.246C136.668 141.162 136.64 139.996 136.261 139.48C135.746 138.748 135.583 138.667 135.61 138.314C135.664 137.799 136.044 137.691 136.668 137.447C137.644 137.094 140.301 136.335 140.301 136.335C141.982 135.82 141.955 136.687 141.955 137.772V145.907C141.955 146.992 141.982 147.344 142.335 147.86ZM139.135 135.223C137.318 135.223 135.854 134.057 135.854 132.647C135.854 131.21 137.318 130.071 139.135 130.071C140.952 130.071 142.443 131.21 142.443 132.647C142.443 134.057 140.952 135.223 139.135 135.223ZM150.888 147.86C151.404 148.592 151.566 148.673 151.566 149.026C151.512 149.46 151.241 149.649 150.617 149.649C150.59 149.649 145.113 149.649 145.113 149.649C144.489 149.649 144.191 149.46 144.163 149.026C144.136 148.673 144.299 148.592 144.814 147.86C145.194 147.344 145.194 146.992 145.194 145.907V136.443C145.194 136.443 145.194 134.22 144.814 133.677C144.299 132.972 144.136 132.891 144.163 132.511C144.218 132.023 144.57 131.888 145.194 131.671C146.197 131.318 148.855 130.532 148.855 130.532C150.536 130.044 150.509 130.884 150.509 131.969V145.907C150.509 146.992 150.536 147.344 150.888 147.86ZM167.768 145.907C167.768 146.992 167.795 147.344 168.147 147.86C168.69 148.592 168.852 148.673 168.825 149.026C168.771 149.46 168.5 149.649 167.876 149.649H163.7C162.941 149.649 162.832 149.378 162.805 148.619C162.805 148.538 162.697 148.483 162.642 148.538C162.209 148.971 160.988 149.921 159.063 149.921C154.751 149.921 152.121 146.721 152.121 143.033C152.121 139.372 155.023 135.63 159.497 136.254C160.337 136.362 161.341 136.796 162.046 137.392C162.209 137.528 162.48 137.582 162.48 137.203V135.63C162.48 134.545 162.453 134.22 162.1 133.677C161.558 132.972 161.395 132.891 161.422 132.511C161.476 132.023 161.856 131.888 162.48 131.671C163.456 131.318 166.141 130.532 166.141 130.532C167.795 130.044 167.768 130.884 167.768 131.969V145.907ZM160.527 147.833C161.937 147.643 162.751 145.311 162.371 142.68C162.019 140.077 160.554 138.07 159.144 138.26C157.734 138.477 156.894 140.809 157.273 143.412C157.653 146.043 159.117 148.049 160.527 147.833Z" fill="white"/>
<defs>
<linearGradient id="paint0_linear_455_44" x1="84.8781" y1="104.81" x2="53.5004" y2="104.81" gradientUnits="userSpaceOnUse">
<stop offset="0.04" stop-color="#681E16"/>
<stop offset="0.57" stop-color="#741E13"/>
<stop offset="0.97" stop-color="#821E11"/>
</linearGradient>
<linearGradient id="paint1_linear_455_44" x1="52.4291" y1="97.3143" x2="44.8966" y2="106.854" gradientUnits="userSpaceOnUse">
<stop offset="0.26" stop-color="#A52E1E"/>
<stop offset="0.5" stop-color="#AA2F1F"/>
<stop offset="0.79" stop-color="#B93422"/>
<stop offset="1" stop-color="#C93A25"/>
</linearGradient>
<linearGradient id="paint2_linear_455_44" x1="45.3595" y1="101.785" x2="9.77681" y2="89.4043" gradientUnits="userSpaceOnUse">
<stop offset="0.19" stop-color="#7B1E18"/>
<stop offset="0.42" stop-color="#7F1F18"/>
<stop offset="0.67" stop-color="#8C241A"/>
<stop offset="0.92" stop-color="#A12D1D"/>
<stop offset="0.97" stop-color="#A62F1E"/>
</linearGradient>
<linearGradient id="paint3_linear_455_44" x1="65.4123" y1="95.2647" x2="12.1716" y2="83.2762" gradientUnits="userSpaceOnUse">
<stop stop-color="#571C12"/>
<stop offset="0.26" stop-color="#5B1C11"/>
<stop offset="0.55" stop-color="#681C11"/>
<stop offset="0.84" stop-color="#7D1C10"/>
<stop offset="1" stop-color="#8D1C10"/>
</linearGradient>
<linearGradient id="paint4_linear_455_44" x1="43.3903" y1="39.3806" x2="18.1241" y2="39.3806" gradientUnits="userSpaceOnUse">
<stop offset="0.04" stop-color="#651F16"/>
<stop offset="0.88" stop-color="#A21910"/>
</linearGradient>
<linearGradient id="paint5_linear_455_44" x1="85.0699" y1="104.81" x2="116.448" y2="104.81" gradientUnits="userSpaceOnUse">
<stop offset="0.04" stop-color="#681E16"/>
<stop offset="0.57" stop-color="#741E13"/>
<stop offset="0.97" stop-color="#821E11"/>
</linearGradient>
<linearGradient id="paint6_linear_455_44" x1="117.536" y1="97.3143" x2="125.068" y2="106.854" gradientUnits="userSpaceOnUse">
<stop offset="0.26" stop-color="#A52E1E"/>
<stop offset="0.5" stop-color="#AA2F1F"/>
<stop offset="0.79" stop-color="#B93422"/>
<stop offset="1" stop-color="#C93A25"/>
</linearGradient>
<linearGradient id="paint7_linear_455_44" x1="124.588" y1="101.785" x2="160.168" y2="89.4043" gradientUnits="userSpaceOnUse">
<stop offset="0.19" stop-color="#7B1E18"/>
<stop offset="0.42" stop-color="#7F1F18"/>
<stop offset="0.67" stop-color="#8C241A"/>
<stop offset="0.92" stop-color="#A12D1D"/>
<stop offset="0.97" stop-color="#A62F1E"/>
</linearGradient>
<linearGradient id="paint8_linear_455_44" x1="104.537" y1="95.2642" x2="157.78" y2="83.2785" gradientUnits="userSpaceOnUse">
<stop stop-color="#571C12"/>
<stop offset="0.26" stop-color="#5B1C11"/>
<stop offset="0.55" stop-color="#681C11"/>
<stop offset="0.84" stop-color="#7D1C10"/>
<stop offset="1" stop-color="#8D1C10"/>
</linearGradient>
<linearGradient id="paint9_linear_455_44" x1="126.543" y1="39.3806" x2="151.812" y2="39.3806" gradientUnits="userSpaceOnUse">
<stop offset="0.04" stop-color="#651F16"/>
<stop offset="0.88" stop-color="#A21910"/>
</linearGradient>
</defs>
</svg>
