<svg width="359" height="316" viewBox="0 0 359 316" fill="none" xmlns="http://www.w3.org/2000/svg">
<g opacity="0.07">
<path d="M-148.17 147.32C-137.67 145.78 -128.07 142.55 -119.38 136.28C-111.72 130.75 -103.01 129.89 -94.0299 133.26C-86.9899 135.9 -79.8599 136.52 -71.9999 133.87C-74.7099 131.58 -76.5399 129.07 -77.4699 125.91C-79.7099 118.33 -76.8899 110.73 -69.9499 107.15C-64.0399 104.11 -57.8199 101.84 -51.0399 101.7C-48.6999 101.65 -47.7199 100.77 -46.9799 98.29C-43.1399 85.3 -29.6099 79.22 -17.0299 84.22C-13.1599 85.76 -8.94992 86.79 -4.80992 87.19C-0.919922 87.56 2.13007 86.26 3.12007 81.32C5.28008 70.53 13.1401 65.06 23.1701 62.53C26.5501 61.68 28.9001 60.42 30.8401 57.43C34.4801 51.81 39.8501 48.16 46.1601 45.98C62.8601 40.21 81.4401 42.17 93.4801 56.47C95.0801 58.37 96.1801 58.63 98.5301 57.48C109.19 52.29 119.68 52.63 129.4 59.83C131.65 61.5 132.74 61.41 134.78 59.52C158.85 37.15 201.76 44.14 214.34 71.62C215.16 73.4 215.93 74.14 218.17 73.56C245.01 66.6 265.47 91.11 264.73 111.32C264.42 119.82 264.84 119.76 273.36 120.13C283.4 120.57 291.2 125.56 297.44 133C299.46 135.4 301.07 136.59 304.21 135.45C309.95 133.37 314.92 134.84 319.09 139.27C320.02 140.26 321.26 140.96 322.18 141.95C326.36 146.43 330.98 148.03 336.88 145.11C338.27 144.42 340.52 142.97 342.07 144.73C343.73 146.61 341.33 148.06 340.75 149.67C339.81 152.3 338.11 154.72 335.74 156.01C328.29 160.06 322.06 165.79 315.05 170.38C306.77 175.79 297.59 175.75 288.51 172.11C280.12 168.74 272.8 170.42 266.33 176.43C263.46 179.1 260.63 181.86 258.07 184.82C250.8 193.24 241.46 196.63 230.59 197.18C217.07 197.87 204.36 195.76 193.08 187.85C191.34 186.63 190.09 187.18 188.45 187.87C183.27 190.03 177.96 191.91 172.79 194.11C171 194.87 167.4 194.33 168 197.24C168.53 199.84 170.52 202.41 173.99 202.73C178.58 203.15 183.16 203.65 187.71 204.34C191.25 204.87 194.83 205.54 197.93 207.44C202.96 210.52 207.97 213.92 207.66 220.72C207.38 226.83 201.19 233.19 194.57 234.99C190.07 236.22 185.5 236.45 180.86 236.3C178.48 236.23 175.34 236.15 174.7 238.73C174.09 241.19 176.72 243.1 178.83 244.01C188.74 248.3 199.21 250.05 206.27 239.55C208.28 236.57 210.97 234.09 213.99 232.11C226.41 223.95 237.01 224.28 249.72 236.13C252.94 239.13 255.5 240.17 260.23 239.52C268.54 238.37 277.18 237.76 285.54 240.47C284.92 241.9 283.7 242.03 282.53 242.17C277.78 242.74 273.47 244.8 270.16 247.9C261.34 256.15 251.23 259.47 239.59 256.5C231.26 254.38 225.43 258.18 219.06 262.54C204.46 272.53 188.33 275.79 172.2 267.51C166.04 264.35 160.67 263.27 154.08 263.22C143.03 263.13 136.52 255.74 132.14 246.49C130.38 242.77 129.12 241.77 124.82 243.51C112.69 248.44 100.16 244.4 93.4201 233.93C92.3301 232.23 91.3401 232.12 89.7301 232.24C81.8901 232.84 74.7501 231.36 69.4401 224.95C68.3901 223.68 67.0301 223.95 65.7101 223.74C58.6401 222.66 52.0201 220.48 47.3201 214.71C38.6101 204.03 42.9301 190.57 56.2101 187.06C58.4101 186.48 59.9201 186.34 59.5901 183.37C58.0501 169.56 70.6901 160.04 85.0401 165.94C89.2701 167.68 92.5701 167.95 96.3401 165.34C98.7301 163.69 101.66 163.25 104.64 163.13C105.95 163.08 109.13 164.86 108.32 161.15C107.89 159.2 108.72 156.1 104.14 156.75C93.4401 158.25 83.4401 155.74 74.7901 148.95C73.5901 148.01 72.6401 147.9 71.1201 148.19C62.1001 149.93 53.1201 150.23 44.6801 145.72C40.2401 143.35 38.5801 146.28 36.8401 149.45C30.4101 161.24 20.1901 166.01 7.11008 165.41C1.77008 165.16 -2.76993 162.76 -6.88992 159.66C-8.84993 158.19 -10.3999 158.14 -12.4099 159.28C-23.2499 165.43 -34.2099 165.15 -45.1299 159.53C-46.8799 158.63 -48.3599 158.84 -49.9899 159.5C-59.5199 163.32 -68.8999 162.2 -77.7399 157.73C-89.9899 151.53 -102.3 148.85 -116.24 151.32C-126.88 153.21 -137.82 151.3 -148.14 147.32H-148.17ZM61.6801 106.36C62.1301 106.57 62.5801 106.77 63.0301 106.98C63.4601 107.25 63.8501 107.59 64.3101 107.77C73.4301 111.48 79.7201 104.36 87.1801 101.73C88.1801 101.38 87.7601 100.28 87.8501 99.47C89.6001 84.54 98.8901 74.3 113.49 70.8C118 69.72 122.55 70.1 127.33 69.88C126.76 66.24 124.43 64.63 121.68 63.53C113.24 60.18 105.11 60.25 97.3601 65.64C95.0501 67.25 92.3701 69.74 90.6601 64.58C89.7601 61.86 87.4201 59.84 85.2501 57.86C72.9801 46.64 45.2301 45.71 34.2101 64.05C32.3201 67.19 29.9101 68.72 26.0401 69.18C16.0901 70.37 12.3901 74.48 11.0501 84.74C10.7901 86.74 9.60008 87.55 8.13008 88.55C4.21008 91.21 0.0500793 93.94 -3.97992 95.86C-7.77992 97.66 -12.1499 92.43 -16.7099 91.44C-17.2099 91.33 -17.6699 91.08 -18.1599 90.94C-29.2099 87.63 -36.0599 90.57 -40.4299 101.18C-42.2399 105.57 -44.8999 107.43 -49.4699 107.89C-55.3699 108.48 -61.4199 108.81 -66.6599 112.21C-72.1499 115.78 -73.5999 120.95 -70.5699 126.16C-67.3499 131.68 -58.3199 135.79 -53.9999 133.63C-50.9799 132.12 -48.8599 129.89 -47.9699 126.46C-47.0799 123.06 -45.3899 120.29 -41.6799 118.99C-34.7899 116.58 -27.4099 119.45 -24.4299 125.97C-21.3899 132.63 -24.0399 141.38 -30.4499 144.63C-38.6199 148.78 -46.6199 147.85 -54.2499 142.97C-57.1299 141.13 -60.0199 139.32 -62.8899 137.49C-64.5899 136.41 -66.6599 135.92 -68.2599 136.88C-75.3899 141.14 -83.0199 140.41 -90.0399 137.91C-102.24 133.58 -112.59 136.51 -123.03 143.9C-118.39 144.68 -114.3 146.22 -110.01 145.63C-97.7399 143.96 -86.2499 146.18 -75.3099 151.85C-69.9399 154.63 -63.9399 155.81 -58.4299 153.56C-51.3699 150.69 -45.2299 151.7 -38.8499 154.99C-30.2799 159.41 -21.7299 159.22 -13.5099 154.06C-10.0599 151.89 -7.43993 152.31 -3.93993 154.66C7.37007 162.24 23.3201 159 29.8001 148.28C28.0701 147.42 26.5001 148.48 24.8901 148.71C6.06007 151.35 -7.78992 140.06 -7.36992 122.3C-7.23991 116.82 -5.34993 111.85 -1.76993 107.76C8.01007 96.6 26.4201 102.61 28.1601 114.18C28.6601 117.49 32.0001 120.64 28.4501 124.05C25.9901 126.41 23.0001 126.79 19.8601 126.13C18.4101 125.83 16.6001 125.4 16.4301 123.6C16.2901 122.11 18.0101 121.95 19.0301 121.57C22.8801 120.17 22.7501 117.71 21.1601 114.66C18.1801 108.93 10.7201 108.04 5.46008 112.82C-3.59991 121.07 -0.809921 136.17 10.7701 140.53C18.1601 143.31 25.7801 143.87 33.2301 140.52C39.0501 137.91 44.6801 137.59 50.3601 140.95C53.8601 143.01 57.8001 143.33 61.7801 143.01C64.1201 142.82 67.0501 143.54 68.5201 141.53C69.7301 139.88 67.3101 138.13 66.7801 136.31C65.1401 130.72 65.1501 125.22 67.0601 119.69C67.5301 118.33 68.8601 117.15 68.1701 115.38C67.4901 115.38 66.8101 115.41 66.1301 115.38C59.1001 115.03 53.6301 112.07 50.5601 105.57C46.9601 97.94 47.6001 90.47 52.9201 83.93C57.5301 78.27 64.0101 77.72 70.7201 79.11C75.8301 80.16 78.9801 85.06 77.8201 89.82C76.9301 93.48 73.5701 94.57 66.9201 92.85C70.1601 92.25 71.2801 90.61 70.7001 88.08C70.0401 85.18 67.6301 85.22 65.4101 85.21C60.2701 85.21 56.8201 87.97 55.1601 93.28C53.5101 98.99 56.7101 102.52 60.7201 105.7C61.0201 105.93 61.3301 106.15 61.6301 106.38L61.6801 106.36ZM328.11 152.68C323.93 149.54 320.56 147.21 317.42 144.61C313.09 141.01 308.73 139.54 303.38 142.63C299.62 144.8 296.13 144.21 293.81 140.06C293.31 139.17 292.66 138.36 292.09 137.51C285.22 127.38 269.34 120.61 256.66 132.68C254.71 134.54 252.37 136.14 249.96 137.36C239.9 142.46 229.85 142.48 220.25 136.28C212.3 131.15 209.69 120.55 214.02 112.33C218.07 104.65 227.91 101.21 236.61 104.44C241.48 106.25 244.65 111.03 243.97 115.54C243.48 118.75 240.47 120.57 237.56 119.34C236.69 118.97 235.18 118.31 236.36 117.26C238.98 114.93 238 113.13 236 111.3C233.97 109.44 231.54 108.7 228.88 109.4C224.54 110.53 220.94 112.68 219.68 117.36C218.25 122.65 220.06 127.63 224.46 130.99C234.12 138.35 248.95 134.7 254.16 123.69C259.61 112.16 256.78 97.61 247.16 87.71C238.08 78.38 227.68 76.71 214.35 82.78C211.78 83.95 211.26 83.15 210.46 80.97C204.44 64.68 192.69 55.19 175.46 53.63C160.62 52.29 146.75 56.07 137.62 68.52C133.27 74.46 129.29 77.95 121.98 77.02C121.32 76.94 120.62 77.1 119.94 77.19C104.97 79.19 95.1901 88.78 95.4301 102.02C95.5201 106.8 93.9301 108.3 89.4901 109.43C73.5201 113.5 68.3601 128.83 78.4201 141.57C81.9401 146.02 86.7701 148.5 92.2101 149.9C97.9401 151.37 103.76 151.03 109.55 150.65C112.35 150.47 114.48 151.05 114.48 154.25C114.46 166.53 130.35 177.08 141.94 175.76C148.62 175 155.14 173.87 161.3 171.16C166.98 168.66 172.39 162.2 173.22 157.24C162.33 166.22 144.94 164.99 136.97 154.67C129.25 144.66 132.39 128.9 143.67 120.08C150.2 114.98 157.42 111.96 165.7 111.39C183 110.21 198.94 119.89 201.88 135.64C202.03 136.47 202.14 137.79 202.63 138C209.05 140.7 212.03 146.7 216.49 151.33C219.47 154.43 224.2 156.63 227.84 159.71C235.82 166.46 243.56 164.72 246.87 154.83C248.98 148.54 253.05 146 258.96 144.6C267.29 142.62 274.72 144.23 280.91 149.92C286.38 154.94 292.72 157.32 299.88 157.91C309.52 158.69 318.85 157.72 328.11 152.68ZM267.72 242.68C264.96 241.66 262.88 242.7 260.91 243.4C255.73 245.26 251.32 243.81 247.14 240.76C244.68 238.96 242.26 237.09 239.7 235.42C233.68 231.48 225.26 231.65 219.51 236.1C216.84 238.17 214.27 240.61 212.37 243.38C205.36 253.63 186.6 258.01 174.32 249.52C169.43 246.14 166.01 241.18 167.23 236.99C168.8 231.61 173.31 229.99 178.27 229.35C180.46 229.06 182.7 229.1 184.92 229.02C186.97 228.95 188.96 228.79 190.96 228.13C195.05 226.79 198.14 224.24 198.52 220C198.89 215.92 195.6 213.64 192.28 212.05C185.64 208.88 178.67 207.63 171.37 209.3C168.27 210.01 166.29 209.51 165.46 205.82C164.6 201.98 161.82 199.41 158.1 197.85C149.38 194.18 141.31 196.01 133.83 200.98C128.3 204.65 122.58 207.47 115.84 207.44C113.26 207.44 112.89 208.84 112.44 210.88C110.97 217.61 107.67 223.39 102.09 227.46C98.5001 230.08 99.5101 231.94 102.09 234.27C109.44 240.91 124.49 239.26 131.21 230.91C133.36 228.24 135.4 225.52 138.32 223.61C144.39 219.64 151.65 220.32 156.55 225.36C159.87 228.78 160.07 232.53 157.69 236.56C155.22 240.74 152.04 239.04 148.83 237.72C152.4 235.24 153.39 233.62 152.61 231.32C151.56 228.25 148.8 228.92 146.55 228.82C140.21 228.54 137.25 232.13 137.95 239.03C139.22 251.5 149.75 258.73 163.73 256.42C166.52 255.96 168.2 256.38 170.45 258.31C176.85 263.81 184.24 266.95 193.06 265.63C202.73 264.19 211.78 261.19 219 254.46C225.97 247.96 233.71 247.49 242.24 249.92C244.04 250.43 245.9 250.86 247.76 251C255.66 251.61 262.26 249.08 267.69 242.67L267.72 242.68ZM135.61 183.05C135.82 184.12 136.11 185.08 136.18 186.06C136.51 190.15 137.52 192.64 142.72 191.19C146.41 190.15 150.59 189.98 154.42 190.46C165.72 191.88 175.44 187.36 185.21 182.96C188.98 181.26 191.67 178.39 192.09 174.08C192.47 170.2 193.87 168.58 198.24 168.71C203.41 168.86 208.45 163.08 209.13 157.57C209.83 151.89 207.37 148 201.59 145.73C200 145.11 198.39 144.53 196.74 144.1C194.83 143.59 194.12 142.88 194.36 140.55C195.27 131.63 190.51 124.24 182 121.75C172.76 119.04 163.43 119.06 154.48 123.13C148.88 125.68 144.47 129.68 141.88 135.35C137.48 144.97 142.42 154.37 152.8 156.26C156.2 156.88 159.66 156.64 163 156C168.04 155.04 171.52 151.04 171.02 147.42C170.78 145.69 169.95 144.57 168.19 144.28C167.07 144.09 166.14 144.3 165.93 145.65C165.68 147.24 166.05 149.68 163.18 148.2C161.11 147.14 158.68 146.11 159.74 142.86C161.04 138.89 163.79 137.13 167.86 137.21C179.1 137.43 185.4 146.58 181.94 158.34C178.94 168.54 171.83 175.08 161.94 178.73C153.51 181.84 144.56 181.84 135.62 183.05H135.61ZM77.7401 171.37C70.3201 171.3 66.1201 175.73 66.7801 182.92C67.4801 190.53 67.4501 190.39 60.1201 192.17C55.0801 193.39 50.6901 196 49.4901 201.42C48.2901 206.83 51.5401 210.37 55.7701 213.27C59.5701 215.88 63.8601 216.82 68.2601 217.55C70.1001 217.85 71.7101 218.1 73.2101 219.69C83.0401 230.12 100.19 226.26 104.69 212.73C107.63 203.89 100.4 194.51 91.1101 195.26C87.3201 195.57 84.2701 197.39 82.5301 200.92C81.3801 203.26 81.6101 205.52 83.2001 207.66C84.1401 208.92 86.6601 209.98 85.1801 211.75C83.7201 213.49 81.3001 212.43 79.4301 211.63C76.2901 210.29 74.7601 207.79 74.7601 204.36C74.7601 196.18 82.2701 188.26 90.4601 188.44C97.7001 188.6 104.69 190.56 108.72 197.05C111.48 201.49 114.32 201.34 118.82 200.65C131.53 198.71 131.16 186.34 125.07 180.27C122.66 177.87 119.87 175.85 117.19 173.74C109.38 167.59 102.27 167.68 94.9501 174.47C92.7401 176.52 91.0801 176.66 88.6701 175.32C85.2501 173.42 81.9001 171.23 77.7301 171.37H77.7401ZM215.84 156.9C214 167.72 207.98 174.51 197.37 177.02C193.72 177.88 193.83 179.08 196.25 181.69C200.55 186.33 205.86 188.29 211.89 189.26C229.52 192.08 245.46 191.04 257.86 175.23C267.2 163.32 278.02 161.43 292.33 166.56C297.4 168.38 302.65 168.88 307.98 168.25C309.59 168.06 311.75 167.99 311.59 165.57C311.41 162.78 309.38 163.79 307.74 164.01C300.6 164.99 293.95 163.59 287.35 160.67C281.63 158.14 277.2 153.76 271.83 150.9C264.3 146.9 254.43 149.83 252.76 156.29C250.88 163.6 246.01 167.96 239.17 169.85C232.35 171.74 227.43 167.88 223.22 162.95C221.15 160.52 219.08 158.03 215.84 156.9ZM-41.4699 142.7C-36.5199 142.75 -31.5599 139.89 -30.3299 136.11C-29.0399 132.17 -29.8699 128.68 -33.1199 125.99C-36.7999 122.94 -41.4199 123.95 -43.0599 128.36C-44.1599 131.31 -45.6399 133.88 -47.9299 136C-50.0399 137.96 -49.2799 139.62 -47.2599 140.97C-45.5299 142.12 -43.5699 142.69 -41.4699 142.69V142.7Z" fill="white"/>
<path d="M61.6799 106.36C62.1299 106.57 62.5899 106.78 63.0399 106.98C62.5799 106.77 62.1299 106.57 61.6799 106.36Z" fill="#171313"/>
<path d="M192.27 104.44C191.04 103.17 191.54 101.53 191.31 100.08C189.44 88.2699 180.52 82.1599 168.79 84.8599C158.89 87.1399 151.21 92.2999 147.77 102.31C146.78 105.19 145.08 105.8 142.4 105.75C137.63 105.66 132.82 105.53 128.07 105.91C118.42 106.69 110.89 112.91 108.43 121.39C106.89 126.7 107.41 131.48 111.04 135.81C111.7 136.6 113.37 137.29 112.02 138.67C111.1 139.6 109.83 139.31 108.63 138.99C104.21 137.81 100.68 133.32 100.01 127.95C98.5901 116.55 106.65 104.29 118.66 99.6099C123.64 97.6699 128.82 96.6999 134.17 96.6699C138.13 96.6499 141.03 95.3299 143.53 91.7699C152.63 78.8099 171.34 73.6899 186.2 79.5899C195.54 83.3099 200.41 95.1799 195.4 102.1C194.62 103.18 193.9 104.42 192.26 104.44H192.27Z" fill="white"/>
</g>
</svg>
