<svg width="375" height="408" viewBox="0 0 375 408" fill="none" xmlns="http://www.w3.org/2000/svg">
<path d="M-113.931 10.0821H-121.831V18.0358H-124.137V10.0821H-132V7.95369H-124.137V0H-121.831V7.95369H-113.931V10.0821ZM-81.3813 10.0821H-89.2819V18.0358H-91.5873V10.0821H-99.4505V7.95369H-91.5873V0H-89.2819V7.95369H-81.3813V10.0821ZM-48.8443 10.0821H-56.7449V18.0358H-59.0503V10.0821H-66.9135V7.95369H-59.0503V0H-56.7449V7.95369H-48.8443V10.0821ZM-16.3072 10.0821H-24.2078V18.0358H-26.5132V10.0821H-34.3764V7.95369H-26.5132V0H-24.2078V7.95369H-16.3072V10.0821ZM16.2298 10.0821H8.32918V18.0358H6.0238V10.0821H-1.83942V7.95369H6.0238V0H8.32918V7.95369H16.2298V10.0821ZM48.7668 10.0821H40.8662V18.0358H38.5608V10.0821H30.6976V7.95369H38.5608V0H40.8662V7.95369H48.7668V10.0821ZM81.3163 10.0821H73.4157V18.0358H71.1103V10.0821H63.2471V7.95369H71.1103V0H73.4157V7.95369H81.3163V10.0821ZM113.853 10.0821H105.953V18.0358H103.647V10.0821H95.7841V7.95369H103.647V0H105.953V7.95369H113.853V10.0821ZM-113.931 41.1999H-121.831V49.1536H-124.137V41.1999H-132V39.0714H-124.137V31.1177H-121.831V39.0714H-113.931V41.1999ZM-81.3813 41.1999H-89.2819V49.1536H-91.5873V41.1999H-99.4505V39.0714H-91.5873V31.1177H-89.2819V39.0714H-81.3813V41.1999ZM-48.8443 41.1999H-56.7449V49.1536H-59.0503V41.1999H-66.9135V39.0714H-59.0503V31.1177H-56.7449V39.0714H-48.8443V41.1999ZM-16.3072 41.1999H-24.2078V49.1536H-26.5132V41.1999H-34.3764V39.0714H-26.5132V31.1177H-24.2078V39.0714H-16.3072V41.1999ZM16.2298 41.1999H8.32918V49.1536H6.0238V41.1999H-1.83942V39.0714H6.0238V31.1177H8.32918V39.0714H16.2298V41.1999ZM48.7668 41.1999H40.8662V49.1536H38.5608V41.1999H30.6976V39.0714H38.5608V31.1177H40.8662V39.0714H48.7668V41.1999ZM81.3163 41.1999H73.4157V49.1536H71.1103V41.1999H63.2471V39.0714H71.1103V31.1177H73.4157V39.0714H81.3163V41.1999ZM113.853 41.1999H105.953V49.1536H103.647V41.1999H95.7841V39.0714H103.647V31.1177H105.953V39.0714H113.853V41.1999ZM-113.931 72.3301H-121.831V80.2838H-124.137V72.3301H-132V70.2016H-124.137V62.2479H-121.831V70.2016H-113.931V72.3301ZM-81.3813 72.3301H-89.2819V80.2838H-91.5873V72.3301H-99.4505V70.2016H-91.5873V62.2479H-89.2819V70.2016H-81.3813V72.3301ZM-48.8443 72.3301H-56.7449V80.2838H-59.0503V72.3301H-66.9135V70.2016H-59.0503V62.2479H-56.7449V70.2016H-48.8443V72.3301ZM-16.3072 72.3301H-24.2078V80.2838H-26.5132V72.3301H-34.3764V70.2016H-26.5132V62.2479H-24.2078V70.2016H-16.3072V72.3301ZM16.2298 72.3301H8.32918V80.2838H6.0238V72.3301H-1.83942V70.2016H6.0238V62.2479H8.32918V70.2016H16.2298V72.3301ZM48.7668 72.3301H40.8662V80.2838H38.5608V72.3301H30.6976V70.2016H38.5608V62.2479H40.8662V70.2016H48.7668V72.3301ZM81.3163 72.3301H73.4157V80.2838H71.1103V72.3301H63.2471V70.2016H71.1103V62.2479H73.4157V70.2016H81.3163V72.3301ZM113.853 72.3301H105.953V80.2838H103.647V72.3301H95.7841V70.2016H103.647V62.2479H105.953V70.2016H113.853V72.3301ZM-113.931 103.46H-121.831V111.414H-124.137V103.46H-132V101.332H-124.137V93.3781H-121.831V101.332H-113.931V103.46ZM-81.3813 103.46H-89.2819V111.414H-91.5873V103.46H-99.4505V101.332H-91.5873V93.3781H-89.2819V101.332H-81.3813V103.46ZM-48.8443 103.46H-56.7449V111.414H-59.0503V103.46H-66.9135V101.332H-59.0503V93.3781H-56.7449V101.332H-48.8443V103.46ZM-16.3072 103.46H-24.2078V111.414H-26.5132V103.46H-34.3764V101.332H-26.5132V93.3781H-24.2078V101.332H-16.3072V103.46ZM16.2298 103.46H8.32918V111.414H6.0238V103.46H-1.83942V101.332H6.0238V93.3781H8.32918V101.332H16.2298V103.46ZM48.7668 103.46H40.8662V111.414H38.5608V103.46H30.6976V101.332H38.5608V93.3781H40.8662V101.332H48.7668V103.46ZM81.3163 103.46H73.4157V111.414H71.1103V103.46H63.2471V101.332H71.1103V93.3781H73.4157V101.332H81.3163V103.46ZM113.853 103.46H105.953V111.414H103.647V103.46H95.7841V101.332H103.647V93.3781H105.953V101.332H113.853V103.46ZM-113.931 134.578H-121.831V142.532H-124.137V134.578H-132V132.45H-124.137V124.496H-121.831V132.45H-113.931V134.578ZM-81.3813 134.578H-89.2819V142.532H-91.5873V134.578H-99.4505V132.45H-91.5873V124.496H-89.2819V132.45H-81.3813V134.578ZM-48.8443 134.578H-56.7449V142.532H-59.0503V134.578H-66.9135V132.45H-59.0503V124.496H-56.7449V132.45H-48.8443V134.578ZM-16.3072 134.578H-24.2078V142.532H-26.5132V134.578H-34.3764V132.45H-26.5132V124.496H-24.2078V132.45H-16.3072V134.578ZM16.2298 134.578H8.32918V142.532H6.0238V134.578H-1.83942V132.45H6.0238V124.496H8.32918V132.45H16.2298V134.578ZM48.7668 134.578H40.8662V142.532H38.5608V134.578H30.6976V132.45H38.5608V124.496H40.8662V132.45H48.7668V134.578ZM81.3163 134.578H73.4157V142.532H71.1103V134.578H63.2471V132.45H71.1103V124.496H73.4157V132.45H81.3163V134.578ZM113.853 134.578H105.953V142.532H103.647V134.578H95.7841V132.45H103.647V124.496H105.953V132.45H113.853V134.578ZM-113.931 165.708H-121.831V173.662H-124.137V165.708H-132V163.58H-124.137V155.626H-121.831V163.58H-113.931V165.708ZM-81.3813 165.708H-89.2819V173.662H-91.5873V165.708H-99.4505V163.58H-91.5873V155.626H-89.2819V163.58H-81.3813V165.708ZM-48.8443 165.708H-56.7449V173.662H-59.0503V165.708H-66.9135V163.58H-59.0503V155.626H-56.7449V163.58H-48.8443V165.708ZM-16.3072 165.708H-24.2078V173.662H-26.5132V165.708H-34.3764V163.58H-26.5132V155.626H-24.2078V163.58H-16.3072V165.708ZM16.2298 165.708H8.32918V173.662H6.0238V165.708H-1.83942V163.58H6.0238V155.626H8.32918V163.58H16.2298V165.708ZM48.7668 165.708H40.8662V173.662H38.5608V165.708H30.6976V163.58H38.5608V155.626H40.8662V163.58H48.7668V165.708ZM81.3163 165.708H73.4157V173.662H71.1103V165.708H63.2471V163.58H71.1103V155.626H73.4157V163.58H81.3163V165.708ZM113.853 165.708H105.953V173.662H103.647V165.708H95.7841V163.58H103.647V155.626H105.953V163.58H113.853V165.708ZM-113.931 196.826H-121.831V204.78H-124.137V196.826H-132V194.697H-124.137V186.744H-121.831V194.697H-113.931V196.826ZM-81.3813 196.826H-89.2819V204.78H-91.5873V196.826H-99.4505V194.697H-91.5873V186.744H-89.2819V194.697H-81.3813V196.826ZM-48.8443 196.826H-56.7449V204.78H-59.0503V196.826H-66.9135V194.697H-59.0503V186.744H-56.7449V194.697H-48.8443V196.826ZM-16.3072 196.826H-24.2078V204.78H-26.5132V196.826H-34.3764V194.697H-26.5132V186.744H-24.2078V194.697H-16.3072V196.826ZM16.2298 196.826H8.32918V204.78H6.0238V196.826H-1.83942V194.697H6.0238V186.744H8.32918V194.697H16.2298V196.826ZM48.7668 196.826H40.8662V204.78H38.5608V196.826H30.6976V194.697H38.5608V186.744H40.8662V194.697H48.7668V196.826ZM81.3163 196.826H73.4157V204.78H71.1103V196.826H63.2471V194.697H71.1103V186.744H73.4157V194.697H81.3163V196.826ZM113.853 196.826H105.953V204.78H103.647V196.826H95.7841V194.697H103.647V186.744H105.953V194.697H113.853V196.826ZM-113.931 227.956H-121.831V235.91H-124.137V227.956H-132V225.828H-124.137V217.874H-121.831V225.828H-113.931V227.956ZM-81.3813 227.956H-89.2819V235.91H-91.5873V227.956H-99.4505V225.828H-91.5873V217.874H-89.2819V225.828H-81.3813V227.956ZM-48.8443 227.956H-56.7449V235.91H-59.0503V227.956H-66.9135V225.828H-59.0503V217.874H-56.7449V225.828H-48.8443V227.956ZM-16.3072 227.956H-24.2078V235.91H-26.5132V227.956H-34.3764V225.828H-26.5132V217.874H-24.2078V225.828H-16.3072V227.956ZM16.2298 227.956H8.32918V235.91H6.0238V227.956H-1.83942V225.828H6.0238V217.874H8.32918V225.828H16.2298V227.956ZM48.7668 227.956H40.8662V235.91H38.5608V227.956H30.6976V225.828H38.5608V217.874H40.8662V225.828H48.7668V227.956ZM81.3163 227.956H73.4157V235.91H71.1103V227.956H63.2471V225.828H71.1103V217.874H73.4157V225.828H81.3163V227.956ZM113.853 227.956H105.953V235.91H103.647V227.956H95.7841V225.828H103.647V217.874H105.953V225.828H113.853V227.956ZM-113.931 259.074H-121.831V267.027H-124.137V259.074H-132V256.945H-124.137V248.992H-121.831V256.945H-113.931V259.074ZM-81.3813 259.074H-89.2819V267.027H-91.5873V259.074H-99.4505V256.945H-91.5873V248.992H-89.2819V256.945H-81.3813V259.074ZM-48.8443 259.074H-56.7449V267.027H-59.0503V259.074H-66.9135V256.945H-59.0503V248.992H-56.7449V256.945H-48.8443V259.074ZM-16.3072 259.074H-24.2078V267.027H-26.5132V259.074H-34.3764V256.945H-26.5132V248.992H-24.2078V256.945H-16.3072V259.074ZM16.2298 259.074H8.32918V267.027H6.0238V259.074H-1.83942V256.945H6.0238V248.992H8.32918V256.945H16.2298V259.074ZM48.7668 259.074H40.8662V267.027H38.5608V259.074H30.6976V256.945H38.5608V248.992H40.8662V256.945H48.7668V259.074ZM81.3163 259.074H73.4157V267.027H71.1103V259.074H63.2471V256.945H71.1103V248.992H73.4157V256.945H81.3163V259.074ZM113.853 259.074H105.953V267.027H103.647V259.074H95.7841V256.945H103.647V248.992H105.953V256.945H113.853V259.074ZM146.241 10.0821H138.34V18.0358H136.035V10.0821H128.172V7.95369H136.035V0H138.34V7.95369H146.241V10.0821ZM178.778 10.0821H170.877V18.0358H168.572V10.0821H160.709V7.95369H168.572V0H170.877V7.95369H178.778V10.0821ZM211.315 10.0821H203.414V18.0358H201.109V10.0821H193.246V7.95369H201.109V0H203.414V7.95369H211.315V10.0821ZM243.852 10.0821H235.951V18.0358H233.646V10.0821H225.783V7.95369H233.646V0H235.951V7.95369H243.852V10.0821ZM276.401 10.0821H268.501V18.0358H266.195V10.0821H258.332V7.95369H266.195V0H268.501V7.95369H276.401V10.0821ZM308.938 10.0821H301.038V18.0358H298.732V10.0821H290.869V7.95369H298.732V0H301.038V7.95369H308.938V10.0821ZM341.475 10.0821H333.575V18.0358H331.27V10.0821H323.406V7.95369H331.27V0H333.575V7.95369H341.475V10.0821ZM374.012 10.0821H366.112V18.0358H363.807V10.0821H355.943V7.95369H363.807V0H366.112V7.95369H374.012V10.0821ZM146.241 41.1999H138.34V49.1536H136.035V41.1999H128.172V39.0714H136.035V31.1177H138.34V39.0714H146.241V41.1999ZM178.778 41.1999H170.877V49.1536H168.572V41.1999H160.709V39.0714H168.572V31.1177H170.877V39.0714H178.778V41.1999ZM211.315 41.1999H203.414V49.1536H201.109V41.1999H193.246V39.0714H201.109V31.1177H203.414V39.0714H211.315V41.1999ZM243.852 41.1999H235.951V49.1536H233.646V41.1999H225.783V39.0714H233.646V31.1177H235.951V39.0714H243.852V41.1999ZM276.401 41.1999H268.501V49.1536H266.195V41.1999H258.332V39.0714H266.195V31.1177H268.501V39.0714H276.401V41.1999ZM308.938 41.1999H301.038V49.1536H298.732V41.1999H290.869V39.0714H298.732V31.1177H301.038V39.0714H308.938V41.1999ZM341.475 41.1999H333.575V49.1536H331.27V41.1999H323.406V39.0714H331.27V31.1177H333.575V39.0714H341.475V41.1999ZM374.012 41.1999H366.112V49.1536H363.807V41.1999H355.943V39.0714H363.807V31.1177H366.112V39.0714H374.012V41.1999ZM146.241 72.3301H138.34V80.2838H136.035V72.3301H128.172V70.2016H136.035V62.2479H138.34V70.2016H146.241V72.3301ZM178.778 72.3301H170.877V80.2838H168.572V72.3301H160.709V70.2016H168.572V62.2479H170.877V70.2016H178.778V72.3301ZM211.315 72.3301H203.414V80.2838H201.109V72.3301H193.246V70.2016H201.109V62.2479H203.414V70.2016H211.315V72.3301ZM243.852 72.3301H235.951V80.2838H233.646V72.3301H225.783V70.2016H233.646V62.2479H235.951V70.2016H243.852V72.3301ZM276.401 72.3301H268.501V80.2838H266.195V72.3301H258.332V70.2016H266.195V62.2479H268.501V70.2016H276.401V72.3301ZM308.938 72.3301H301.038V80.2838H298.732V72.3301H290.869V70.2016H298.732V62.2479H301.038V70.2016H308.938V72.3301ZM341.475 72.3301H333.575V80.2838H331.27V72.3301H323.406V70.2016H331.27V62.2479H333.575V70.2016H341.475V72.3301ZM374.012 72.3301H366.112V80.2838H363.807V72.3301H355.943V70.2016H363.807V62.2479H366.112V70.2016H374.012V72.3301ZM146.241 103.46H138.34V111.414H136.035V103.46H128.172V101.332H136.035V93.3781H138.34V101.332H146.241V103.46ZM178.778 103.46H170.877V111.414H168.572V103.46H160.709V101.332H168.572V93.3781H170.877V101.332H178.778V103.46ZM211.315 103.46H203.414V111.414H201.109V103.46H193.246V101.332H201.109V93.3781H203.414V101.332H211.315V103.46ZM243.852 103.46H235.951V111.414H233.646V103.46H225.783V101.332H233.646V93.3781H235.951V101.332H243.852V103.46ZM276.401 103.46H268.501V111.414H266.195V103.46H258.332V101.332H266.195V93.3781H268.501V101.332H276.401V103.46ZM308.938 103.46H301.038V111.414H298.732V103.46H290.869V101.332H298.732V93.3781H301.038V101.332H308.938V103.46ZM341.475 103.46H333.575V111.414H331.27V103.46H323.406V101.332H331.27V93.3781H333.575V101.332H341.475V103.46ZM374.012 103.46H366.112V111.414H363.807V103.46H355.943V101.332H363.807V93.3781H366.112V101.332H374.012V103.46ZM146.241 134.578H138.34V142.532H136.035V134.578H128.172V132.45H136.035V124.496H138.34V132.45H146.241V134.578ZM178.778 134.578H170.877V142.532H168.572V134.578H160.709V132.45H168.572V124.496H170.877V132.45H178.778V134.578ZM211.315 134.578H203.414V142.532H201.109V134.578H193.246V132.45H201.109V124.496H203.414V132.45H211.315V134.578ZM243.852 134.578H235.951V142.532H233.646V134.578H225.783V132.45H233.646V124.496H235.951V132.45H243.852V134.578ZM276.401 134.578H268.501V142.532H266.195V134.578H258.332V132.45H266.195V124.496H268.501V132.45H276.401V134.578ZM308.938 134.578H301.038V142.532H298.732V134.578H290.869V132.45H298.732V124.496H301.038V132.45H308.938V134.578ZM341.475 134.578H333.575V142.532H331.27V134.578H323.406V132.45H331.27V124.496H333.575V132.45H341.475V134.578ZM374.012 134.578H366.112V142.532H363.807V134.578H355.943V132.45H363.807V124.496H366.112V132.45H374.012V134.578ZM146.241 165.708H138.34V173.662H136.035V165.708H128.172V163.58H136.035V155.626H138.34V163.58H146.241V165.708ZM178.778 165.708H170.877V173.662H168.572V165.708H160.709V163.58H168.572V155.626H170.877V163.58H178.778V165.708ZM211.315 165.708H203.414V173.662H201.109V165.708H193.246V163.58H201.109V155.626H203.414V163.58H211.315V165.708ZM243.852 165.708H235.951V173.662H233.646V165.708H225.783V163.58H233.646V155.626H235.951V163.58H243.852V165.708ZM276.401 165.708H268.501V173.662H266.195V165.708H258.332V163.58H266.195V155.626H268.501V163.58H276.401V165.708ZM308.938 165.708H301.038V173.662H298.732V165.708H290.869V163.58H298.732V155.626H301.038V163.58H308.938V165.708ZM341.475 165.708H333.575V173.662H331.27V165.708H323.406V163.58H331.27V155.626H333.575V163.58H341.475V165.708ZM374.012 165.708H366.112V173.662H363.807V165.708H355.943V163.58H363.807V155.626H366.112V163.58H374.012V165.708ZM146.241 196.826H138.34V204.78H136.035V196.826H128.172V194.697H136.035V186.744H138.34V194.697H146.241V196.826ZM178.778 196.826H170.877V204.78H168.572V196.826H160.709V194.697H168.572V186.744H170.877V194.697H178.778V196.826ZM211.315 196.826H203.414V204.78H201.109V196.826H193.246V194.697H201.109V186.744H203.414V194.697H211.315V196.826ZM243.852 196.826H235.951V204.78H233.646V196.826H225.783V194.697H233.646V186.744H235.951V194.697H243.852V196.826ZM276.401 196.826H268.501V204.78H266.195V196.826H258.332V194.697H266.195V186.744H268.501V194.697H276.401V196.826ZM308.938 196.826H301.038V204.78H298.732V196.826H290.869V194.697H298.732V186.744H301.038V194.697H308.938V196.826ZM341.475 196.826H333.575V204.78H331.27V196.826H323.406V194.697H331.27V186.744H333.575V194.697H341.475V196.826ZM374.012 196.826H366.112V204.78H363.807V196.826H355.943V194.697H363.807V186.744H366.112V194.697H374.012V196.826ZM146.241 227.956H138.34V235.91H136.035V227.956H128.172V225.828H136.035V217.874H138.34V225.828H146.241V227.956ZM178.778 227.956H170.877V235.91H168.572V227.956H160.709V225.828H168.572V217.874H170.877V225.828H178.778V227.956ZM211.315 227.956H203.414V235.91H201.109V227.956H193.246V225.828H201.109V217.874H203.414V225.828H211.315V227.956ZM243.852 227.956H235.951V235.91H233.646V227.956H225.783V225.828H233.646V217.874H235.951V225.828H243.852V227.956ZM276.401 227.956H268.501V235.91H266.195V227.956H258.332V225.828H266.195V217.874H268.501V225.828H276.401V227.956ZM308.938 227.956H301.038V235.91H298.732V227.956H290.869V225.828H298.732V217.874H301.038V225.828H308.938V227.956ZM341.475 227.956H333.575V235.91H331.27V227.956H323.406V225.828H331.27V217.874H333.575V225.828H341.475V227.956ZM374.012 227.956H366.112V235.91H363.807V227.956H355.943V225.828H363.807V217.874H366.112V225.828H374.012V227.956ZM146.241 259.074H138.34V267.027H136.035V259.074H128.172V256.945H136.035V248.992H138.34V256.945H146.241V259.074ZM178.778 259.074H170.877V267.027H168.572V259.074H160.709V256.945H168.572V248.992H170.877V256.945H178.778V259.074ZM211.315 259.074H203.414V267.027H201.109V259.074H193.246V256.945H201.109V248.992H203.414V256.945H211.315V259.074ZM243.852 259.074H235.951V267.027H233.646V259.074H225.783V256.945H233.646V248.992H235.951V256.945H243.852V259.074ZM276.401 259.074H268.501V267.027H266.195V259.074H258.332V256.945H266.195V248.992H268.501V256.945H276.401V259.074ZM308.938 259.074H301.038V267.027H298.732V259.074H290.869V256.945H298.732V248.992H301.038V256.945H308.938V259.074ZM341.475 259.074H333.575V267.027H331.27V259.074H323.406V256.945H331.27V248.992H333.575V256.945H341.475V259.074ZM374.012 259.074H366.112V267.027H363.807V259.074H355.943V256.945H363.807V248.992H366.112V256.945H374.012V259.074ZM-113.931 290.042H-121.831V297.996H-124.137V290.042H-132V287.914H-124.137V279.96H-121.831V287.914H-113.931V290.042ZM-81.3813 290.042H-89.2819V297.996H-91.5873V290.042H-99.4505V287.914H-91.5873V279.96H-89.2819V287.914H-81.3813V290.042ZM-48.8443 290.042H-56.7449V297.996H-59.0503V290.042H-66.9135V287.914H-59.0503V279.96H-56.7449V287.914H-48.8443V290.042ZM-16.3072 290.042H-24.2078V297.996H-26.5132V290.042H-34.3764V287.914H-26.5132V279.96H-24.2078V287.914H-16.3072V290.042ZM16.2298 290.042H8.32918V297.996H6.0238V290.042H-1.83942V287.914H6.0238V279.96H8.32918V287.914H16.2298V290.042ZM48.7668 290.042H40.8662V297.996H38.5608V290.042H30.6976V287.914H38.5608V279.96H40.8662V287.914H48.7668V290.042ZM81.3163 290.042H73.4157V297.996H71.1103V290.042H63.2471V287.914H71.1103V279.96H73.4157V287.914H81.3163V290.042ZM113.853 290.042H105.953V297.996H103.647V290.042H95.7841V287.914H103.647V279.96H105.953V287.914H113.853V290.042ZM-113.931 321.172H-121.831V329.126H-124.137V321.172H-132V319.044H-124.137V311.09H-121.831V319.044H-113.931V321.172ZM-81.3813 321.172H-89.2819V329.126H-91.5873V321.172H-99.4505V319.044H-91.5873V311.09H-89.2819V319.044H-81.3813V321.172ZM-48.8443 321.172H-56.7449V329.126H-59.0503V321.172H-66.9135V319.044H-59.0503V311.09H-56.7449V319.044H-48.8443V321.172ZM-16.3072 321.172H-24.2078V329.126H-26.5132V321.172H-34.3764V319.044H-26.5132V311.09H-24.2078V319.044H-16.3072V321.172ZM16.2298 321.172H8.32918V329.126H6.0238V321.172H-1.83942V319.044H6.0238V311.09H8.32918V319.044H16.2298V321.172ZM48.7668 321.172H40.8662V329.126H38.5608V321.172H30.6976V319.044H38.5608V311.09H40.8662V319.044H48.7668V321.172ZM81.3163 321.172H73.4157V329.126H71.1103V321.172H63.2471V319.044H71.1103V311.09H73.4157V319.044H81.3163V321.172ZM113.853 321.172H105.953V329.126H103.647V321.172H95.7841V319.044H103.647V311.09H105.953V319.044H113.853V321.172ZM-113.931 352.29H-121.831V360.244H-124.137V352.29H-132V350.162H-124.137V342.208H-121.831V350.162H-113.931V352.29ZM-81.3813 352.29H-89.2819V360.244H-91.5873V352.29H-99.4505V350.162H-91.5873V342.208H-89.2819V350.162H-81.3813V352.29ZM-48.8443 352.29H-56.7449V360.244H-59.0503V352.29H-66.9135V350.162H-59.0503V342.208H-56.7449V350.162H-48.8443V352.29ZM-16.3072 352.29H-24.2078V360.244H-26.5132V352.29H-34.3764V350.162H-26.5132V342.208H-24.2078V350.162H-16.3072V352.29ZM16.2298 352.29H8.32918V360.244H6.0238V352.29H-1.83942V350.162H6.0238V342.208H8.32918V350.162H16.2298V352.29ZM48.7668 352.29H40.8662V360.244H38.5608V352.29H30.6976V350.162H38.5608V342.208H40.8662V350.162H48.7668V352.29ZM81.3163 352.29H73.4157V360.244H71.1103V352.29H63.2471V350.162H71.1103V342.208H73.4157V350.162H81.3163V352.29ZM113.853 352.29H105.953V360.244H103.647V352.29H95.7841V350.162H103.647V342.208H105.953V350.162H113.853V352.29ZM-113.931 383.42H-121.831V391.374H-124.137V383.42H-132V381.292H-124.137V373.338H-121.831V381.292H-113.931V383.42ZM-81.3813 383.42H-89.2819V391.374H-91.5873V383.42H-99.4505V381.292H-91.5873V373.338H-89.2819V381.292H-81.3813V383.42ZM-48.8443 383.42H-56.7449V391.374H-59.0503V383.42H-66.9135V381.292H-59.0503V373.338H-56.7449V381.292H-48.8443V383.42ZM-16.3072 383.42H-24.2078V391.374H-26.5132V383.42H-34.3764V381.292H-26.5132V373.338H-24.2078V381.292H-16.3072V383.42ZM16.2298 383.42H8.32918V391.374H6.0238V383.42H-1.83942V381.292H6.0238V373.338H8.32918V381.292H16.2298V383.42ZM48.7668 383.42H40.8662V391.374H38.5608V383.42H30.6976V381.292H38.5608V373.338H40.8662V381.292H48.7668V383.42ZM81.3163 383.42H73.4157V391.374H71.1103V383.42H63.2471V381.292H71.1103V373.338H73.4157V381.292H81.3163V383.42ZM113.853 383.42H105.953V391.374H103.647V383.42H95.7841V381.292H103.647V373.338H105.953V381.292H113.853V383.42ZM-113.931 414.538H-121.831V422.492H-124.137V414.538H-132V412.41H-124.137V404.456H-121.831V412.41H-113.931V414.538ZM-81.3813 414.538H-89.2819V422.492H-91.5873V414.538H-99.4505V412.41H-91.5873V404.456H-89.2819V412.41H-81.3813V414.538ZM-48.8443 414.538H-56.7449V422.492H-59.0503V414.538H-66.9135V412.41H-59.0503V404.456H-56.7449V412.41H-48.8443V414.538ZM-16.3072 414.538H-24.2078V422.492H-26.5132V414.538H-34.3764V412.41H-26.5132V404.456H-24.2078V412.41H-16.3072V414.538ZM16.2298 414.538H8.32918V422.492H6.0238V414.538H-1.83942V412.41H6.0238V404.456H8.32918V412.41H16.2298V414.538ZM48.7668 414.538H40.8662V422.492H38.5608V414.538H30.6976V412.41H38.5608V404.456H40.8662V412.41H48.7668V414.538ZM81.3163 414.538H73.4157V422.492H71.1103V414.538H63.2471V412.41H71.1103V404.456H73.4157V412.41H81.3163V414.538ZM113.853 414.538H105.953V422.492H103.647V414.538H95.7841V412.41H103.647V404.456H105.953V412.41H113.853V414.538ZM-113.931 445.668H-121.831V453.622H-124.137V445.668H-132V443.54H-124.137V435.586H-121.831V443.54H-113.931V445.668ZM-81.3813 445.668H-89.2819V453.622H-91.5873V445.668H-99.4505V443.54H-91.5873V435.586H-89.2819V443.54H-81.3813V445.668ZM-48.8443 445.668H-56.7449V453.622H-59.0503V445.668H-66.9135V443.54H-59.0503V435.586H-56.7449V443.54H-48.8443V445.668ZM-16.3072 445.668H-24.2078V453.622H-26.5132V445.668H-34.3764V443.54H-26.5132V435.586H-24.2078V443.54H-16.3072V445.668ZM16.2298 445.668H8.32918V453.622H6.0238V445.668H-1.83942V443.54H6.0238V435.586H8.32918V443.54H16.2298V445.668ZM48.7668 445.668H40.8662V453.622H38.5608V445.668H30.6976V443.54H38.5608V435.586H40.8662V443.54H48.7668V445.668ZM81.3163 445.668H73.4157V453.622H71.1103V445.668H63.2471V443.54H71.1103V435.586H73.4157V443.54H81.3163V445.668ZM113.853 445.668H105.953V453.622H103.647V445.668H95.7841V443.54H103.647V435.586H105.953V443.54H113.853V445.668ZM-113.931 476.786H-121.831V484.74H-124.137V476.786H-132V474.657H-124.137V466.704H-121.831V474.657H-113.931V476.786ZM-81.3813 476.786H-89.2819V484.74H-91.5873V476.786H-99.4505V474.657H-91.5873V466.704H-89.2819V474.657H-81.3813V476.786ZM-48.8443 476.786H-56.7449V484.74H-59.0503V476.786H-66.9135V474.657H-59.0503V466.704H-56.7449V474.657H-48.8443V476.786ZM-16.3072 476.786H-24.2078V484.74H-26.5132V476.786H-34.3764V474.657H-26.5132V466.704H-24.2078V474.657H-16.3072V476.786ZM16.2298 476.786H8.32918V484.74H6.0238V476.786H-1.83942V474.657H6.0238V466.704H8.32918V474.657H16.2298V476.786ZM48.7668 476.786H40.8662V484.74H38.5608V476.786H30.6976V474.657H38.5608V466.704H40.8662V474.657H48.7668V476.786ZM81.3163 476.786H73.4157V484.74H71.1103V476.786H63.2471V474.657H71.1103V466.704H73.4157V474.657H81.3163V476.786ZM113.853 476.786H105.953V484.74H103.647V476.786H95.7841V474.657H103.647V466.704H105.953V474.657H113.853V476.786ZM-113.931 507.916H-121.831V515.87H-124.137V507.916H-132V505.788H-124.137V497.834H-121.831V505.788H-113.931V507.916ZM-81.3813 507.916H-89.2819V515.87H-91.5873V507.916H-99.4505V505.788H-91.5873V497.834H-89.2819V505.788H-81.3813V507.916ZM-48.8443 507.916H-56.7449V515.87H-59.0503V507.916H-66.9135V505.788H-59.0503V497.834H-56.7449V505.788H-48.8443V507.916ZM-16.3072 507.916H-24.2078V515.87H-26.5132V507.916H-34.3764V505.788H-26.5132V497.834H-24.2078V505.788H-16.3072V507.916ZM16.2298 507.916H8.32918V515.87H6.0238V507.916H-1.83942V505.788H6.0238V497.834H8.32918V505.788H16.2298V507.916ZM48.7668 507.916H40.8662V515.87H38.5608V507.916H30.6976V505.788H38.5608V497.834H40.8662V505.788H48.7668V507.916ZM81.3163 507.916H73.4157V515.87H71.1103V507.916H63.2471V505.788H71.1103V497.834H73.4157V505.788H81.3163V507.916ZM113.853 507.916H105.953V515.87H103.647V507.916H95.7841V505.788H103.647V497.834H105.953V505.788H113.853V507.916ZM-113.931 539.034H-121.831V546.988H-124.137V539.034H-132V536.905H-124.137V528.952H-121.831V536.905H-113.931V539.034ZM-81.3813 539.034H-89.2819V546.988H-91.5873V539.034H-99.4505V536.905H-91.5873V528.952H-89.2819V536.905H-81.3813V539.034ZM-48.8443 539.034H-56.7449V546.988H-59.0503V539.034H-66.9135V536.905H-59.0503V528.952H-56.7449V536.905H-48.8443V539.034ZM-16.3072 539.034H-24.2078V546.988H-26.5132V539.034H-34.3764V536.905H-26.5132V528.952H-24.2078V536.905H-16.3072V539.034ZM16.2298 539.034H8.32918V546.988H6.0238V539.034H-1.83942V536.905H6.0238V528.952H8.32918V536.905H16.2298V539.034ZM48.7668 539.034H40.8662V546.988H38.5608V539.034H30.6976V536.905H38.5608V528.952H40.8662V536.905H48.7668V539.034ZM81.3163 539.034H73.4157V546.988H71.1103V539.034H63.2471V536.905H71.1103V528.952H73.4157V536.905H81.3163V539.034ZM113.853 539.034H105.953V546.988H103.647V539.034H95.7841V536.905H103.647V528.952H105.953V536.905H113.853V539.034ZM146.241 290.042H138.34V297.996H136.035V290.042H128.172V287.914H136.035V279.96H138.34V287.914H146.241V290.042ZM178.778 290.042H170.877V297.996H168.572V290.042H160.709V287.914H168.572V279.96H170.877V287.914H178.778V290.042ZM211.315 290.042H203.414V297.996H201.109V290.042H193.246V287.914H201.109V279.96H203.414V287.914H211.315V290.042ZM243.852 290.042H235.951V297.996H233.646V290.042H225.783V287.914H233.646V279.96H235.951V287.914H243.852V290.042ZM276.401 290.042H268.501V297.996H266.195V290.042H258.332V287.914H266.195V279.96H268.501V287.914H276.401V290.042ZM308.938 290.042H301.038V297.996H298.732V290.042H290.869V287.914H298.732V279.96H301.038V287.914H308.938V290.042ZM341.475 290.042H333.575V297.996H331.27V290.042H323.406V287.914H331.27V279.96H333.575V287.914H341.475V290.042ZM374.012 290.042H366.112V297.996H363.807V290.042H355.943V287.914H363.807V279.96H366.112V287.914H374.012V290.042ZM146.241 321.172H138.34V329.126H136.035V321.172H128.172V319.044H136.035V311.09H138.34V319.044H146.241V321.172ZM178.778 321.172H170.877V329.126H168.572V321.172H160.709V319.044H168.572V311.09H170.877V319.044H178.778V321.172ZM211.315 321.172H203.414V329.126H201.109V321.172H193.246V319.044H201.109V311.09H203.414V319.044H211.315V321.172ZM243.852 321.172H235.951V329.126H233.646V321.172H225.783V319.044H233.646V311.09H235.951V319.044H243.852V321.172ZM276.401 321.172H268.501V329.126H266.195V321.172H258.332V319.044H266.195V311.09H268.501V319.044H276.401V321.172ZM308.938 321.172H301.038V329.126H298.732V321.172H290.869V319.044H298.732V311.09H301.038V319.044H308.938V321.172ZM341.475 321.172H333.575V329.126H331.27V321.172H323.406V319.044H331.27V311.09H333.575V319.044H341.475V321.172ZM374.012 321.172H366.112V329.126H363.807V321.172H355.943V319.044H363.807V311.09H366.112V319.044H374.012V321.172ZM146.241 352.29H138.34V360.244H136.035V352.29H128.172V350.162H136.035V342.208H138.34V350.162H146.241V352.29ZM178.778 352.29H170.877V360.244H168.572V352.29H160.709V350.162H168.572V342.208H170.877V350.162H178.778V352.29ZM211.315 352.29H203.414V360.244H201.109V352.29H193.246V350.162H201.109V342.208H203.414V350.162H211.315V352.29ZM243.852 352.29H235.951V360.244H233.646V352.29H225.783V350.162H233.646V342.208H235.951V350.162H243.852V352.29ZM276.401 352.29H268.501V360.244H266.195V352.29H258.332V350.162H266.195V342.208H268.501V350.162H276.401V352.29ZM308.938 352.29H301.038V360.244H298.732V352.29H290.869V350.162H298.732V342.208H301.038V350.162H308.938V352.29ZM341.475 352.29H333.575V360.244H331.27V352.29H323.406V350.162H331.27V342.208H333.575V350.162H341.475V352.29ZM374.012 352.29H366.112V360.244H363.807V352.29H355.943V350.162H363.807V342.208H366.112V350.162H374.012V352.29ZM146.241 383.42H138.34V391.374H136.035V383.42H128.172V381.292H136.035V373.338H138.34V381.292H146.241V383.42ZM178.778 383.42H170.877V391.374H168.572V383.42H160.709V381.292H168.572V373.338H170.877V381.292H178.778V383.42ZM211.315 383.42H203.414V391.374H201.109V383.42H193.246V381.292H201.109V373.338H203.414V381.292H211.315V383.42ZM243.852 383.42H235.951V391.374H233.646V383.42H225.783V381.292H233.646V373.338H235.951V381.292H243.852V383.42ZM276.401 383.42H268.501V391.374H266.195V383.42H258.332V381.292H266.195V373.338H268.501V381.292H276.401V383.42ZM308.938 383.42H301.038V391.374H298.732V383.42H290.869V381.292H298.732V373.338H301.038V381.292H308.938V383.42ZM341.475 383.42H333.575V391.374H331.27V383.42H323.406V381.292H331.27V373.338H333.575V381.292H341.475V383.42ZM374.012 383.42H366.112V391.374H363.807V383.42H355.943V381.292H363.807V373.338H366.112V381.292H374.012V383.42ZM146.241 414.538H138.34V422.492H136.035V414.538H128.172V412.41H136.035V404.456H138.34V412.41H146.241V414.538ZM178.778 414.538H170.877V422.492H168.572V414.538H160.709V412.41H168.572V404.456H170.877V412.41H178.778V414.538ZM211.315 414.538H203.414V422.492H201.109V414.538H193.246V412.41H201.109V404.456H203.414V412.41H211.315V414.538ZM243.852 414.538H235.951V422.492H233.646V414.538H225.783V412.41H233.646V404.456H235.951V412.41H243.852V414.538ZM276.401 414.538H268.501V422.492H266.195V414.538H258.332V412.41H266.195V404.456H268.501V412.41H276.401V414.538ZM308.938 414.538H301.038V422.492H298.732V414.538H290.869V412.41H298.732V404.456H301.038V412.41H308.938V414.538ZM341.475 414.538H333.575V422.492H331.27V414.538H323.406V412.41H331.27V404.456H333.575V412.41H341.475V414.538ZM374.012 414.538H366.112V422.492H363.807V414.538H355.943V412.41H363.807V404.456H366.112V412.41H374.012V414.538ZM146.241 445.668H138.34V453.622H136.035V445.668H128.172V443.54H136.035V435.586H138.34V443.54H146.241V445.668ZM178.778 445.668H170.877V453.622H168.572V445.668H160.709V443.54H168.572V435.586H170.877V443.54H178.778V445.668ZM211.315 445.668H203.414V453.622H201.109V445.668H193.246V443.54H201.109V435.586H203.414V443.54H211.315V445.668ZM243.852 445.668H235.951V453.622H233.646V445.668H225.783V443.54H233.646V435.586H235.951V443.54H243.852V445.668ZM276.401 445.668H268.501V453.622H266.195V445.668H258.332V443.54H266.195V435.586H268.501V443.54H276.401V445.668ZM308.938 445.668H301.038V453.622H298.732V445.668H290.869V443.54H298.732V435.586H301.038V443.54H308.938V445.668ZM341.475 445.668H333.575V453.622H331.27V445.668H323.406V443.54H331.27V435.586H333.575V443.54H341.475V445.668ZM374.012 445.668H366.112V453.622H363.807V445.668H355.943V443.54H363.807V435.586H366.112V443.54H374.012V445.668ZM146.241 476.786H138.34V484.74H136.035V476.786H128.172V474.657H136.035V466.704H138.34V474.657H146.241V476.786ZM178.778 476.786H170.877V484.74H168.572V476.786H160.709V474.657H168.572V466.704H170.877V474.657H178.778V476.786ZM211.315 476.786H203.414V484.74H201.109V476.786H193.246V474.657H201.109V466.704H203.414V474.657H211.315V476.786ZM243.852 476.786H235.951V484.74H233.646V476.786H225.783V474.657H233.646V466.704H235.951V474.657H243.852V476.786ZM276.401 476.786H268.501V484.74H266.195V476.786H258.332V474.657H266.195V466.704H268.501V474.657H276.401V476.786ZM308.938 476.786H301.038V484.74H298.732V476.786H290.869V474.657H298.732V466.704H301.038V474.657H308.938V476.786ZM341.475 476.786H333.575V484.74H331.27V476.786H323.406V474.657H331.27V466.704H333.575V474.657H341.475V476.786ZM374.012 476.786H366.112V484.74H363.807V476.786H355.943V474.657H363.807V466.704H366.112V474.657H374.012V476.786ZM146.241 507.916H138.34V515.87H136.035V507.916H128.172V505.788H136.035V497.834H138.34V505.788H146.241V507.916ZM178.778 507.916H170.877V515.87H168.572V507.916H160.709V505.788H168.572V497.834H170.877V505.788H178.778V507.916ZM211.315 507.916H203.414V515.87H201.109V507.916H193.246V505.788H201.109V497.834H203.414V505.788H211.315V507.916ZM243.852 507.916H235.951V515.87H233.646V507.916H225.783V505.788H233.646V497.834H235.951V505.788H243.852V507.916ZM276.401 507.916H268.501V515.87H266.195V507.916H258.332V505.788H266.195V497.834H268.501V505.788H276.401V507.916ZM308.938 507.916H301.038V515.87H298.732V507.916H290.869V505.788H298.732V497.834H301.038V505.788H308.938V507.916ZM341.475 507.916H333.575V515.87H331.27V507.916H323.406V505.788H331.27V497.834H333.575V505.788H341.475V507.916ZM374.012 507.916H366.112V515.87H363.807V507.916H355.943V505.788H363.807V497.834H366.112V505.788H374.012V507.916ZM146.241 539.034H138.34V546.988H136.035V539.034H128.172V536.905H136.035V528.952H138.34V536.905H146.241V539.034ZM178.778 539.034H170.877V546.988H168.572V539.034H160.709V536.905H168.572V528.952H170.877V536.905H178.778V539.034ZM211.315 539.034H203.414V546.988H201.109V539.034H193.246V536.905H201.109V528.952H203.414V536.905H211.315V539.034ZM243.852 539.034H235.951V546.988H233.646V539.034H225.783V536.905H233.646V528.952H235.951V536.905H243.852V539.034ZM276.401 539.034H268.501V546.988H266.195V539.034H258.332V536.905H266.195V528.952H268.501V536.905H276.401V539.034ZM308.938 539.034H301.038V546.988H298.732V539.034H290.869V536.905H298.732V528.952H301.038V536.905H308.938V539.034ZM341.475 539.034H333.575V546.988H331.27V539.034H323.406V536.905H331.27V528.952H333.575V536.905H341.475V539.034ZM374.012 539.034H366.112V546.988H363.807V539.034H355.943V536.905H363.807V528.952H366.112V536.905H374.012V539.034Z" fill="url(#paint0_radial_552_1584)"/>
<defs>
<radialGradient id="paint0_radial_552_1584" cx="0" cy="0" r="1" gradientUnits="userSpaceOnUse" gradientTransform="translate(121.006 273.494) rotate(90) scale(273.494 253.006)">
<stop offset="0.394231" stop-color="white" stop-opacity="0.2"/>
<stop offset="1" stop-color="white" stop-opacity="0"/>
</radialGradient>
</defs>
</svg>
