<svg width="220" height="294" viewBox="0 0 220 294" fill="none" xmlns="http://www.w3.org/2000/svg">
<g opacity="0.1">
<path d="M64.2869 0C64.3069 1.44865 64.1669 2.91404 64.3969 4.33757C64.5269 5.15819 65.2468 5.90345 65.6968 6.69057C66.2568 5.86995 67.0368 5.0912 67.3168 4.20359C67.6468 3.12338 67.5569 1.94269 67.6469 0.803873C68.1169 0.803873 68.5868 0.803873 69.0668 0.803873V34.7005H81.2769V14.8717C83.5169 14.7042 85.0869 14.587 87.1769 14.4279V1.66636H98.1469V25.1629C95.6668 25.2718 93.2269 25.389 90.3369 25.5146V34.3488C88.5069 34.5582 87.1068 34.7173 85.2068 34.935V50.6608H67.7369V39.507C62.4069 38.5357 62.1469 38.6864 62.1069 42.5551C62.0769 45.2011 62.1069 47.8472 62.1069 50.711C58.8169 50.845 55.9669 50.9539 52.7969 51.0795V58.4734C50.8069 58.4734 49.0668 58.7246 47.5068 58.3813C46.4668 58.1552 45.6369 57.1336 44.7969 56.3884C44.0369 55.7185 43.4169 54.9481 42.7269 54.2196C42.2169 54.9816 41.3768 55.7017 41.2568 56.5056C40.1468 63.5395 39.1669 70.5901 38.0969 77.9925C34.7269 78.2939 32.0369 79.8514 32.0569 83.5107C29.9102 83.8568 28.6369 82.905 28.2369 80.6553C27.1169 80.4376 25.8968 80.2031 24.3868 79.91V66.0014C21.9068 65.8171 19.7169 65.6497 17.0969 65.4571V50.1332C14.6569 49.9909 12.6069 49.8653 10.1169 49.7229C10.0269 48.4753 9.87683 47.3113 9.87683 46.139C9.87683 37.2294 9.87686 28.3282 9.96686 19.4186C9.98686 17.6182 8.85688 15.2903 12.4269 14.5618C12.8469 14.4781 12.9769 12.996 13.0269 12.1502C13.1169 10.6011 13.0569 9.04358 13.0569 7.05901C10.7369 6.90829 8.56687 6.75756 6.04688 6.59846V0.00837387H35.5668V9.48738C37.4068 9.77209 38.6569 9.97306 40.0569 10.1908C40.2169 12.4768 40.3668 14.6288 40.5168 16.7892H47.6469C48.1469 14.1013 49.3269 11.4217 44.3969 11.2124V7.81265C48.9968 6.6487 50.8469 4.31245 50.7169 0.00837387H64.2769L64.2869 0ZM26.0569 18.397L25.4169 18.5979V64.6532C28.4369 64.1424 31.0669 63.8075 33.6169 63.2297C35.0569 62.9031 36.3668 62.1662 37.7468 61.6136C36.1868 60.9102 34.6269 60.2152 32.9669 59.4699V54.7974C35.0669 54.6132 36.8669 54.4457 38.7269 54.2866V19.1255H32.9069C32.8269 20.5574 32.9568 21.8051 32.6268 22.9523C32.4368 23.6054 31.5469 24.5265 30.8969 24.5684C30.2069 24.6103 29.1668 23.8901 28.7568 23.2705C27.7168 21.7213 26.9568 20.0382 26.0768 18.4137L26.0569 18.397ZM24.6368 2.7047H15.7568C13.7368 6.02905 16.5169 6.28864 19.5869 6.55659V17.3838H24.6368V2.7047Z" fill="white"/>
<path d="M147.269 293.966C147.369 291.303 147.429 288.641 147.579 285.978C147.659 284.538 146.899 282.762 149.709 282.302C150.109 282.235 150.449 280.996 150.459 280.292C150.539 274.506 150.589 268.72 150.529 262.933C150.499 260.388 150.269 260.313 145.039 259.777V255.498C146.819 254.518 148.199 253.496 149.819 252.977C150.549 252.743 152.449 253.379 152.599 253.873C153.009 255.238 152.599 256.762 152.849 258.177C152.989 258.948 153.849 259.626 154.379 260.346C154.929 259.634 155.559 258.948 156.019 258.186C156.239 257.817 156.149 257.323 156.229 256.653H163.299C163.459 258.671 163.609 260.723 163.799 263.101C166.519 263.21 169.099 263.31 172.159 263.428V274.33H177.299V263.553H193.429V278.442H179.179V293.958C168.539 293.958 157.899 293.958 147.269 293.958V293.966Z" fill="white"/>
<path d="M123.328 293.967V264.6C125.648 264.382 127.588 264.198 129.878 263.989V249.603C132.268 249.444 134.318 249.31 136.818 249.151V236.104C138.368 235.853 139.498 235.669 140.628 235.485C140.468 235.334 140.298 235.183 140.138 235.033C141.158 234.078 142.178 233.115 143.188 232.16C144.358 235.937 146.088 238.039 150.398 238.039V251.06H137.688V294H123.328V293.967Z" fill="white"/>
<path d="M195.93 293.966V287.602C198.43 287.493 200.75 287.393 203.02 287.292C205.38 280.728 204.37 279.103 197.29 278.308V259.978H205.04V277.746H217.85V291.253C214.97 291.253 212.1 291.387 209.25 291.211C206.61 291.052 205.94 292.04 206.3 293.966H195.93Z" fill="white"/>
<path d="M89.8203 293.967V245.031C93.8203 244.83 93.8704 242.762 93.8004 240.434C93.6704 235.895 93.7603 231.357 93.7603 226.542H98.5903C98.5903 232.437 98.5903 238.19 98.5803 243.942C98.5803 244.26 98.4703 244.813 98.2803 244.863C93.2003 246.019 95.3703 249.494 95.3503 251.947C95.2003 265.957 95.3503 279.966 95.4103 293.967H89.8303H89.8203Z" fill="white"/>
<path d="M4.38988 131.458H-7.04011C-7.04011 133.25 -6.91012 135.092 -7.11012 136.909C-7.18012 137.588 -8.01013 138.207 -8.50013 138.86C-9.01013 138.241 -9.90008 137.646 -9.95008 137.002C-10.1301 134.674 -9.94009 132.329 -10.0801 129.993C-10.1801 128.293 -8.99011 126.04 -12.4801 125.463C-12.8401 125.404 -13.0801 124.123 -13.0901 123.403C-13.1401 118.839 -13.1701 114.275 -13.0401 109.712C-13.0201 108.899 -12.2301 108.104 -11.8001 107.3C-11.3301 108.087 -10.5501 108.832 -10.4201 109.653C-9.63011 114.895 -8.9801 120.162 -7.4701 125.421C-6.9101 114.485 -6.35011 103.557 -5.79011 92.5708C-7.43011 92.1772 -8.5201 91.9092 -9.7201 91.6245V75.9155C-8.1601 75.8569 -6.77011 75.8066 -4.60011 75.7229C-4.60011 78.6704 -4.84011 81.417 -4.54011 84.1133C-4.07011 88.3337 -2.97008 92.5121 -2.64008 96.7325C-2.30008 101.037 -2.56013 105.366 -2.56013 109.469C-1.97013 109.812 -1.78012 110.03 -1.55012 110.047C4.69988 110.624 4.65988 110.624 4.75988 115.917C4.78988 117.566 3.9899 119.526 6.9099 120.355C7.3799 120.489 7.4599 121.946 7.4699 122.791C7.5199 126.241 7.60991 129.7 7.4099 133.141C7.2999 135.117 8.81993 137.688 5.05993 138.735C4.66993 138.844 4.6699 140.167 4.64989 140.929C4.5999 144.044 4.7199 147.167 4.5299 150.274C4.4899 150.977 3.43991 151.639 2.84991 152.317C2.30991 151.697 1.33993 151.086 1.30993 150.45C1.16993 146.782 1.2399 143.106 1.2799 139.43C1.2799 139.003 1.36991 138.249 1.59991 138.191C6.02991 137.11 3.98989 134.196 4.39989 131.467L4.38988 131.458Z" fill="white"/>
<path d="M168.398 132.271H174.718V153.155C179.218 154.428 179.768 156.245 178.318 164.082C177.258 164.141 176.128 164.2 174.838 164.267C174.558 163.161 174.318 162.215 174.038 161.085C172.248 160.934 170.448 160.775 168.408 160.607V132.271H168.398Z" fill="white"/>
<path d="M99.3309 179.908V173.276C97.7009 173.042 96.3209 172.841 94.7109 172.615V144.211H101.171C101.171 147.444 101.171 150.617 101.171 153.791C101.171 157.35 99.871 161.419 101.481 164.359C104.001 168.939 102.511 173.377 103.131 177.823C103.421 179.908 102.301 180.687 99.3209 179.9L99.3309 179.908Z" fill="white"/>
<path d="M106.477 83.377C106.477 88.4514 106.557 92.8895 106.387 97.3192C106.357 97.9723 105.157 99.1111 104.447 99.1446C100.507 99.3288 96.5468 99.2284 92.3068 99.2284C92.3068 94.2041 92.2268 89.6572 92.4068 85.1103C92.4268 84.5074 93.7668 83.4858 94.5468 83.4523C98.3568 83.2765 102.177 83.377 106.477 83.377Z" fill="white"/>
<path d="M162.312 111.052H171.852V128.745C169.862 128.888 167.822 129.038 165.272 129.223C165.272 134.23 165.342 139.087 165.202 143.944C165.182 144.823 164.293 145.685 163.812 146.556C163.312 145.71 162.392 144.865 162.382 144.019C162.282 133.142 162.322 122.264 162.322 111.052H162.312Z" fill="white"/>
<path d="M126.537 35.2029V49.0781H111.727V35.2029H126.537Z" fill="white"/>
<path d="M201 218.218C204.79 218.218 208.34 218.118 211.88 218.302C212.66 218.344 213.97 219.382 214 219.993C214.19 224.189 214.1 228.392 214.1 232.855H201.01V218.227L201 218.218Z" fill="white"/>
<path d="M35.6797 83.3181C37.6397 83.2427 39.3197 83.1674 41.1197 83.1004C41.4097 81.6601 41.6696 80.3873 41.9496 79.0308H49.7097V90.5027C47.3097 92.2444 40.2697 88.5265 42.2097 95.3092H35.6797V83.3265V83.3181Z" fill="white"/>
<path d="M160.557 237.075H153.357C153.167 235.794 152.997 234.714 152.787 233.324C151.227 233.165 149.577 233.006 147.617 232.805V221.777H153.327C153.527 223.049 153.707 224.222 153.927 225.637C156.077 225.754 158.157 225.863 160.547 225.989V237.067L160.557 237.075Z" fill="white"/>
<path d="M73.3906 119.358V108.347H82.2307C82.8407 114.719 83.4907 120.899 83.9307 127.104C83.9907 127.891 82.9206 128.737 82.3806 129.549C81.9306 128.77 81.1406 128 81.0806 127.204C80.9106 124.793 81.0206 122.373 81.0206 119.743C78.3106 119.609 76.1006 119.5 73.3906 119.366V119.358Z" fill="white"/>
<path d="M174.439 209.752H165.719V198.632C168.019 198.506 170.329 198.389 173.339 198.23C173.339 195.877 173.219 193.583 173.399 191.305C173.479 190.367 174.219 189.471 174.659 188.558C175.169 189.521 176.159 190.518 176.099 191.456C175.689 197.443 175.039 203.413 174.439 209.744V209.752Z" fill="white"/>
<path d="M93.0167 150.475C90.0567 151.304 89.0368 150.684 89.0968 148.49C89.2668 142.712 89.5568 136.926 89.2868 131.165C89.1168 127.506 87.9668 123.88 87.3668 120.221C87.2168 119.283 87.4668 118.303 87.5968 116.478C91.7468 119.994 88.1067 124.022 90.8267 127.414C93.1367 130.294 92.6367 134.875 92.9467 138.718C93.2567 142.578 93.0167 146.464 93.0167 150.466V150.475Z" fill="white"/>
<path d="M179.521 224.34H168.311C167.831 221.936 167.131 219.684 171.511 219.734C171.671 217.607 171.821 215.656 171.981 213.521H179.511V224.34H179.521Z" fill="white"/>
<path d="M64.4221 97.1512C65.8521 96.833 66.9621 96.5818 68.1121 96.3222C68.2821 95.2671 68.4321 94.3042 68.6021 93.2826C71.3721 92.4368 72.7221 92.9644 72.3121 95.5602C71.9021 98.1393 71.1321 100.735 71.2721 103.297C71.4321 106.212 70.5821 108.481 68.0321 110.373C62.0821 106.731 65.3521 101.665 64.4321 97.1596L64.4221 97.1512Z" fill="white"/>
<path d="M87.3113 104.479H79.7812V93.7019H87.3113V104.479Z" fill="white"/>
<path d="M130.487 228.987C130.317 228.024 130.007 227.069 130.007 226.106C129.987 219.675 129.817 213.236 130.147 206.813C130.317 203.43 131.357 200.081 132.107 196.723C132.187 196.354 132.897 195.978 133.407 195.835C133.627 195.777 134.417 196.38 134.377 196.589C133.747 199.428 136.447 202.71 132.697 205.205C132.107 205.599 132.187 206.847 132.177 207.692C132.127 213.68 132.137 219.667 132.107 225.654C132.107 226.717 131.997 227.781 131.937 228.836C131.457 228.886 130.977 228.928 130.497 228.978L130.487 228.987Z" fill="white"/>
<path d="M117.258 282.981V235.845C117.528 235.845 117.798 235.845 118.068 235.845V282.972C117.798 282.972 117.528 282.972 117.258 282.981Z" fill="white"/>
<path d="M160.18 207.751C165.43 211.519 162.52 216.367 163.24 220.981H156.65C157.26 216.392 154.16 211.452 160.18 207.751Z" fill="white"/>
<path d="M118.257 183.601C118.257 185.594 118.257 187.596 118.257 189.589C118.257 191.59 118.327 193.591 118.237 195.584C118.167 197.1 119.077 199.059 116.007 199.503C115.657 199.553 115.647 200.7 115.257 201.22C114.747 201.923 114.017 202.509 113.387 203.146C112.907 202.392 111.947 201.596 112.027 200.893C112.307 198.708 110.137 195.534 115.087 194.889C115.437 194.847 115.607 193.08 115.627 192.117C115.697 189.27 115.657 186.415 115.657 183.56C116.517 183.576 117.387 183.585 118.247 183.601H118.257Z" fill="white"/>
<path d="M122.047 236.414C125.757 235.434 127.467 236.113 127.117 239.337C126.877 241.522 127.077 243.749 127.037 245.952C126.977 249.703 126.847 249.787 122.047 248.95V236.414Z" fill="white"/>
<path d="M181.589 200.75C178.889 198.389 179.469 192.62 180.669 190.384C181.659 188.533 181.239 186.172 181.639 184.062C181.939 182.487 182.549 180.963 183.019 179.414C183.549 180.913 184.299 182.387 184.559 183.911C184.829 185.427 184.809 187.034 184.539 188.55C184.379 189.421 183.399 190.174 182.899 191.029C182.389 191.916 181.709 192.846 181.639 193.784C181.459 196.095 181.579 198.423 181.579 200.75H181.589Z" fill="white"/>
<path d="M152.912 167.097C152.912 165.431 152.772 163.756 152.962 162.115C153.072 161.177 153.732 160.281 154.152 159.368C154.632 160.331 155.372 161.261 155.552 162.257C156.332 166.645 157.062 171.041 157.552 175.454C157.652 176.375 156.652 177.38 156.162 178.343C155.542 177.564 154.602 176.844 154.362 175.99C153.522 173.084 152.932 170.128 152.242 167.189C152.462 167.156 152.692 167.131 152.912 167.097Z" fill="white"/>
<path d="M109.831 174.918C109.981 175.697 110.351 176.492 110.261 177.246C109.761 181.19 109.231 185.134 108.511 189.061C108.361 189.89 107.381 190.619 106.791 191.389C106.241 190.569 105.301 189.781 105.221 188.936C105.001 186.742 105.051 184.523 105.181 182.321C105.281 180.545 104.051 178.234 107.751 177.64C108.361 177.539 108.601 175.848 109.011 174.893C109.281 174.901 109.561 174.91 109.831 174.918Z" fill="white"/>
<path d="M183.023 153.33V142.419C181.353 142.16 180.083 141.959 178.633 141.741V136.817H185.773C185.263 142.361 184.753 147.854 184.243 153.355C183.833 153.355 183.433 153.339 183.023 153.339V153.33Z" fill="white"/>
<path d="M147.862 187.512C146.482 187.244 145.242 187.001 143.822 186.725C143.842 184.413 142.532 182.261 145.882 180.327C147.162 179.59 146.412 176.391 146.612 174.105H150.292C149.482 178.535 148.712 182.814 147.852 187.503L147.862 187.512Z" fill="white"/>
<path d="M195.172 163.956V149.88C197.372 149.194 198.792 149.269 198.782 151.622C198.762 155.172 198.912 158.731 198.652 162.265C198.582 163.153 197.222 163.973 196.452 164.819C196.022 164.534 195.602 164.241 195.172 163.956Z" fill="white"/>
<path d="M102.649 225.135C102.649 221.149 102.579 217.155 102.729 213.169C102.749 212.558 103.779 211.98 104.339 211.385C104.999 212.014 106.209 212.616 106.239 213.261C106.419 216.694 106.459 220.153 106.199 223.586C106.139 224.432 104.769 225.21 103.999 226.023C103.549 225.73 103.099 225.428 102.649 225.135Z" fill="white"/>
<path d="M186.203 102.226C186.203 104.001 186.343 105.793 186.123 107.543C186.043 108.188 185.093 108.758 184.543 109.36C183.913 108.816 182.753 108.289 182.723 107.736C182.563 104.077 182.573 100.409 182.743 96.7581C182.773 96.1887 183.913 95.6528 184.543 95.1001C185.103 95.703 186.073 96.264 186.163 96.9004C186.393 98.6589 186.243 100.443 186.243 102.218C186.233 102.218 186.213 102.218 186.203 102.218V102.226Z" fill="white"/>
<path d="M51.2812 131.4C53.1413 130.989 54.3913 130.713 56.3013 130.294C56.3013 132.312 56.1013 134.054 56.3613 135.754C56.5913 137.286 57.4312 138.752 57.7712 140.284C58.0012 141.339 58.2112 142.604 57.7012 143.483C57.3912 144.01 55.6813 143.952 54.1713 144.236C54.0813 142.763 54.0512 141.691 53.9412 140.619C53.7812 139.095 54.4713 137.571 52.1613 136.315C51.1213 135.745 51.5513 133.275 51.2812 131.4Z" fill="white"/>
<path d="M103 239.345H111.16V245.014H103V239.345Z" fill="white"/>
<path d="M72.9697 145.97H68.4897C68.4897 143.023 68.3597 140.276 68.5897 137.546C68.6397 136.935 69.9897 135.964 70.7397 135.964C71.4797 135.964 72.8097 136.952 72.8597 137.571C73.0897 140.301 72.9597 143.056 72.9597 145.97H72.9697Z" fill="white"/>
<path d="M125.17 231.9C126.56 227.337 121.44 223.175 124.13 218.184C129.41 221.375 128.24 225.62 128.12 229.564C128.09 230.469 127.21 231.348 126.71 232.235C126.2 232.127 125.69 232.009 125.17 231.9Z" fill="white"/>
<path d="M17.4922 114.56V87.6138C17.8422 87.6138 18.1922 87.6138 18.5422 87.6221V114.569C18.1922 114.569 17.8422 114.569 17.4922 114.56Z" fill="white"/>
<path d="M188.563 90.5198C188.563 88.8618 188.433 87.1955 188.633 85.5542C188.703 85.0099 189.603 84.541 190.123 84.0386C190.683 84.5159 191.713 84.9764 191.733 85.4705C191.883 88.8869 191.883 92.3118 191.753 95.7366C191.733 96.239 190.753 96.7163 190.223 97.202C189.643 96.7415 188.633 96.3144 188.573 95.812C188.363 94.0619 188.493 92.2866 188.493 90.5198H188.553H188.563Z" fill="white"/>
<path d="M111.897 168.211H105.047V163.237H111.897V168.211Z" fill="white"/>
<path d="M9.04328 158.413C9.04328 156.521 8.95328 154.628 9.10328 152.744C9.14328 152.259 9.91328 151.815 10.3533 151.354C10.9133 151.84 11.9433 152.309 11.9533 152.803C12.0533 156.697 11.9933 160.59 11.8633 164.484C11.8433 164.961 11.0533 165.43 10.6233 165.899C10.0933 165.405 9.15328 164.945 9.10328 164.417C8.92328 162.424 9.03327 160.415 9.03327 158.413H9.05329H9.04328Z" fill="white"/>
<path d="M91.2288 58.6162V54.1782C92.3988 54.0861 93.3087 53.9604 94.2087 53.9604C95.3787 53.9604 96.5387 54.0442 97.9487 54.1028V58.6162H91.2188H91.2288Z" fill="white"/>
<path d="M185.102 197.862H189.082V204.578H185.102V197.862Z" fill="white"/>
<path d="M172.119 98.9266C172.119 100.585 172.209 102.251 172.059 103.901C172.009 104.403 171.289 104.863 170.879 105.341C170.369 104.956 169.419 104.579 169.409 104.185C169.309 100.76 169.349 97.3272 169.459 93.9023C169.469 93.5172 170.199 93.1571 170.589 92.7803C171.089 93.1655 171.989 93.5255 172.029 93.9442C172.199 95.5938 172.099 97.2602 172.099 98.9182C172.099 98.9182 172.109 98.9182 172.119 98.9182V98.9266Z" fill="white"/>
<path d="M176.617 93.3578V80.9229C177.017 80.9229 177.407 80.9396 177.807 80.948V93.4583L176.617 93.3578Z" fill="white"/>
<path d="M93.0703 120.472V113.472H97.0103V120.095C95.8003 120.212 94.6803 120.321 93.0703 120.472Z" fill="white"/>
<path d="M45.2398 102.327C45.2398 103.867 45.3397 105.417 45.1697 106.949C45.1197 107.426 44.3598 107.845 43.9298 108.297C43.4398 107.887 42.5497 107.485 42.5297 107.066C42.4197 103.876 42.4298 100.685 42.5498 97.4951C42.5698 97.0931 43.4797 96.7163 43.9797 96.3228C44.3997 96.7833 45.1197 97.2271 45.1697 97.7128C45.3297 99.2452 45.2297 100.794 45.2197 102.335L45.2398 102.327Z" fill="white"/>
<path d="M62.033 140.008C64.473 139.162 65.613 139.564 65.483 141.657C65.413 142.863 65.683 144.102 65.423 145.266C65.253 146.037 64.423 146.707 63.883 147.418C63.263 146.765 62.213 146.154 62.113 145.45C61.863 143.625 62.033 141.758 62.033 139.999V140.008Z" fill="white"/>
<path d="M130.469 189.262V177.522C130.779 177.522 131.089 177.514 131.399 177.506V189.179C131.089 189.204 130.779 189.229 130.469 189.262Z" fill="white"/>
<path d="M98.2328 125.027V130.679C96.8628 130.755 95.6428 130.822 94.1328 130.905V125.22C95.3728 125.161 96.5928 125.102 98.2328 125.027Z" fill="white"/>
<path d="M48.3906 125.689C49.2706 124.081 49.9906 122.767 50.7106 121.452C51.2006 122.875 52.0506 124.299 52.0706 125.722C52.0806 127.154 51.2607 128.595 50.8007 130.035C50.0307 128.645 49.2606 127.246 48.3906 125.689Z" fill="white"/>
<path d="M135.359 200.859C136.079 199.394 136.739 198.037 137.409 196.681C137.919 198.096 138.859 199.52 138.809 200.918C138.749 202.526 137.799 204.1 137.229 205.691C136.629 204.15 136.039 202.609 135.359 200.859Z" fill="white"/>
<path d="M141.606 196.598C141.606 193.893 141.556 191.481 141.656 189.078C141.676 188.668 142.226 188.04 142.666 187.939C143.116 187.839 144.206 188.257 144.206 188.467C144.286 190.987 144.256 193.508 144.096 196.028C144.086 196.212 142.796 196.338 141.606 196.606V196.598Z" fill="white"/>
<path d="M208.711 265.865V262.013H214.781V265.865H208.711Z" fill="white"/>
<path d="M190.242 192.871H186.492V187.437C187.682 187.386 188.792 187.345 190.242 187.286V192.871Z" fill="white"/>
<path d="M48.7507 111.437V120.841C46.6107 119.342 46.3307 114.251 48.7507 111.437Z" fill="white"/>
<path d="M85.0225 58.7244H68.5825L68.5625 57.9958H84.9725C84.9825 58.2387 85.0025 58.4815 85.0125 58.7244H85.0225Z" fill="white"/>
<path d="M193.711 257.021H178.471C178.471 256.762 178.471 256.511 178.461 256.251H193.681C193.681 256.511 193.701 256.762 193.711 257.021Z" fill="white"/>
<path d="M77.3906 158.421V146.815C77.7306 146.815 78.0807 146.807 78.4207 146.799C79.5207 150.65 78.8407 154.536 78.8007 158.413C78.3307 158.413 77.8606 158.413 77.3906 158.413V158.421Z" fill="white"/>
<path d="M9.69962 94.8404C9.69962 94.2877 9.50961 93.6764 9.74961 93.2075C10.0796 92.5543 10.7297 92.0101 11.2397 91.4155C11.6297 92.0017 12.2396 92.5544 12.3496 93.174C12.5296 94.2542 12.5596 95.3847 12.3396 96.4565C12.1696 97.2604 11.4997 97.9805 11.0497 98.7425C10.5697 97.9889 9.99965 97.2687 9.65965 96.4732C9.44965 95.9876 9.61967 95.3846 9.61967 94.8404H9.69962Z" fill="white"/>
<path d="M107.656 210.992V202.576C110.316 204.058 110.506 208.22 107.656 210.992Z" fill="white"/>
<path d="M16.3828 81.3255V73.6384H17.1528V81.3087C16.8928 81.3087 16.6328 81.3087 16.3828 81.3171V81.3255Z" fill="white"/>
<path d="M193.109 138.618H197.319C197.319 139.815 197.509 141.004 197.209 142.101C197.119 142.445 195.069 142.805 195.009 142.704C194.309 141.507 193.809 140.226 193.109 138.618Z" fill="white"/>
<path d="M118.877 162.893C122.417 162.064 124.257 161.972 123.897 164.367C123.777 165.154 122.647 165.824 121.977 166.553C121.067 165.489 120.167 164.417 118.867 162.893H118.877Z" fill="white"/>
<path d="M113.31 80.6807C112.28 81.3003 111.31 82.0623 110.17 82.414C109.91 82.4978 109.02 81.1747 108.43 80.4965C109.66 79.9689 110.89 79.4414 112.11 78.9138C112.51 79.5 112.91 80.0861 113.31 80.6807Z" fill="white"/>
<path d="M217.591 233.124C218.731 234.287 219.741 234.874 219.701 235.401C219.661 235.971 218.671 236.883 218.031 236.925C217.371 236.959 216.251 236.222 216.061 235.644C215.891 235.15 216.751 234.421 217.591 233.124Z" fill="white"/>
</g>
</svg>
